ISO-10303-21;
HEADER;
/* Generated by software containing ST-Developer
 * from STEP Tools, Inc. (www.steptools.com) 
 */

FILE_DESCRIPTION(
/* description */ (''),
/* implementation_level */ '2;1');

FILE_NAME(
/* name */ 'B32924_22x36.5x31.5.stp',
/* time_stamp */ '2025-12-03T18:39:44+03:00',
/* author */ ('alexa'),
/* organization */ (''),
/* preprocessor_version */ 'ST-DEVELOPER v20',
/* originating_system */ 'Autodesk Inventor 2025',
/* authorisation */ '');

FILE_SCHEMA (('AUTOMOTIVE_DESIGN { 1 0 10303 214 3 1 1 }'));
ENDSEC;

DATA;
#10=MECHANICAL_DESIGN_GEOMETRIC_PRESENTATION_REPRESENTATION('',(#574,#575,
#576,#577,#578,#579,#580,#581,#582,#583),#1015);
#11=SHAPE_REPRESENTATION_RELATIONSHIP('SRR','None',#1022,#12);
#12=ADVANCED_BREP_SHAPE_REPRESENTATION('',(#13),#1014);
#13=MANIFOLD_SOLID_BREP('\X2\04220432043504400434043E0435\X0\ \X2\04420435043B043E\X0\2',
#618);
#14=FACE_BOUND('',#91,.T.);
#15=FACE_BOUND('',#92,.T.);
#16=CIRCLE('',#654,0.4);
#17=CIRCLE('',#655,0.4);
#18=CIRCLE('',#675,0.4);
#19=CIRCLE('',#678,0.4);
#20=PLANE('',#649);
#21=PLANE('',#650);
#22=PLANE('',#651);
#23=PLANE('',#652);
#24=PLANE('',#653);
#25=PLANE('',#656);
#26=PLANE('',#657);
#27=PLANE('',#658);
#28=PLANE('',#659);
#29=PLANE('',#660);
#30=PLANE('',#661);
#31=PLANE('',#662);
#32=PLANE('',#663);
#33=PLANE('',#664);
#34=PLANE('',#665);
#35=PLANE('',#666);
#36=PLANE('',#667);
#37=PLANE('',#668);
#38=PLANE('',#669);
#39=PLANE('',#670);
#40=PLANE('',#671);
#41=PLANE('',#672);
#42=PLANE('',#673);
#43=PLANE('',#676);
#44=PLANE('',#679);
#45=PLANE('',#680);
#46=PLANE('',#681);
#47=PLANE('',#682);
#48=FACE_OUTER_BOUND('',#82,.T.);
#49=FACE_OUTER_BOUND('',#83,.T.);
#50=FACE_OUTER_BOUND('',#84,.T.);
#51=FACE_OUTER_BOUND('',#85,.T.);
#52=FACE_OUTER_BOUND('',#86,.T.);
#53=FACE_OUTER_BOUND('',#87,.T.);
#54=FACE_OUTER_BOUND('',#88,.T.);
#55=FACE_OUTER_BOUND('',#89,.T.);
#56=FACE_OUTER_BOUND('',#90,.T.);
#57=FACE_OUTER_BOUND('',#93,.T.);
#58=FACE_OUTER_BOUND('',#94,.T.);
#59=FACE_OUTER_BOUND('',#95,.T.);
#60=FACE_OUTER_BOUND('',#96,.T.);
#61=FACE_OUTER_BOUND('',#97,.T.);
#62=FACE_OUTER_BOUND('',#98,.T.);
#63=FACE_OUTER_BOUND('',#99,.T.);
#64=FACE_OUTER_BOUND('',#100,.T.);
#65=FACE_OUTER_BOUND('',#101,.T.);
#66=FACE_OUTER_BOUND('',#102,.T.);
#67=FACE_OUTER_BOUND('',#103,.T.);
#68=FACE_OUTER_BOUND('',#104,.T.);
#69=FACE_OUTER_BOUND('',#105,.T.);
#70=FACE_OUTER_BOUND('',#106,.T.);
#71=FACE_OUTER_BOUND('',#107,.T.);
#72=FACE_OUTER_BOUND('',#108,.T.);
#73=FACE_OUTER_BOUND('',#109,.T.);
#74=FACE_OUTER_BOUND('',#110,.T.);
#75=FACE_OUTER_BOUND('',#111,.T.);
#76=FACE_OUTER_BOUND('',#112,.T.);
#77=FACE_OUTER_BOUND('',#113,.T.);
#78=FACE_OUTER_BOUND('',#114,.T.);
#79=FACE_OUTER_BOUND('',#115,.T.);
#80=FACE_OUTER_BOUND('',#116,.T.);
#81=FACE_OUTER_BOUND('',#117,.T.);
#82=EDGE_LOOP('',(#404,#405,#406,#407));
#83=EDGE_LOOP('',(#408,#409,#410,#411,#412,#413,#414,#415));
#84=EDGE_LOOP('',(#416,#417,#418,#419));
#85=EDGE_LOOP('',(#420,#421,#422,#423,#424,#425,#426,#427));
#86=EDGE_LOOP('',(#428,#429,#430,#431));
#87=EDGE_LOOP('',(#432,#433,#434,#435));
#88=EDGE_LOOP('',(#436,#437,#438,#439));
#89=EDGE_LOOP('',(#440,#441,#442,#443));
#90=EDGE_LOOP('',(#444,#445,#446,#447));
#91=EDGE_LOOP('',(#448));
#92=EDGE_LOOP('',(#449));
#93=EDGE_LOOP('',(#450,#451,#452,#453));
#94=EDGE_LOOP('',(#454,#455,#456,#457));
#95=EDGE_LOOP('',(#458,#459,#460,#461,#462,#463,#464,#465,#466,#467,#468,
#469));
#96=EDGE_LOOP('',(#470,#471,#472,#473));
#97=EDGE_LOOP('',(#474,#475,#476,#477,#478,#479,#480,#481,#482,#483,#484,
#485));
#98=EDGE_LOOP('',(#486,#487,#488,#489));
#99=EDGE_LOOP('',(#490,#491,#492,#493));
#100=EDGE_LOOP('',(#494,#495,#496,#497));
#101=EDGE_LOOP('',(#498,#499,#500,#501));
#102=EDGE_LOOP('',(#502,#503,#504,#505));
#103=EDGE_LOOP('',(#506,#507,#508,#509));
#104=EDGE_LOOP('',(#510,#511,#512,#513));
#105=EDGE_LOOP('',(#514,#515,#516,#517));
#106=EDGE_LOOP('',(#518,#519,#520,#521,#522,#523,#524,#525));
#107=EDGE_LOOP('',(#526,#527,#528,#529));
#108=EDGE_LOOP('',(#530,#531,#532,#533,#534,#535,#536,#537));
#109=EDGE_LOOP('',(#538,#539,#540,#541));
#110=EDGE_LOOP('',(#542,#543,#544,#545));
#111=EDGE_LOOP('',(#546,#547,#548,#549));
#112=EDGE_LOOP('',(#550));
#113=EDGE_LOOP('',(#551,#552,#553,#554));
#114=EDGE_LOOP('',(#555));
#115=EDGE_LOOP('',(#556,#557,#558,#559));
#116=EDGE_LOOP('',(#560,#561,#562,#563));
#117=EDGE_LOOP('',(#564,#565,#566,#567));
#118=ELLIPSE('',#642,0.282842712474619,0.2);
#119=ELLIPSE('',#643,0.282842712474619,0.2);
#120=ELLIPSE('',#645,0.282842712474618,0.2);
#121=ELLIPSE('',#647,0.282842712474619,0.2);
#122=LINE('',#847,#196);
#123=LINE('',#851,#197);
#124=LINE('',#856,#198);
#125=LINE('',#858,#199);
#126=LINE('',#860,#200);
#127=LINE('',#862,#201);
#128=LINE('',#863,#202);
#129=LINE('',#865,#203);
#130=LINE('',#869,#204);
#131=LINE('',#871,#205);
#132=LINE('',#875,#206);
#133=LINE('',#877,#207);
#134=LINE('',#879,#208);
#135=LINE('',#881,#209);
#136=LINE('',#882,#210);
#137=LINE('',#883,#211);
#138=LINE('',#886,#212);
#139=LINE('',#888,#213);
#140=LINE('',#889,#214);
#141=LINE('',#892,#215);
#142=LINE('',#894,#216);
#143=LINE('',#895,#217);
#144=LINE('',#898,#218);
#145=LINE('',#900,#219);
#146=LINE('',#901,#220);
#147=LINE('',#904,#221);
#148=LINE('',#906,#222);
#149=LINE('',#907,#223);
#150=LINE('',#916,#224);
#151=LINE('',#917,#225);
#152=LINE('',#918,#226);
#153=LINE('',#921,#227);
#154=LINE('',#922,#228);
#155=LINE('',#925,#229);
#156=LINE('',#927,#230);
#157=LINE('',#929,#231);
#158=LINE('',#931,#232);
#159=LINE('',#933,#233);
#160=LINE('',#935,#234);
#161=LINE('',#937,#235);
#162=LINE('',#939,#236);
#163=LINE('',#941,#237);
#164=LINE('',#942,#238);
#165=LINE('',#945,#239);
#166=LINE('',#947,#240);
#167=LINE('',#948,#241);
#168=LINE('',#951,#242);
#169=LINE('',#953,#243);
#170=LINE('',#955,#244);
#171=LINE('',#957,#245);
#172=LINE('',#959,#246);
#173=LINE('',#961,#247);
#174=LINE('',#963,#248);
#175=LINE('',#965,#249);
#176=LINE('',#967,#250);
#177=LINE('',#969,#251);
#178=LINE('',#970,#252);
#179=LINE('',#972,#253);
#180=LINE('',#974,#254);
#181=LINE('',#976,#255);
#182=LINE('',#978,#256);
#183=LINE('',#979,#257);
#184=LINE('',#981,#258);
#185=LINE('',#983,#259);
#186=LINE('',#985,#260);
#187=LINE('',#986,#261);
#188=LINE('',#988,#262);
#189=LINE('',#989,#263);
#190=LINE('',#991,#264);
#191=LINE('',#994,#265);
#192=LINE('',#1000,#266);
#193=LINE('',#1005,#267);
#194=LINE('',#1008,#268);
#195=LINE('',#1010,#269);
#196=VECTOR('',#687,10.);
#197=VECTOR('',#690,10.);
#198=VECTOR('',#695,10.);
#199=VECTOR('',#696,10.);
#200=VECTOR('',#697,10.);
#201=VECTOR('',#698,10.);
#202=VECTOR('',#699,10.);
#203=VECTOR('',#700,10.);
#204=VECTOR('',#705,10.);
#205=VECTOR('',#706,10.);
#206=VECTOR('',#711,10.);
#207=VECTOR('',#712,10.);
#208=VECTOR('',#713,10.);
#209=VECTOR('',#714,10.);
#210=VECTOR('',#715,10.);
#211=VECTOR('',#716,10.);
#212=VECTOR('',#719,10.);
#213=VECTOR('',#720,10.);
#214=VECTOR('',#721,10.);
#215=VECTOR('',#724,10.);
#216=VECTOR('',#725,10.);
#217=VECTOR('',#726,10.);
#218=VECTOR('',#729,10.);
#219=VECTOR('',#730,10.);
#220=VECTOR('',#731,10.);
#221=VECTOR('',#734,10.);
#222=VECTOR('',#735,10.);
#223=VECTOR('',#736,10.);
#224=VECTOR('',#745,10.);
#225=VECTOR('',#746,10.);
#226=VECTOR('',#747,10.);
#227=VECTOR('',#750,10.);
#228=VECTOR('',#751,10.);
#229=VECTOR('',#754,10.);
#230=VECTOR('',#755,10.);
#231=VECTOR('',#756,10.);
#232=VECTOR('',#757,10.);
#233=VECTOR('',#758,10.);
#234=VECTOR('',#759,10.);
#235=VECTOR('',#760,10.);
#236=VECTOR('',#761,10.);
#237=VECTOR('',#762,10.);
#238=VECTOR('',#763,10.);
#239=VECTOR('',#766,10.);
#240=VECTOR('',#767,10.);
#241=VECTOR('',#768,10.);
#242=VECTOR('',#771,10.);
#243=VECTOR('',#772,10.);
#244=VECTOR('',#773,10.);
#245=VECTOR('',#774,10.);
#246=VECTOR('',#775,10.);
#247=VECTOR('',#776,10.);
#248=VECTOR('',#777,10.);
#249=VECTOR('',#778,10.);
#250=VECTOR('',#779,10.);
#251=VECTOR('',#780,10.);
#252=VECTOR('',#781,10.);
#253=VECTOR('',#784,10.);
#254=VECTOR('',#787,10.);
#255=VECTOR('',#790,10.);
#256=VECTOR('',#793,10.);
#257=VECTOR('',#794,10.);
#258=VECTOR('',#797,10.);
#259=VECTOR('',#800,10.);
#260=VECTOR('',#803,10.);
#261=VECTOR('',#804,10.);
#262=VECTOR('',#807,10.);
#263=VECTOR('',#808,10.);
#264=VECTOR('',#811,10.);
#265=VECTOR('',#816,10.);
#266=VECTOR('',#825,0.4);
#267=VECTOR('',#832,0.4);
#268=VECTOR('',#837,10.);
#269=VECTOR('',#840,10.);
#270=VERTEX_POINT('',#845);
#271=VERTEX_POINT('',#846);
#272=VERTEX_POINT('',#848);
#273=VERTEX_POINT('',#850);
#274=VERTEX_POINT('',#854);
#275=VERTEX_POINT('',#855);
#276=VERTEX_POINT('',#857);
#277=VERTEX_POINT('',#859);
#278=VERTEX_POINT('',#861);
#279=VERTEX_POINT('',#864);
#280=VERTEX_POINT('',#868);
#281=VERTEX_POINT('',#870);
#282=VERTEX_POINT('',#874);
#283=VERTEX_POINT('',#876);
#284=VERTEX_POINT('',#878);
#285=VERTEX_POINT('',#880);
#286=VERTEX_POINT('',#885);
#287=VERTEX_POINT('',#887);
#288=VERTEX_POINT('',#891);
#289=VERTEX_POINT('',#893);
#290=VERTEX_POINT('',#897);
#291=VERTEX_POINT('',#899);
#292=VERTEX_POINT('',#903);
#293=VERTEX_POINT('',#905);
#294=VERTEX_POINT('',#909);
#295=VERTEX_POINT('',#911);
#296=VERTEX_POINT('',#914);
#297=VERTEX_POINT('',#915);
#298=VERTEX_POINT('',#920);
#299=VERTEX_POINT('',#924);
#300=VERTEX_POINT('',#926);
#301=VERTEX_POINT('',#928);
#302=VERTEX_POINT('',#930);
#303=VERTEX_POINT('',#932);
#304=VERTEX_POINT('',#934);
#305=VERTEX_POINT('',#936);
#306=VERTEX_POINT('',#938);
#307=VERTEX_POINT('',#940);
#308=VERTEX_POINT('',#944);
#309=VERTEX_POINT('',#946);
#310=VERTEX_POINT('',#950);
#311=VERTEX_POINT('',#952);
#312=VERTEX_POINT('',#954);
#313=VERTEX_POINT('',#956);
#314=VERTEX_POINT('',#958);
#315=VERTEX_POINT('',#960);
#316=VERTEX_POINT('',#962);
#317=VERTEX_POINT('',#964);
#318=VERTEX_POINT('',#966);
#319=VERTEX_POINT('',#968);
#320=VERTEX_POINT('',#998);
#321=VERTEX_POINT('',#1003);
#322=EDGE_CURVE('',#270,#271,#122,.T.);
#323=EDGE_CURVE('',#271,#272,#118,.T.);
#324=EDGE_CURVE('',#272,#273,#123,.T.);
#325=EDGE_CURVE('',#270,#273,#119,.T.);
#326=EDGE_CURVE('',#274,#275,#124,.T.);
#327=EDGE_CURVE('',#275,#276,#125,.T.);
#328=EDGE_CURVE('',#276,#277,#126,.T.);
#329=EDGE_CURVE('',#277,#278,#127,.T.);
#330=EDGE_CURVE('',#278,#272,#128,.T.);
#331=EDGE_CURVE('',#271,#279,#129,.T.);
#332=EDGE_CURVE('',#279,#274,#120,.T.);
#333=EDGE_CURVE('',#280,#274,#130,.T.);
#334=EDGE_CURVE('',#279,#281,#131,.T.);
#335=EDGE_CURVE('',#281,#280,#121,.T.);
#336=EDGE_CURVE('',#273,#282,#132,.T.);
#337=EDGE_CURVE('',#282,#283,#133,.T.);
#338=EDGE_CURVE('',#283,#284,#134,.T.);
#339=EDGE_CURVE('',#284,#285,#135,.T.);
#340=EDGE_CURVE('',#285,#280,#136,.T.);
#341=EDGE_CURVE('',#281,#270,#137,.T.);
#342=EDGE_CURVE('',#286,#277,#138,.T.);
#343=EDGE_CURVE('',#287,#286,#139,.T.);
#344=EDGE_CURVE('',#278,#287,#140,.T.);
#345=EDGE_CURVE('',#288,#275,#141,.T.);
#346=EDGE_CURVE('',#289,#288,#142,.T.);
#347=EDGE_CURVE('',#276,#289,#143,.T.);
#348=EDGE_CURVE('',#290,#282,#144,.T.);
#349=EDGE_CURVE('',#291,#290,#145,.T.);
#350=EDGE_CURVE('',#283,#291,#146,.T.);
#351=EDGE_CURVE('',#292,#284,#147,.T.);
#352=EDGE_CURVE('',#293,#292,#148,.T.);
#353=EDGE_CURVE('',#285,#293,#149,.T.);
#354=EDGE_CURVE('',#294,#294,#16,.T.);
#355=EDGE_CURVE('',#295,#295,#17,.T.);
#356=EDGE_CURVE('',#296,#297,#150,.T.);
#357=EDGE_CURVE('',#297,#288,#151,.T.);
#358=EDGE_CURVE('',#275,#296,#152,.T.);
#359=EDGE_CURVE('',#297,#298,#153,.T.);
#360=EDGE_CURVE('',#289,#298,#154,.T.);
#361=EDGE_CURVE('',#296,#299,#155,.T.);
#362=EDGE_CURVE('',#299,#300,#156,.T.);
#363=EDGE_CURVE('',#301,#300,#157,.T.);
#364=EDGE_CURVE('',#302,#301,#158,.T.);
#365=EDGE_CURVE('',#302,#303,#159,.T.);
#366=EDGE_CURVE('',#304,#303,#160,.T.);
#367=EDGE_CURVE('',#305,#304,#161,.T.);
#368=EDGE_CURVE('',#306,#305,#162,.T.);
#369=EDGE_CURVE('',#306,#307,#163,.T.);
#370=EDGE_CURVE('',#298,#307,#164,.T.);
#371=EDGE_CURVE('',#293,#308,#165,.T.);
#372=EDGE_CURVE('',#308,#309,#166,.T.);
#373=EDGE_CURVE('',#309,#285,#167,.T.);
#374=EDGE_CURVE('',#310,#308,#168,.T.);
#375=EDGE_CURVE('',#311,#310,#169,.T.);
#376=EDGE_CURVE('',#311,#312,#170,.T.);
#377=EDGE_CURVE('',#313,#312,#171,.T.);
#378=EDGE_CURVE('',#314,#313,#172,.T.);
#379=EDGE_CURVE('',#315,#314,#173,.T.);
#380=EDGE_CURVE('',#315,#316,#174,.T.);
#381=EDGE_CURVE('',#316,#317,#175,.T.);
#382=EDGE_CURVE('',#318,#317,#176,.T.);
#383=EDGE_CURVE('',#319,#318,#177,.T.);
#384=EDGE_CURVE('',#319,#309,#178,.T.);
#385=EDGE_CURVE('',#310,#292,#179,.T.);
#386=EDGE_CURVE('',#307,#276,#180,.T.);
#387=EDGE_CURVE('',#284,#311,#181,.T.);
#388=EDGE_CURVE('',#314,#290,#182,.T.);
#389=EDGE_CURVE('',#282,#315,#183,.T.);
#390=EDGE_CURVE('',#291,#313,#184,.T.);
#391=EDGE_CURVE('',#312,#283,#185,.T.);
#392=EDGE_CURVE('',#287,#304,#186,.T.);
#393=EDGE_CURVE('',#303,#278,#187,.T.);
#394=EDGE_CURVE('',#305,#286,#188,.T.);
#395=EDGE_CURVE('',#277,#306,#189,.T.);
#396=EDGE_CURVE('',#316,#302,#190,.T.);
#397=EDGE_CURVE('',#299,#319,#191,.T.);
#398=EDGE_CURVE('',#320,#320,#18,.T.);
#399=EDGE_CURVE('',#320,#294,#192,.T.);
#400=EDGE_CURVE('',#321,#321,#19,.T.);
#401=EDGE_CURVE('',#321,#295,#193,.T.);
#402=EDGE_CURVE('',#300,#318,#194,.T.);
#403=EDGE_CURVE('',#317,#301,#195,.T.);
#404=ORIENTED_EDGE('',*,*,#322,.T.);
#405=ORIENTED_EDGE('',*,*,#323,.T.);
#406=ORIENTED_EDGE('',*,*,#324,.T.);
#407=ORIENTED_EDGE('',*,*,#325,.F.);
#408=ORIENTED_EDGE('',*,*,#326,.T.);
#409=ORIENTED_EDGE('',*,*,#327,.T.);
#410=ORIENTED_EDGE('',*,*,#328,.T.);
#411=ORIENTED_EDGE('',*,*,#329,.T.);
#412=ORIENTED_EDGE('',*,*,#330,.T.);
#413=ORIENTED_EDGE('',*,*,#323,.F.);
#414=ORIENTED_EDGE('',*,*,#331,.T.);
#415=ORIENTED_EDGE('',*,*,#332,.T.);
#416=ORIENTED_EDGE('',*,*,#333,.T.);
#417=ORIENTED_EDGE('',*,*,#332,.F.);
#418=ORIENTED_EDGE('',*,*,#334,.T.);
#419=ORIENTED_EDGE('',*,*,#335,.T.);
#420=ORIENTED_EDGE('',*,*,#336,.T.);
#421=ORIENTED_EDGE('',*,*,#337,.T.);
#422=ORIENTED_EDGE('',*,*,#338,.T.);
#423=ORIENTED_EDGE('',*,*,#339,.T.);
#424=ORIENTED_EDGE('',*,*,#340,.T.);
#425=ORIENTED_EDGE('',*,*,#335,.F.);
#426=ORIENTED_EDGE('',*,*,#341,.T.);
#427=ORIENTED_EDGE('',*,*,#325,.T.);
#428=ORIENTED_EDGE('',*,*,#329,.F.);
#429=ORIENTED_EDGE('',*,*,#342,.F.);
#430=ORIENTED_EDGE('',*,*,#343,.F.);
#431=ORIENTED_EDGE('',*,*,#344,.F.);
#432=ORIENTED_EDGE('',*,*,#327,.F.);
#433=ORIENTED_EDGE('',*,*,#345,.F.);
#434=ORIENTED_EDGE('',*,*,#346,.F.);
#435=ORIENTED_EDGE('',*,*,#347,.F.);
#436=ORIENTED_EDGE('',*,*,#337,.F.);
#437=ORIENTED_EDGE('',*,*,#348,.F.);
#438=ORIENTED_EDGE('',*,*,#349,.F.);
#439=ORIENTED_EDGE('',*,*,#350,.F.);
#440=ORIENTED_EDGE('',*,*,#339,.F.);
#441=ORIENTED_EDGE('',*,*,#351,.F.);
#442=ORIENTED_EDGE('',*,*,#352,.F.);
#443=ORIENTED_EDGE('',*,*,#353,.F.);
#444=ORIENTED_EDGE('',*,*,#322,.F.);
#445=ORIENTED_EDGE('',*,*,#341,.F.);
#446=ORIENTED_EDGE('',*,*,#334,.F.);
#447=ORIENTED_EDGE('',*,*,#331,.F.);
#448=ORIENTED_EDGE('',*,*,#354,.F.);
#449=ORIENTED_EDGE('',*,*,#355,.F.);
#450=ORIENTED_EDGE('',*,*,#356,.T.);
#451=ORIENTED_EDGE('',*,*,#357,.T.);
#452=ORIENTED_EDGE('',*,*,#345,.T.);
#453=ORIENTED_EDGE('',*,*,#358,.T.);
#454=ORIENTED_EDGE('',*,*,#357,.F.);
#455=ORIENTED_EDGE('',*,*,#359,.T.);
#456=ORIENTED_EDGE('',*,*,#360,.F.);
#457=ORIENTED_EDGE('',*,*,#346,.T.);
#458=ORIENTED_EDGE('',*,*,#356,.F.);
#459=ORIENTED_EDGE('',*,*,#361,.T.);
#460=ORIENTED_EDGE('',*,*,#362,.T.);
#461=ORIENTED_EDGE('',*,*,#363,.F.);
#462=ORIENTED_EDGE('',*,*,#364,.F.);
#463=ORIENTED_EDGE('',*,*,#365,.T.);
#464=ORIENTED_EDGE('',*,*,#366,.F.);
#465=ORIENTED_EDGE('',*,*,#367,.F.);
#466=ORIENTED_EDGE('',*,*,#368,.F.);
#467=ORIENTED_EDGE('',*,*,#369,.T.);
#468=ORIENTED_EDGE('',*,*,#370,.F.);
#469=ORIENTED_EDGE('',*,*,#359,.F.);
#470=ORIENTED_EDGE('',*,*,#353,.T.);
#471=ORIENTED_EDGE('',*,*,#371,.T.);
#472=ORIENTED_EDGE('',*,*,#372,.T.);
#473=ORIENTED_EDGE('',*,*,#373,.T.);
#474=ORIENTED_EDGE('',*,*,#372,.F.);
#475=ORIENTED_EDGE('',*,*,#374,.F.);
#476=ORIENTED_EDGE('',*,*,#375,.F.);
#477=ORIENTED_EDGE('',*,*,#376,.T.);
#478=ORIENTED_EDGE('',*,*,#377,.F.);
#479=ORIENTED_EDGE('',*,*,#378,.F.);
#480=ORIENTED_EDGE('',*,*,#379,.F.);
#481=ORIENTED_EDGE('',*,*,#380,.T.);
#482=ORIENTED_EDGE('',*,*,#381,.T.);
#483=ORIENTED_EDGE('',*,*,#382,.F.);
#484=ORIENTED_EDGE('',*,*,#383,.F.);
#485=ORIENTED_EDGE('',*,*,#384,.T.);
#486=ORIENTED_EDGE('',*,*,#371,.F.);
#487=ORIENTED_EDGE('',*,*,#352,.T.);
#488=ORIENTED_EDGE('',*,*,#385,.F.);
#489=ORIENTED_EDGE('',*,*,#374,.T.);
#490=ORIENTED_EDGE('',*,*,#347,.T.);
#491=ORIENTED_EDGE('',*,*,#360,.T.);
#492=ORIENTED_EDGE('',*,*,#370,.T.);
#493=ORIENTED_EDGE('',*,*,#386,.T.);
#494=ORIENTED_EDGE('',*,*,#375,.T.);
#495=ORIENTED_EDGE('',*,*,#385,.T.);
#496=ORIENTED_EDGE('',*,*,#351,.T.);
#497=ORIENTED_EDGE('',*,*,#387,.T.);
#498=ORIENTED_EDGE('',*,*,#379,.T.);
#499=ORIENTED_EDGE('',*,*,#388,.T.);
#500=ORIENTED_EDGE('',*,*,#348,.T.);
#501=ORIENTED_EDGE('',*,*,#389,.T.);
#502=ORIENTED_EDGE('',*,*,#388,.F.);
#503=ORIENTED_EDGE('',*,*,#378,.T.);
#504=ORIENTED_EDGE('',*,*,#390,.F.);
#505=ORIENTED_EDGE('',*,*,#349,.T.);
#506=ORIENTED_EDGE('',*,*,#350,.T.);
#507=ORIENTED_EDGE('',*,*,#390,.T.);
#508=ORIENTED_EDGE('',*,*,#377,.T.);
#509=ORIENTED_EDGE('',*,*,#391,.T.);
#510=ORIENTED_EDGE('',*,*,#344,.T.);
#511=ORIENTED_EDGE('',*,*,#392,.T.);
#512=ORIENTED_EDGE('',*,*,#366,.T.);
#513=ORIENTED_EDGE('',*,*,#393,.T.);
#514=ORIENTED_EDGE('',*,*,#368,.T.);
#515=ORIENTED_EDGE('',*,*,#394,.T.);
#516=ORIENTED_EDGE('',*,*,#342,.T.);
#517=ORIENTED_EDGE('',*,*,#395,.T.);
#518=ORIENTED_EDGE('',*,*,#324,.F.);
#519=ORIENTED_EDGE('',*,*,#330,.F.);
#520=ORIENTED_EDGE('',*,*,#393,.F.);
#521=ORIENTED_EDGE('',*,*,#365,.F.);
#522=ORIENTED_EDGE('',*,*,#396,.F.);
#523=ORIENTED_EDGE('',*,*,#380,.F.);
#524=ORIENTED_EDGE('',*,*,#389,.F.);
#525=ORIENTED_EDGE('',*,*,#336,.F.);
#526=ORIENTED_EDGE('',*,*,#328,.F.);
#527=ORIENTED_EDGE('',*,*,#386,.F.);
#528=ORIENTED_EDGE('',*,*,#369,.F.);
#529=ORIENTED_EDGE('',*,*,#395,.F.);
#530=ORIENTED_EDGE('',*,*,#361,.F.);
#531=ORIENTED_EDGE('',*,*,#358,.F.);
#532=ORIENTED_EDGE('',*,*,#326,.F.);
#533=ORIENTED_EDGE('',*,*,#333,.F.);
#534=ORIENTED_EDGE('',*,*,#340,.F.);
#535=ORIENTED_EDGE('',*,*,#373,.F.);
#536=ORIENTED_EDGE('',*,*,#384,.F.);
#537=ORIENTED_EDGE('',*,*,#397,.F.);
#538=ORIENTED_EDGE('',*,*,#338,.F.);
#539=ORIENTED_EDGE('',*,*,#391,.F.);
#540=ORIENTED_EDGE('',*,*,#376,.F.);
#541=ORIENTED_EDGE('',*,*,#387,.F.);
#542=ORIENTED_EDGE('',*,*,#392,.F.);
#543=ORIENTED_EDGE('',*,*,#343,.T.);
#544=ORIENTED_EDGE('',*,*,#394,.F.);
#545=ORIENTED_EDGE('',*,*,#367,.T.);
#546=ORIENTED_EDGE('',*,*,#398,.F.);
#547=ORIENTED_EDGE('',*,*,#399,.T.);
#548=ORIENTED_EDGE('',*,*,#354,.T.);
#549=ORIENTED_EDGE('',*,*,#399,.F.);
#550=ORIENTED_EDGE('',*,*,#398,.T.);
#551=ORIENTED_EDGE('',*,*,#400,.F.);
#552=ORIENTED_EDGE('',*,*,#401,.T.);
#553=ORIENTED_EDGE('',*,*,#355,.T.);
#554=ORIENTED_EDGE('',*,*,#401,.F.);
#555=ORIENTED_EDGE('',*,*,#400,.T.);
#556=ORIENTED_EDGE('',*,*,#397,.T.);
#557=ORIENTED_EDGE('',*,*,#383,.T.);
#558=ORIENTED_EDGE('',*,*,#402,.F.);
#559=ORIENTED_EDGE('',*,*,#362,.F.);
#560=ORIENTED_EDGE('',*,*,#396,.T.);
#561=ORIENTED_EDGE('',*,*,#364,.T.);
#562=ORIENTED_EDGE('',*,*,#403,.F.);
#563=ORIENTED_EDGE('',*,*,#381,.F.);
#564=ORIENTED_EDGE('',*,*,#382,.T.);
#565=ORIENTED_EDGE('',*,*,#403,.T.);
#566=ORIENTED_EDGE('',*,*,#363,.T.);
#567=ORIENTED_EDGE('',*,*,#402,.T.);
#568=CYLINDRICAL_SURFACE('',#641,0.2);
#569=CYLINDRICAL_SURFACE('',#644,0.2);
#570=CYLINDRICAL_SURFACE('',#646,0.2);
#571=CYLINDRICAL_SURFACE('',#648,0.2);
#572=CYLINDRICAL_SURFACE('',#674,0.4);
#573=CYLINDRICAL_SURFACE('',#677,0.4);
#574=STYLED_ITEM('',(#1033),#584);
#575=STYLED_ITEM('',(#1033),#585);
#576=STYLED_ITEM('',(#1033),#586);
#577=STYLED_ITEM('',(#1033),#587);
#578=STYLED_ITEM('',(#1033),#592);
#579=STYLED_ITEM('',(#1034),#611);
#580=STYLED_ITEM('',(#1034),#612);
#581=STYLED_ITEM('',(#1034),#613);
#582=STYLED_ITEM('',(#1034),#614);
#583=STYLED_ITEM('',(#1032),#13);
#584=ADVANCED_FACE('',(#48),#568,.F.);
#585=ADVANCED_FACE('',(#49),#569,.F.);
#586=ADVANCED_FACE('',(#50),#570,.F.);
#587=ADVANCED_FACE('',(#51),#571,.F.);
#588=ADVANCED_FACE('',(#52),#20,.F.);
#589=ADVANCED_FACE('',(#53),#21,.F.);
#590=ADVANCED_FACE('',(#54),#22,.F.);
#591=ADVANCED_FACE('',(#55),#23,.F.);
#592=ADVANCED_FACE('',(#56,#14,#15),#24,.F.);
#593=ADVANCED_FACE('',(#57),#25,.T.);
#594=ADVANCED_FACE('',(#58),#26,.F.);
#595=ADVANCED_FACE('',(#59),#27,.T.);
#596=ADVANCED_FACE('',(#60),#28,.T.);
#597=ADVANCED_FACE('',(#61),#29,.T.);
#598=ADVANCED_FACE('',(#62),#30,.F.);
#599=ADVANCED_FACE('',(#63),#31,.T.);
#600=ADVANCED_FACE('',(#64),#32,.T.);
#601=ADVANCED_FACE('',(#65),#33,.T.);
#602=ADVANCED_FACE('',(#66),#34,.F.);
#603=ADVANCED_FACE('',(#67),#35,.T.);
#604=ADVANCED_FACE('',(#68),#36,.T.);
#605=ADVANCED_FACE('',(#69),#37,.T.);
#606=ADVANCED_FACE('',(#70),#38,.F.);
#607=ADVANCED_FACE('',(#71),#39,.F.);
#608=ADVANCED_FACE('',(#72),#40,.F.);
#609=ADVANCED_FACE('',(#73),#41,.F.);
#610=ADVANCED_FACE('',(#74),#42,.F.);
#611=ADVANCED_FACE('',(#75),#572,.T.);
#612=ADVANCED_FACE('',(#76),#43,.F.);
#613=ADVANCED_FACE('',(#77),#573,.T.);
#614=ADVANCED_FACE('',(#78),#44,.F.);
#615=ADVANCED_FACE('',(#79),#45,.T.);
#616=ADVANCED_FACE('',(#80),#46,.T.);
#617=ADVANCED_FACE('',(#81),#47,.T.);
#618=CLOSED_SHELL('',(#584,#585,#586,#587,#588,#589,#590,#591,#592,#593,
#594,#595,#596,#597,#598,#599,#600,#601,#602,#603,#604,#605,#606,#607,#608,
#609,#610,#611,#612,#613,#614,#615,#616,#617));
#619=DERIVED_UNIT_ELEMENT(#622,1.);
#620=DERIVED_UNIT_ELEMENT(#1017,-3.);
#621=DIMENSIONAL_EXPONENTS(0.,1.,0.,0.,0.,0.,0.);
#622=(
CONVERSION_BASED_UNIT('gram',#624)
MASS_UNIT()
NAMED_UNIT(#621)
);
#623=(
MASS_UNIT()
NAMED_UNIT(*)
SI_UNIT(.KILO.,.GRAM.)
);
#624=MASS_MEASURE_WITH_UNIT(MASS_MEASURE(0.001),#623);
#625=DERIVED_UNIT((#619,#620));
#626=MEASURE_REPRESENTATION_ITEM('density measure',
POSITIVE_RATIO_MEASURE(1.),#625);
#627=PROPERTY_DEFINITION_REPRESENTATION(#632,#629);
#628=PROPERTY_DEFINITION_REPRESENTATION(#633,#630);
#629=REPRESENTATION('material name',(#631),#1014);
#630=REPRESENTATION('density',(#626),#1014);
#631=DESCRIPTIVE_REPRESENTATION_ITEM('\X2\04220438043F043E0432044B0435\X0\',
'\X2\04220438043F043E0432044B0435\X0\');
#632=PROPERTY_DEFINITION('material property','material name',#1024);
#633=PROPERTY_DEFINITION('material property','density of part',#1024);
#634=DATE_TIME_ROLE('creation_date');
#635=APPLIED_DATE_AND_TIME_ASSIGNMENT(#636,#634,(#1024));
#636=DATE_AND_TIME(#637,#638);
#637=CALENDAR_DATE(2024,20,1);
#638=LOCAL_TIME(16,54,12.,#639);
#639=COORDINATED_UNIVERSAL_TIME_OFFSET(0,0,.BEHIND.);
#640=AXIS2_PLACEMENT_3D('',#843,#683,#684);
#641=AXIS2_PLACEMENT_3D('',#844,#685,#686);
#642=AXIS2_PLACEMENT_3D('',#849,#688,#689);
#643=AXIS2_PLACEMENT_3D('',#852,#691,#692);
#644=AXIS2_PLACEMENT_3D('',#853,#693,#694);
#645=AXIS2_PLACEMENT_3D('',#866,#701,#702);
#646=AXIS2_PLACEMENT_3D('',#867,#703,#704);
#647=AXIS2_PLACEMENT_3D('',#872,#707,#708);
#648=AXIS2_PLACEMENT_3D('',#873,#709,#710);
#649=AXIS2_PLACEMENT_3D('',#884,#717,#718);
#650=AXIS2_PLACEMENT_3D('',#890,#722,#723);
#651=AXIS2_PLACEMENT_3D('',#896,#727,#728);
#652=AXIS2_PLACEMENT_3D('',#902,#732,#733);
#653=AXIS2_PLACEMENT_3D('',#908,#737,#738);
#654=AXIS2_PLACEMENT_3D('',#910,#739,#740);
#655=AXIS2_PLACEMENT_3D('',#912,#741,#742);
#656=AXIS2_PLACEMENT_3D('',#913,#743,#744);
#657=AXIS2_PLACEMENT_3D('',#919,#748,#749);
#658=AXIS2_PLACEMENT_3D('',#923,#752,#753);
#659=AXIS2_PLACEMENT_3D('',#943,#764,#765);
#660=AXIS2_PLACEMENT_3D('',#949,#769,#770);
#661=AXIS2_PLACEMENT_3D('',#971,#782,#783);
#662=AXIS2_PLACEMENT_3D('',#973,#785,#786);
#663=AXIS2_PLACEMENT_3D('',#975,#788,#789);
#664=AXIS2_PLACEMENT_3D('',#977,#791,#792);
#665=AXIS2_PLACEMENT_3D('',#980,#795,#796);
#666=AXIS2_PLACEMENT_3D('',#982,#798,#799);
#667=AXIS2_PLACEMENT_3D('',#984,#801,#802);
#668=AXIS2_PLACEMENT_3D('',#987,#805,#806);
#669=AXIS2_PLACEMENT_3D('',#990,#809,#810);
#670=AXIS2_PLACEMENT_3D('',#992,#812,#813);
#671=AXIS2_PLACEMENT_3D('',#993,#814,#815);
#672=AXIS2_PLACEMENT_3D('',#995,#817,#818);
#673=AXIS2_PLACEMENT_3D('',#996,#819,#820);
#674=AXIS2_PLACEMENT_3D('',#997,#821,#822);
#675=AXIS2_PLACEMENT_3D('',#999,#823,#824);
#676=AXIS2_PLACEMENT_3D('',#1001,#826,#827);
#677=AXIS2_PLACEMENT_3D('',#1002,#828,#829);
#678=AXIS2_PLACEMENT_3D('',#1004,#830,#831);
#679=AXIS2_PLACEMENT_3D('',#1006,#833,#834);
#680=AXIS2_PLACEMENT_3D('',#1007,#835,#836);
#681=AXIS2_PLACEMENT_3D('',#1009,#838,#839);
#682=AXIS2_PLACEMENT_3D('',#1011,#841,#842);
#683=DIRECTION('axis',(0.,0.,1.));
#684=DIRECTION('refdir',(1.,0.,0.));
#685=DIRECTION('center_axis',(1.02798428206365E-16,-1.,0.));
#686=DIRECTION('ref_axis',(-0.707106781186548,-7.26894656800392E-17,0.707106781186547));
#687=DIRECTION('',(1.02798428206365E-16,-1.,0.));
#688=DIRECTION('center_axis',(0.707106781186548,-0.707106781186548,0.));
#689=DIRECTION('ref_axis',(0.707106781186548,0.707106781186548,0.));
#690=DIRECTION('',(-1.02798428206365E-16,1.,0.));
#691=DIRECTION('center_axis',(-0.707106781186548,-0.707106781186548,-7.85046229341888E-15));
#692=DIRECTION('ref_axis',(0.707106781186548,-0.707106781186548,-7.85046229341887E-15));
#693=DIRECTION('center_axis',(1.,0.,0.));
#694=DIRECTION('ref_axis',(0.,-0.707106781186548,0.707106781186547));
#695=DIRECTION('',(-1.,0.,0.));
#696=DIRECTION('',(-1.,0.,0.));
#697=DIRECTION('',(-1.,0.,0.));
#698=DIRECTION('',(-1.,0.,0.));
#699=DIRECTION('',(-1.,0.,0.));
#700=DIRECTION('',(1.,0.,0.));
#701=DIRECTION('center_axis',(0.707106781186551,0.707106781186544,0.));
#702=DIRECTION('ref_axis',(-0.707106781186544,0.707106781186551,0.));
#703=DIRECTION('center_axis',(1.02798428206365E-16,1.,0.));
#704=DIRECTION('ref_axis',(0.70710678118654,-7.26894656800384E-17,0.707106781186555));
#705=DIRECTION('',(-1.02798428206365E-16,-1.,0.));
#706=DIRECTION('',(1.02798428206365E-16,1.,0.));
#707=DIRECTION('center_axis',(-0.707106781186548,0.707106781186548,0.));
#708=DIRECTION('ref_axis',(-0.707106781186548,-0.707106781186548,0.));
#709=DIRECTION('center_axis',(-1.,7.13969790757331E-17,0.));
#710=DIRECTION('ref_axis',(5.0485288060685E-17,0.707106781186548,0.707106781186547));
#711=DIRECTION('',(1.,-7.13969790757331E-17,0.));
#712=DIRECTION('',(1.,-7.13969790757331E-17,0.));
#713=DIRECTION('',(1.,-7.13969790757331E-17,0.));
#714=DIRECTION('',(1.,-7.13969790757331E-17,0.));
#715=DIRECTION('',(1.,-7.13969790757331E-17,0.));
#716=DIRECTION('',(-1.,7.13969790757331E-17,0.));
#717=DIRECTION('center_axis',(0.,-1.,0.));
#718=DIRECTION('ref_axis',(1.,0.,0.));
#719=DIRECTION('',(0.707106781186548,0.,0.707106781186547));
#720=DIRECTION('',(1.,0.,0.));
#721=DIRECTION('',(0.707106781186548,0.,-0.707106781186547));
#722=DIRECTION('center_axis',(0.,-1.,0.));
#723=DIRECTION('ref_axis',(1.,0.,0.));
#724=DIRECTION('',(0.707106781186548,0.,0.707106781186547));
#725=DIRECTION('',(1.,0.,0.));
#726=DIRECTION('',(0.707106781186547,0.,-0.707106781186548));
#727=DIRECTION('center_axis',(7.13969790757331E-17,1.,0.));
#728=DIRECTION('ref_axis',(-1.,7.13969790757331E-17,0.));
#729=DIRECTION('',(-0.707106781186548,5.04852880606849E-17,0.707106781186547));
#730=DIRECTION('',(-1.,7.13969790757331E-17,0.));
#731=DIRECTION('',(-0.707106781186547,5.04852880606849E-17,-0.707106781186548));
#732=DIRECTION('center_axis',(7.13969790757331E-17,1.,0.));
#733=DIRECTION('ref_axis',(-1.,7.13969790757331E-17,0.));
#734=DIRECTION('',(-0.707106781186547,5.04852880606849E-17,0.707106781186548));
#735=DIRECTION('',(-1.,7.13969790757331E-17,0.));
#736=DIRECTION('',(-0.707106781186548,5.04852880606849E-17,-0.707106781186547));
#737=DIRECTION('center_axis',(0.,0.,1.));
#738=DIRECTION('ref_axis',(1.,0.,0.));
#739=DIRECTION('center_axis',(0.,0.,-1.));
#740=DIRECTION('ref_axis',(1.,0.,0.));
#741=DIRECTION('center_axis',(0.,0.,-1.));
#742=DIRECTION('ref_axis',(1.,0.,0.));
#743=DIRECTION('center_axis',(0.707106781186547,0.,-0.707106781186548));
#744=DIRECTION('ref_axis',(-0.707106781186548,0.,-0.707106781186547));
#745=DIRECTION('',(-0.707106781186548,-9.96884100751604E-17,-0.707106781186547));
#746=DIRECTION('',(0.,1.,0.));
#747=DIRECTION('',(0.,-1.,0.));
#748=DIRECTION('center_axis',(0.,0.,1.));
#749=DIRECTION('ref_axis',(1.,0.,0.));
#750=DIRECTION('',(-1.,-1.40980701539702E-16,0.));
#751=DIRECTION('',(2.7755575610782E-15,-1.,0.));
#752=DIRECTION('center_axis',(1.40980701539702E-16,-1.,0.));
#753=DIRECTION('ref_axis',(1.,1.40980701539702E-16,0.));
#754=DIRECTION('',(1.,1.40980701539702E-16,0.));
#755=DIRECTION('',(0.,0.,1.));
#756=DIRECTION('',(1.,1.40980701539702E-16,0.));
#757=DIRECTION('',(0.,0.,1.));
#758=DIRECTION('',(1.,1.40980701539702E-16,0.));
#759=DIRECTION('',(-0.707106781186548,-9.96884100751604E-17,0.707106781186547));
#760=DIRECTION('',(-1.,-1.40980701539702E-16,0.));
#761=DIRECTION('',(-0.707106781186548,-9.96884100751604E-17,-0.707106781186547));
#762=DIRECTION('',(1.,1.40980701539702E-16,0.));
#763=DIRECTION('',(-0.707106781186547,-9.96884100751602E-17,0.707106781186548));
#764=DIRECTION('center_axis',(0.707106781186547,0.,-0.707106781186548));
#765=DIRECTION('ref_axis',(-0.707106781186548,0.,-0.707106781186547));
#766=DIRECTION('',(0.,1.,0.));
#767=DIRECTION('',(0.707106781186548,0.,0.707106781186547));
#768=DIRECTION('',(0.,-1.,0.));
#769=DIRECTION('center_axis',(0.,1.,0.));
#770=DIRECTION('ref_axis',(-1.,0.,0.));
#771=DIRECTION('',(1.,0.,0.));
#772=DIRECTION('',(0.707106781186547,0.,-0.707106781186548));
#773=DIRECTION('',(-1.,0.,0.));
#774=DIRECTION('',(0.707106781186547,0.,0.707106781186548));
#775=DIRECTION('',(1.,0.,0.));
#776=DIRECTION('',(0.707106781186548,0.,-0.707106781186547));
#777=DIRECTION('',(-1.,0.,0.));
#778=DIRECTION('',(0.,0.,1.));
#779=DIRECTION('',(-1.,0.,0.));
#780=DIRECTION('',(0.,0.,1.));
#781=DIRECTION('',(-1.,0.,0.));
#782=DIRECTION('center_axis',(0.,0.,1.));
#783=DIRECTION('ref_axis',(1.,0.,0.));
#784=DIRECTION('',(-2.7755575610782E-15,-1.,0.));
#785=DIRECTION('center_axis',(-0.707106781186548,-1.96261557301199E-15,
-0.707106781186547));
#786=DIRECTION('ref_axis',(-0.707106781186547,0.,0.707106781186548));
#787=DIRECTION('',(-2.7755575610782E-15,1.,0.));
#788=DIRECTION('center_axis',(-0.707106781186548,1.96261557301199E-15,-0.707106781186547));
#789=DIRECTION('ref_axis',(-0.707106781186547,0.,0.707106781186548));
#790=DIRECTION('',(2.7755575610782E-15,1.,0.));
#791=DIRECTION('center_axis',(-0.707106781186547,-7.85046229204805E-15,
-0.707106781186548));
#792=DIRECTION('ref_axis',(-0.707106781186548,0.,0.707106781186547));
#793=DIRECTION('',(1.11022302443129E-14,-1.,0.));
#794=DIRECTION('',(-1.11022302443129E-14,1.,0.));
#795=DIRECTION('center_axis',(0.,0.,1.));
#796=DIRECTION('ref_axis',(1.,0.,0.));
#797=DIRECTION('',(5.5511151221564E-15,1.,0.));
#798=DIRECTION('center_axis',(0.707106781186548,-3.92523114602399E-15,-0.707106781186547));
#799=DIRECTION('ref_axis',(-0.707106781186547,0.,-0.707106781186548));
#800=DIRECTION('',(-5.5511151221564E-15,-1.,0.));
#801=DIRECTION('center_axis',(-0.707106781186547,0.,-0.707106781186548));
#802=DIRECTION('ref_axis',(-0.707106781186548,0.,0.707106781186547));
#803=DIRECTION('',(0.,-1.,0.));
#804=DIRECTION('',(0.,1.,0.));
#805=DIRECTION('center_axis',(0.707106781186547,1.96261557301199E-15,-0.707106781186548));
#806=DIRECTION('ref_axis',(-0.707106781186548,0.,-0.707106781186547));
#807=DIRECTION('',(-2.7755575610782E-15,1.,0.));
#808=DIRECTION('',(2.7755575610782E-15,-1.,0.));
#809=DIRECTION('center_axis',(0.,0.,1.));
#810=DIRECTION('ref_axis',(1.,0.,0.));
#811=DIRECTION('',(2.01858731750028E-16,-1.,0.));
#812=DIRECTION('center_axis',(0.,0.,1.));
#813=DIRECTION('ref_axis',(1.,0.,0.));
#814=DIRECTION('center_axis',(0.,0.,1.));
#815=DIRECTION('ref_axis',(1.,0.,0.));
#816=DIRECTION('',(0.,1.,0.));
#817=DIRECTION('center_axis',(0.,0.,1.));
#818=DIRECTION('ref_axis',(1.,0.,0.));
#819=DIRECTION('center_axis',(0.,0.,1.));
#820=DIRECTION('ref_axis',(1.,0.,0.));
#821=DIRECTION('center_axis',(0.,0.,-1.));
#822=DIRECTION('ref_axis',(1.,0.,0.));
#823=DIRECTION('center_axis',(0.,0.,-1.));
#824=DIRECTION('ref_axis',(1.,0.,0.));
#825=DIRECTION('',(0.,0.,1.));
#826=DIRECTION('center_axis',(0.,0.,1.));
#827=DIRECTION('ref_axis',(1.,0.,0.));
#828=DIRECTION('center_axis',(0.,0.,-1.));
#829=DIRECTION('ref_axis',(1.,0.,0.));
#830=DIRECTION('center_axis',(0.,0.,-1.));
#831=DIRECTION('ref_axis',(1.,0.,0.));
#832=DIRECTION('',(0.,0.,1.));
#833=DIRECTION('center_axis',(0.,0.,1.));
#834=DIRECTION('ref_axis',(1.,0.,0.));
#835=DIRECTION('center_axis',(1.,0.,0.));
#836=DIRECTION('ref_axis',(0.,1.,0.));
#837=DIRECTION('',(0.,1.,0.));
#838=DIRECTION('center_axis',(-1.,-2.01858731750028E-16,0.));
#839=DIRECTION('ref_axis',(2.01858731750028E-16,-1.,0.));
#840=DIRECTION('',(2.01858731750028E-16,-1.,0.));
#841=DIRECTION('center_axis',(0.,0.,1.));
#842=DIRECTION('ref_axis',(1.,0.,0.));
#843=CARTESIAN_POINT('',(0.,0.,0.));
#844=CARTESIAN_POINT('Origin',(-15.3499999999651,5.39999999998254,0.3));
#845=CARTESIAN_POINT('',(-15.3499999999651,10.5999999999651,0.5));
#846=CARTESIAN_POINT('',(-15.3499999999651,-10.5999999999651,0.5));
#847=CARTESIAN_POINT('',(-15.3499999999651,5.39999999998254,0.5));
#848=CARTESIAN_POINT('',(-15.5499999999651,-10.7999999999651,0.3));
#849=CARTESIAN_POINT('Origin',(-15.3499999999651,-10.5999999999651,0.3));
#850=CARTESIAN_POINT('',(-15.5499999999651,10.7999999999651,0.3));
#851=CARTESIAN_POINT('',(-15.5499999999651,5.39999999998254,0.3));
#852=CARTESIAN_POINT('Origin',(-15.3499999999651,10.5999999999651,0.3));
#853=CARTESIAN_POINT('Origin',(-7.77499999998254,-10.5999999999651,0.3));
#854=CARTESIAN_POINT('',(15.5499999999651,-10.7999999999651,0.3));
#855=CARTESIAN_POINT('',(9.45,-10.7999999999651,0.3));
#856=CARTESIAN_POINT('',(-0.302758007109024,-10.7999999999651,0.3));
#857=CARTESIAN_POINT('',(3.15,-10.7999999999651,0.3));
#858=CARTESIAN_POINT('',(-7.77499999998254,-10.7999999999651,0.3));
#859=CARTESIAN_POINT('',(-3.15000000000001,-10.7999999999651,0.3));
#860=CARTESIAN_POINT('',(-7.77499999998254,-10.7999999999651,0.3));
#861=CARTESIAN_POINT('',(-9.45,-10.7999999999651,0.3));
#862=CARTESIAN_POINT('',(-7.77499999998254,-10.7999999999651,0.3));
#863=CARTESIAN_POINT('',(-15.0236918604385,-10.7999999999651,0.3));
#864=CARTESIAN_POINT('',(15.3499999999651,-10.5999999999651,0.5));
#865=CARTESIAN_POINT('',(-7.77499999998254,-10.5999999999651,0.5));
#866=CARTESIAN_POINT('Origin',(15.3499999999651,-10.5999999999651,0.3));
#867=CARTESIAN_POINT('Origin',(15.3499999999651,-5.39999999998254,0.3));
#868=CARTESIAN_POINT('',(15.5499999999651,10.7999999999651,0.3));
#869=CARTESIAN_POINT('',(15.5499999999651,-6.62224199286479,0.3));
#870=CARTESIAN_POINT('',(15.3499999999651,10.5999999999651,0.5));
#871=CARTESIAN_POINT('',(15.3499999999651,-5.39999999998254,0.5));
#872=CARTESIAN_POINT('Origin',(15.3499999999651,10.5999999999651,0.3));
#873=CARTESIAN_POINT('Origin',(7.77499999998254,10.5999999999651,0.3));
#874=CARTESIAN_POINT('',(-9.44999999999999,10.7999999999651,0.3));
#875=CARTESIAN_POINT('',(0.526308139526533,10.7999999999651,0.3));
#876=CARTESIAN_POINT('',(-3.15,10.7999999999651,0.3));
#877=CARTESIAN_POINT('',(7.77499999998254,10.7999999999651,0.3));
#878=CARTESIAN_POINT('',(3.15,10.7999999999651,0.3));
#879=CARTESIAN_POINT('',(7.77499999998254,10.7999999999651,0.3));
#880=CARTESIAN_POINT('',(9.45,10.7999999999651,0.3));
#881=CARTESIAN_POINT('',(7.77499999998254,10.7999999999651,0.3));
#882=CARTESIAN_POINT('',(15.2472419928561,10.7999999999651,0.3));
#883=CARTESIAN_POINT('',(7.77499999998254,10.5999999999651,0.5));
#884=CARTESIAN_POINT('Origin',(-15.5499999999651,-10.7999999999651,0.));
#885=CARTESIAN_POINT('',(-3.45000000000001,-10.7999999999651,0.));
#886=CARTESIAN_POINT('',(-6.39999999999128,-10.7999999999651,-2.94999999999127));
#887=CARTESIAN_POINT('',(-9.15,-10.7999999999651,0.));
#888=CARTESIAN_POINT('',(-7.77499999998254,-10.7999999999651,0.));
#889=CARTESIAN_POINT('',(-10.8249999999913,-10.7999999999651,1.67499999999127));
#890=CARTESIAN_POINT('Origin',(-15.5499999999651,-10.7999999999651,0.));
#891=CARTESIAN_POINT('',(9.15,-10.7999999999651,0.));
#892=CARTESIAN_POINT('',(3.05000000000872,-10.7999999999651,-6.09999999999127));
#893=CARTESIAN_POINT('',(3.44999999999999,-10.7999999999651,0.));
#894=CARTESIAN_POINT('',(-7.77499999998254,-10.7999999999651,0.));
#895=CARTESIAN_POINT('',(-1.37499999999127,-10.7999999999651,4.82499999999127));
#896=CARTESIAN_POINT('Origin',(15.5499999999651,10.7999999999651,0.));
#897=CARTESIAN_POINT('',(-9.14999999999999,10.7999999999651,0.));
#898=CARTESIAN_POINT('',(-3.0500000000087,10.7999999999651,-6.09999999999128));
#899=CARTESIAN_POINT('',(-3.45,10.7999999999651,0.));
#900=CARTESIAN_POINT('',(7.77499999998254,10.7999999999651,0.));
#901=CARTESIAN_POINT('',(1.37499999999126,10.7999999999651,4.82499999999126));
#902=CARTESIAN_POINT('Origin',(15.5499999999651,10.7999999999651,0.));
#903=CARTESIAN_POINT('',(3.45,10.7999999999651,0.));
#904=CARTESIAN_POINT('',(6.39999999999126,10.7999999999651,-2.94999999999126));
#905=CARTESIAN_POINT('',(9.15,10.7999999999651,0.));
#906=CARTESIAN_POINT('',(7.77499999998254,10.7999999999651,0.));
#907=CARTESIAN_POINT('',(10.8249999999913,10.7999999999651,1.67499999999127));
#908=CARTESIAN_POINT('Origin',(-4.44089209850063E-15,-2.22044604925031E-15,
0.5));
#909=CARTESIAN_POINT('',(-14.15,4.89858719658941E-17,0.5));
#910=CARTESIAN_POINT('Origin',(-13.75,0.,0.5));
#911=CARTESIAN_POINT('',(13.35,4.89858719658941E-17,0.5));
#912=CARTESIAN_POINT('Origin',(13.75,0.,0.5));
#913=CARTESIAN_POINT('Origin',(9.3,-5.39999999998254,0.15));
#914=CARTESIAN_POINT('',(9.45,-11.,0.3));
#915=CARTESIAN_POINT('',(9.15,-11.,0.));
#916=CARTESIAN_POINT('',(2.99999999999999,-11.,-6.15));
#917=CARTESIAN_POINT('',(9.15,-5.39999999998254,0.));
#918=CARTESIAN_POINT('',(9.45,-11.,0.3));
#919=CARTESIAN_POINT('Origin',(-4.35788476955669E-15,-4.56540309191653E-16,
0.));
#920=CARTESIAN_POINT('',(3.45,-11.,0.));
#921=CARTESIAN_POINT('',(15.75,-11.,0.));
#922=CARTESIAN_POINT('',(3.44999999999998,-5.5,0.));
#923=CARTESIAN_POINT('Origin',(-15.75,-11.,0.));
#924=CARTESIAN_POINT('',(15.75,-11.,0.3));
#925=CARTESIAN_POINT('',(-0.402758007126485,-11.,0.3));
#926=CARTESIAN_POINT('',(15.75,-11.,36.5));
#927=CARTESIAN_POINT('',(15.75,-11.,0.));
#928=CARTESIAN_POINT('',(-15.75,-11.,36.5));
#929=CARTESIAN_POINT('',(15.75,-11.,36.5));
#930=CARTESIAN_POINT('',(-15.75,-11.,0.3));
#931=CARTESIAN_POINT('',(-15.75,-11.,0.));
#932=CARTESIAN_POINT('',(-9.45,-11.,0.3));
#933=CARTESIAN_POINT('',(-15.123691860456,-11.,0.3));
#934=CARTESIAN_POINT('',(-9.15,-11.,0.));
#935=CARTESIAN_POINT('',(-10.875,-11.,1.725));
#936=CARTESIAN_POINT('',(-3.45000000000001,-11.,0.));
#937=CARTESIAN_POINT('',(15.75,-11.,0.));
#938=CARTESIAN_POINT('',(-3.15000000000001,-11.,0.3));
#939=CARTESIAN_POINT('',(-6.45000000000001,-11.,-3.));
#940=CARTESIAN_POINT('',(3.15,-11.,0.3));
#941=CARTESIAN_POINT('',(-7.87500000000001,-11.,0.3));
#942=CARTESIAN_POINT('',(-1.42499999999999,-11.,4.875));
#943=CARTESIAN_POINT('Origin',(9.3,5.5,0.15));
#944=CARTESIAN_POINT('',(9.15,11.,0.));
#945=CARTESIAN_POINT('',(9.15,5.5,0.));
#946=CARTESIAN_POINT('',(9.45,11.,0.3));
#947=CARTESIAN_POINT('',(10.875,11.,1.725));
#948=CARTESIAN_POINT('',(9.45,11.,0.3));
#949=CARTESIAN_POINT('Origin',(15.75,11.,0.));
#950=CARTESIAN_POINT('',(3.45,11.,0.));
#951=CARTESIAN_POINT('',(-15.75,11.,0.));
#952=CARTESIAN_POINT('',(3.15,11.,0.3));
#953=CARTESIAN_POINT('',(6.44999999999999,11.,-2.99999999999999));
#954=CARTESIAN_POINT('',(-3.15,11.,0.3));
#955=CARTESIAN_POINT('',(7.875,11.,0.3));
#956=CARTESIAN_POINT('',(-3.45,11.,0.));
#957=CARTESIAN_POINT('',(1.42499999999999,11.,4.87499999999999));
#958=CARTESIAN_POINT('',(-9.14999999999999,11.,0.));
#959=CARTESIAN_POINT('',(-15.75,11.,0.));
#960=CARTESIAN_POINT('',(-9.44999999999999,11.,0.3));
#961=CARTESIAN_POINT('',(-2.99999999999997,11.,-6.15000000000001));
#962=CARTESIAN_POINT('',(-15.75,11.,0.3));
#963=CARTESIAN_POINT('',(0.626308139543995,11.,0.3));
#964=CARTESIAN_POINT('',(-15.75,11.,36.5));
#965=CARTESIAN_POINT('',(-15.75,11.,0.));
#966=CARTESIAN_POINT('',(15.75,11.,36.5));
#967=CARTESIAN_POINT('',(-15.75,11.,36.5));
#968=CARTESIAN_POINT('',(15.75,11.,0.3));
#969=CARTESIAN_POINT('',(15.75,11.,0.));
#970=CARTESIAN_POINT('',(15.3472419928735,11.,0.3));
#971=CARTESIAN_POINT('Origin',(-4.35788476955669E-15,-4.56540309191653E-16,
0.));
#972=CARTESIAN_POINT('',(3.44999999999998,5.39999999998253,0.));
#973=CARTESIAN_POINT('Origin',(3.29999999999998,-5.5,0.15));
#974=CARTESIAN_POINT('',(3.15,-11.,0.3));
#975=CARTESIAN_POINT('Origin',(3.29999999999998,5.39999999998253,0.15));
#976=CARTESIAN_POINT('',(3.15,10.7999999999651,0.3));
#977=CARTESIAN_POINT('Origin',(-9.29999999999993,5.39999999998249,0.15));
#978=CARTESIAN_POINT('',(-9.14999999999993,5.39999999998249,0.));
#979=CARTESIAN_POINT('',(-9.44999999999999,11.,0.3));
#980=CARTESIAN_POINT('Origin',(-4.35788476955669E-15,-4.56540309191653E-16,
0.));
#981=CARTESIAN_POINT('',(-3.45000000000003,5.50000000000001,0.));
#982=CARTESIAN_POINT('Origin',(-3.30000000000003,5.50000000000001,0.15));
#983=CARTESIAN_POINT('',(-3.15,11.,0.3));
#984=CARTESIAN_POINT('Origin',(-9.3,-5.5,0.15));
#985=CARTESIAN_POINT('',(-9.15,-5.5,0.));
#986=CARTESIAN_POINT('',(-9.45,-10.7999999999651,0.3));
#987=CARTESIAN_POINT('Origin',(-3.30000000000002,-5.39999999998254,0.15));
#988=CARTESIAN_POINT('',(-3.45000000000002,-5.39999999998254,0.));
#989=CARTESIAN_POINT('',(-3.15000000000001,-10.7999999999651,0.3));
#990=CARTESIAN_POINT('Origin',(-14.497383720912,0.,0.3));
#991=CARTESIAN_POINT('',(-15.75,5.5,0.3));
#992=CARTESIAN_POINT('Origin',(-5.55111512312578E-15,-10.8999999999825,
0.3));
#993=CARTESIAN_POINT('Origin',(14.944483985747,-2.4444839857645,0.3));
#994=CARTESIAN_POINT('',(15.75,-6.72224199288225,0.3));
#995=CARTESIAN_POINT('Origin',(-1.11022302462516E-15,10.8999999999825,0.3));
#996=CARTESIAN_POINT('Origin',(-4.35788476955669E-15,-4.56540309191653E-16,
0.));
#997=CARTESIAN_POINT('Origin',(-13.75,0.,0.));
#998=CARTESIAN_POINT('',(-14.15,4.89858719658941E-17,-4.));
#999=CARTESIAN_POINT('Origin',(-13.75,0.,-4.));
#1000=CARTESIAN_POINT('',(-14.15,4.89858719658941E-17,0.));
#1001=CARTESIAN_POINT('Origin',(-13.75,0.,-4.));
#1002=CARTESIAN_POINT('Origin',(13.75,0.,0.));
#1003=CARTESIAN_POINT('',(13.35,4.89858719658941E-17,-4.));
#1004=CARTESIAN_POINT('Origin',(13.75,0.,-4.));
#1005=CARTESIAN_POINT('',(13.35,4.89858719658941E-17,0.));
#1006=CARTESIAN_POINT('Origin',(13.75,0.,-4.));
#1007=CARTESIAN_POINT('Origin',(15.75,-11.,0.));
#1008=CARTESIAN_POINT('',(15.75,11.,36.5));
#1009=CARTESIAN_POINT('Origin',(-15.75,11.,0.));
#1010=CARTESIAN_POINT('',(-15.75,-11.,36.5));
#1011=CARTESIAN_POINT('Origin',(-4.44089209850063E-15,0.,36.5));
#1012=UNCERTAINTY_MEASURE_WITH_UNIT(LENGTH_MEASURE(0.01),#1016,
'DISTANCE_ACCURACY_VALUE',
'Maximum model space distance between geometric entities at asserted c
onnectivities');
#1013=UNCERTAINTY_MEASURE_WITH_UNIT(LENGTH_MEASURE(0.01),#1016,
'DISTANCE_ACCURACY_VALUE',
'Maximum model space distance between geometric entities at asserted c
onnectivities');
#1014=(
GEOMETRIC_REPRESENTATION_CONTEXT(3)
GLOBAL_UNCERTAINTY_ASSIGNED_CONTEXT((#1012))
GLOBAL_UNIT_ASSIGNED_CONTEXT((#1016,#1018,#1019))
REPRESENTATION_CONTEXT('','3D')
);
#1015=(
GEOMETRIC_REPRESENTATION_CONTEXT(3)
GLOBAL_UNCERTAINTY_ASSIGNED_CONTEXT((#1013))
GLOBAL_UNIT_ASSIGNED_CONTEXT((#1016,#1018,#1019))
REPRESENTATION_CONTEXT('','3D')
);
#1016=(
LENGTH_UNIT()
NAMED_UNIT(*)
SI_UNIT(.MILLI.,.METRE.)
);
#1017=(
LENGTH_UNIT()
NAMED_UNIT(*)
SI_UNIT(.CENTI.,.METRE.)
);
#1018=(
NAMED_UNIT(*)
PLANE_ANGLE_UNIT()
SI_UNIT($,.RADIAN.)
);
#1019=(
NAMED_UNIT(*)
SI_UNIT($,.STERADIAN.)
SOLID_ANGLE_UNIT()
);
#1020=SHAPE_DEFINITION_REPRESENTATION(#1021,#1022);
#1021=PRODUCT_DEFINITION_SHAPE('',$,#1024);
#1022=SHAPE_REPRESENTATION('',(#640),#1014);
#1023=PRODUCT_DEFINITION_CONTEXT('part definition',#1028,'design');
#1024=PRODUCT_DEFINITION('B32924_22x36.5x31.5','B32924_22x36.5x31.5',#1025,
#1023);
#1025=PRODUCT_DEFINITION_FORMATION('',$,#1030);
#1026=PRODUCT_RELATED_PRODUCT_CATEGORY('B32924_22x36.5x31.5',
'B32924_22x36.5x31.5',(#1030));
#1027=APPLICATION_PROTOCOL_DEFINITION('international standard',
'automotive_design',2009,#1028);
#1028=APPLICATION_CONTEXT(
'Core Data for Automotive Mechanical Design Process');
#1029=PRODUCT_CONTEXT('part definition',#1028,'mechanical');
#1030=PRODUCT('B32924_22x36.5x31.5','B32924_22x36.5x31.5',$,(#1029));
#1031=PRESENTATION_STYLE_ASSIGNMENT((#1035));
#1032=PRESENTATION_STYLE_ASSIGNMENT((#1036));
#1033=PRESENTATION_STYLE_ASSIGNMENT((#1037));
#1034=PRESENTATION_STYLE_ASSIGNMENT((#1038));
#1035=SURFACE_STYLE_USAGE(.BOTH.,#1047);
#1036=SURFACE_STYLE_USAGE(.BOTH.,#1048);
#1037=SURFACE_STYLE_USAGE(.BOTH.,#1049);
#1038=SURFACE_STYLE_USAGE(.BOTH.,#1050);
#1039=SURFACE_STYLE_RENDERING_WITH_PROPERTIES($,#1063,(#1043));
#1040=SURFACE_STYLE_RENDERING_WITH_PROPERTIES($,#1064,(#1044));
#1041=SURFACE_STYLE_RENDERING_WITH_PROPERTIES($,#1065,(#1045));
#1042=SURFACE_STYLE_RENDERING_WITH_PROPERTIES($,#1066,(#1046));
#1043=SURFACE_STYLE_TRANSPARENT(0.);
#1044=SURFACE_STYLE_TRANSPARENT(1.);
#1045=SURFACE_STYLE_TRANSPARENT(1.);
#1046=SURFACE_STYLE_TRANSPARENT(1.);
#1047=SURFACE_SIDE_STYLE('',(#1051,#1039));
#1048=SURFACE_SIDE_STYLE('',(#1052,#1040));
#1049=SURFACE_SIDE_STYLE('',(#1053,#1041));
#1050=SURFACE_SIDE_STYLE('',(#1054,#1042));
#1051=SURFACE_STYLE_FILL_AREA(#1055);
#1052=SURFACE_STYLE_FILL_AREA(#1056);
#1053=SURFACE_STYLE_FILL_AREA(#1057);
#1054=SURFACE_STYLE_FILL_AREA(#1058);
#1055=FILL_AREA_STYLE('',(#1059));
#1056=FILL_AREA_STYLE('',(#1060));
#1057=FILL_AREA_STYLE('',(#1061));
#1058=FILL_AREA_STYLE('',(#1062));
#1059=FILL_AREA_STYLE_COLOUR('',#1063);
#1060=FILL_AREA_STYLE_COLOUR('',#1064);
#1061=FILL_AREA_STYLE_COLOUR('',#1065);
#1062=FILL_AREA_STYLE_COLOUR('',#1066);
#1063=COLOUR_RGB('',0.749019607843137,0.749019607843137,0.749019607843137);
#1064=COLOUR_RGB('',0.,0.6,0.8);
#1065=COLOUR_RGB('',0.,0.490196078431373,0.658823529411765);
#1066=COLOUR_RGB('',0.968627450980392,0.933333333333333,0.792156862745098);
ENDSEC;
END-ISO-10303-21;
