ISO-10303-21;
HEADER;
/* Generated by software containing ST-Developer
 * from STEP Tools, Inc. (www.steptools.com) 
 */

FILE_DESCRIPTION(
/* description */ (''),
/* implementation_level */ '2;1');

FILE_NAME(
/* name */ 'Bus_copper_GND_v1.stp',
/* time_stamp */ '2026-01-22T14:57:28+03:00',
/* author */ ('EV-TECH'),
/* organization */ (''),
/* preprocessor_version */ 'ST-DEVELOPER v20.1',
/* originating_system */ 'Autodesk Inventor 2026',
/* authorisation */ '');

FILE_SCHEMA (('AUTOMOTIVE_DESIGN { 1 0 10303 214 3 1 1 }'));
ENDSEC;

DATA;
#10=MECHANICAL_DESIGN_GEOMETRIC_PRESENTATION_REPRESENTATION('',(#13),#1043);
#11=SHAPE_REPRESENTATION_RELATIONSHIP('SRR','None',#1050,#12);
#12=ADVANCED_BREP_SHAPE_REPRESENTATION('',(#14),#1042);
#13=STYLED_ITEM('',(#1059),#14);
#14=MANIFOLD_SOLID_BREP('\X2\04220432043504400434043E0435\X0\ \X2\04420435043B043E\X0\1',
#614);
#15=FACE_BOUND('',#71,.T.);
#16=FACE_BOUND('',#99,.T.);
#17=PLANE('',#643);
#18=PLANE('',#653);
#19=PLANE('',#658);
#20=PLANE('',#661);
#21=PLANE('',#664);
#22=PLANE('',#667);
#23=PLANE('',#670);
#24=PLANE('',#673);
#25=PLANE('',#676);
#26=PLANE('',#679);
#27=PLANE('',#680);
#28=PLANE('',#681);
#29=PLANE('',#682);
#30=PLANE('',#683);
#31=PLANE('',#684);
#32=PLANE('',#685);
#33=PLANE('',#686);
#34=PLANE('',#687);
#35=PLANE('',#688);
#36=PLANE('',#689);
#37=FACE_OUTER_BOUND('',#68,.T.);
#38=FACE_OUTER_BOUND('',#69,.T.);
#39=FACE_OUTER_BOUND('',#70,.T.);
#40=FACE_OUTER_BOUND('',#72,.T.);
#41=FACE_OUTER_BOUND('',#73,.T.);
#42=FACE_OUTER_BOUND('',#74,.T.);
#43=FACE_OUTER_BOUND('',#75,.T.);
#44=FACE_OUTER_BOUND('',#76,.T.);
#45=FACE_OUTER_BOUND('',#77,.T.);
#46=FACE_OUTER_BOUND('',#78,.T.);
#47=FACE_OUTER_BOUND('',#79,.T.);
#48=FACE_OUTER_BOUND('',#80,.T.);
#49=FACE_OUTER_BOUND('',#81,.T.);
#50=FACE_OUTER_BOUND('',#82,.T.);
#51=FACE_OUTER_BOUND('',#83,.T.);
#52=FACE_OUTER_BOUND('',#84,.T.);
#53=FACE_OUTER_BOUND('',#85,.T.);
#54=FACE_OUTER_BOUND('',#86,.T.);
#55=FACE_OUTER_BOUND('',#87,.T.);
#56=FACE_OUTER_BOUND('',#88,.T.);
#57=FACE_OUTER_BOUND('',#89,.T.);
#58=FACE_OUTER_BOUND('',#90,.T.);
#59=FACE_OUTER_BOUND('',#91,.T.);
#60=FACE_OUTER_BOUND('',#92,.T.);
#61=FACE_OUTER_BOUND('',#93,.T.);
#62=FACE_OUTER_BOUND('',#94,.T.);
#63=FACE_OUTER_BOUND('',#95,.T.);
#64=FACE_OUTER_BOUND('',#96,.T.);
#65=FACE_OUTER_BOUND('',#97,.T.);
#66=FACE_OUTER_BOUND('',#98,.T.);
#67=FACE_OUTER_BOUND('',#100,.T.);
#68=EDGE_LOOP('',(#398,#399,#400,#401));
#69=EDGE_LOOP('',(#402,#403,#404,#405));
#70=EDGE_LOOP('',(#406,#407,#408,#409,#410,#411,#412,#413,#414,#415,#416,
#417,#418,#419,#420,#421,#422,#423,#424,#425,#426,#427,#428,#429,#430,#431,
#432,#433));
#71=EDGE_LOOP('',(#434));
#72=EDGE_LOOP('',(#435,#436,#437,#438));
#73=EDGE_LOOP('',(#439,#440,#441,#442));
#74=EDGE_LOOP('',(#443,#444,#445,#446));
#75=EDGE_LOOP('',(#447,#448,#449,#450));
#76=EDGE_LOOP('',(#451,#452,#453,#454));
#77=EDGE_LOOP('',(#455,#456,#457,#458));
#78=EDGE_LOOP('',(#459,#460,#461,#462));
#79=EDGE_LOOP('',(#463,#464,#465,#466));
#80=EDGE_LOOP('',(#467,#468,#469,#470));
#81=EDGE_LOOP('',(#471,#472,#473,#474));
#82=EDGE_LOOP('',(#475,#476,#477,#478));
#83=EDGE_LOOP('',(#479,#480,#481,#482));
#84=EDGE_LOOP('',(#483,#484,#485,#486));
#85=EDGE_LOOP('',(#487,#488,#489,#490));
#86=EDGE_LOOP('',(#491,#492,#493,#494));
#87=EDGE_LOOP('',(#495,#496,#497,#498));
#88=EDGE_LOOP('',(#499,#500,#501,#502));
#89=EDGE_LOOP('',(#503,#504,#505,#506));
#90=EDGE_LOOP('',(#507,#508,#509,#510));
#91=EDGE_LOOP('',(#511,#512,#513,#514));
#92=EDGE_LOOP('',(#515,#516,#517,#518));
#93=EDGE_LOOP('',(#519,#520,#521,#522));
#94=EDGE_LOOP('',(#523,#524,#525,#526));
#95=EDGE_LOOP('',(#527,#528,#529,#530));
#96=EDGE_LOOP('',(#531,#532,#533,#534));
#97=EDGE_LOOP('',(#535,#536,#537,#538));
#98=EDGE_LOOP('',(#539,#540,#541,#542,#543,#544,#545,#546,#547,#548,#549,
#550,#551,#552,#553,#554,#555,#556,#557,#558,#559,#560,#561,#562,#563,#564,
#565,#566));
#99=EDGE_LOOP('',(#567));
#100=EDGE_LOOP('',(#568,#569,#570,#571));
#101=LINE('',#868,#166);
#102=LINE('',#875,#167);
#103=LINE('',#878,#168);
#104=LINE('',#881,#169);
#105=LINE('',#885,#170);
#106=LINE('',#889,#171);
#107=LINE('',#891,#172);
#108=LINE('',#893,#173);
#109=LINE('',#897,#174);
#110=LINE('',#901,#175);
#111=LINE('',#903,#176);
#112=LINE('',#905,#177);
#113=LINE('',#909,#178);
#114=LINE('',#913,#179);
#115=LINE('',#915,#180);
#116=LINE('',#917,#181);
#117=LINE('',#921,#182);
#118=LINE('',#925,#183);
#119=LINE('',#927,#184);
#120=LINE('',#929,#185);
#121=LINE('',#932,#186);
#122=LINE('',#935,#187);
#123=LINE('',#936,#188);
#124=LINE('',#940,#189);
#125=LINE('',#943,#190);
#126=LINE('',#946,#191);
#127=LINE('',#949,#192);
#128=LINE('',#950,#193);
#129=LINE('',#953,#194);
#130=LINE('',#956,#195);
#131=LINE('',#959,#196);
#132=LINE('',#960,#197);
#133=LINE('',#963,#198);
#134=LINE('',#966,#199);
#135=LINE('',#969,#200);
#136=LINE('',#970,#201);
#137=LINE('',#973,#202);
#138=LINE('',#976,#203);
#139=LINE('',#979,#204);
#140=LINE('',#980,#205);
#141=LINE('',#983,#206);
#142=LINE('',#986,#207);
#143=LINE('',#989,#208);
#144=LINE('',#990,#209);
#145=LINE('',#995,#210);
#146=LINE('',#996,#211);
#147=LINE('',#999,#212);
#148=LINE('',#1000,#213);
#149=LINE('',#1005,#214);
#150=LINE('',#1006,#215);
#151=LINE('',#1009,#216);
#152=LINE('',#1010,#217);
#153=LINE('',#1015,#218);
#154=LINE('',#1016,#219);
#155=LINE('',#1019,#220);
#156=LINE('',#1020,#221);
#157=LINE('',#1022,#222);
#158=LINE('',#1024,#223);
#159=LINE('',#1026,#224);
#160=LINE('',#1028,#225);
#161=LINE('',#1030,#226);
#162=LINE('',#1032,#227);
#163=LINE('',#1034,#228);
#164=LINE('',#1036,#229);
#165=LINE('',#1038,#230);
#166=VECTOR('',#696,2.5);
#167=VECTOR('',#703,10.);
#168=VECTOR('',#706,10.);
#169=VECTOR('',#709,10.);
#170=VECTOR('',#712,10.);
#171=VECTOR('',#715,10.);
#172=VECTOR('',#716,10.);
#173=VECTOR('',#717,10.);
#174=VECTOR('',#720,10.);
#175=VECTOR('',#723,10.);
#176=VECTOR('',#724,10.);
#177=VECTOR('',#725,10.);
#178=VECTOR('',#728,10.);
#179=VECTOR('',#731,10.);
#180=VECTOR('',#732,10.);
#181=VECTOR('',#733,10.);
#182=VECTOR('',#736,10.);
#183=VECTOR('',#739,10.);
#184=VECTOR('',#740,10.);
#185=VECTOR('',#741,10.);
#186=VECTOR('',#744,10.);
#187=VECTOR('',#747,10.);
#188=VECTOR('',#748,10.);
#189=VECTOR('',#753,10.);
#190=VECTOR('',#756,10.);
#191=VECTOR('',#759,10.);
#192=VECTOR('',#762,10.);
#193=VECTOR('',#763,10.);
#194=VECTOR('',#766,10.);
#195=VECTOR('',#769,10.);
#196=VECTOR('',#772,10.);
#197=VECTOR('',#773,10.);
#198=VECTOR('',#776,10.);
#199=VECTOR('',#779,10.);
#200=VECTOR('',#782,10.);
#201=VECTOR('',#783,10.);
#202=VECTOR('',#786,10.);
#203=VECTOR('',#789,10.);
#204=VECTOR('',#792,10.);
#205=VECTOR('',#793,10.);
#206=VECTOR('',#796,10.);
#207=VECTOR('',#799,10.);
#208=VECTOR('',#802,10.);
#209=VECTOR('',#803,10.);
#210=VECTOR('',#808,10.);
#211=VECTOR('',#809,10.);
#212=VECTOR('',#812,10.);
#213=VECTOR('',#813,10.);
#214=VECTOR('',#818,10.);
#215=VECTOR('',#819,10.);
#216=VECTOR('',#822,10.);
#217=VECTOR('',#823,10.);
#218=VECTOR('',#828,10.);
#219=VECTOR('',#829,10.);
#220=VECTOR('',#832,10.);
#221=VECTOR('',#833,10.);
#222=VECTOR('',#836,10.);
#223=VECTOR('',#839,10.);
#224=VECTOR('',#842,10.);
#225=VECTOR('',#845,10.);
#226=VECTOR('',#848,10.);
#227=VECTOR('',#851,10.);
#228=VECTOR('',#854,10.);
#229=VECTOR('',#857,10.);
#230=VECTOR('',#860,10.);
#231=CIRCLE('',#638,2.5);
#232=CIRCLE('',#639,2.5);
#233=CIRCLE('',#641,2.);
#234=CIRCLE('',#642,2.);
#235=CIRCLE('',#644,2.);
#236=CIRCLE('',#645,2.);
#237=CIRCLE('',#646,2.);
#238=CIRCLE('',#647,1.);
#239=CIRCLE('',#648,2.);
#240=CIRCLE('',#649,2.);
#241=CIRCLE('',#650,2.);
#242=CIRCLE('',#651,2.);
#243=CIRCLE('',#652,2.);
#244=CIRCLE('',#655,2.);
#245=CIRCLE('',#657,2.);
#246=CIRCLE('',#660,2.);
#247=CIRCLE('',#663,2.);
#248=CIRCLE('',#666,2.);
#249=CIRCLE('',#669,2.);
#250=CIRCLE('',#672,2.);
#251=CIRCLE('',#675,2.);
#252=CIRCLE('',#678,1.);
#253=VERTEX_POINT('',#865);
#254=VERTEX_POINT('',#867);
#255=VERTEX_POINT('',#871);
#256=VERTEX_POINT('',#872);
#257=VERTEX_POINT('',#874);
#258=VERTEX_POINT('',#876);
#259=VERTEX_POINT('',#880);
#260=VERTEX_POINT('',#882);
#261=VERTEX_POINT('',#884);
#262=VERTEX_POINT('',#886);
#263=VERTEX_POINT('',#888);
#264=VERTEX_POINT('',#890);
#265=VERTEX_POINT('',#892);
#266=VERTEX_POINT('',#894);
#267=VERTEX_POINT('',#896);
#268=VERTEX_POINT('',#898);
#269=VERTEX_POINT('',#900);
#270=VERTEX_POINT('',#902);
#271=VERTEX_POINT('',#904);
#272=VERTEX_POINT('',#906);
#273=VERTEX_POINT('',#908);
#274=VERTEX_POINT('',#910);
#275=VERTEX_POINT('',#912);
#276=VERTEX_POINT('',#914);
#277=VERTEX_POINT('',#916);
#278=VERTEX_POINT('',#918);
#279=VERTEX_POINT('',#920);
#280=VERTEX_POINT('',#922);
#281=VERTEX_POINT('',#924);
#282=VERTEX_POINT('',#926);
#283=VERTEX_POINT('',#928);
#284=VERTEX_POINT('',#930);
#285=VERTEX_POINT('',#934);
#286=VERTEX_POINT('',#938);
#287=VERTEX_POINT('',#942);
#288=VERTEX_POINT('',#944);
#289=VERTEX_POINT('',#948);
#290=VERTEX_POINT('',#952);
#291=VERTEX_POINT('',#954);
#292=VERTEX_POINT('',#958);
#293=VERTEX_POINT('',#962);
#294=VERTEX_POINT('',#964);
#295=VERTEX_POINT('',#968);
#296=VERTEX_POINT('',#972);
#297=VERTEX_POINT('',#974);
#298=VERTEX_POINT('',#978);
#299=VERTEX_POINT('',#982);
#300=VERTEX_POINT('',#984);
#301=VERTEX_POINT('',#988);
#302=VERTEX_POINT('',#992);
#303=VERTEX_POINT('',#993);
#304=VERTEX_POINT('',#998);
#305=VERTEX_POINT('',#1002);
#306=VERTEX_POINT('',#1003);
#307=VERTEX_POINT('',#1008);
#308=VERTEX_POINT('',#1012);
#309=VERTEX_POINT('',#1013);
#310=VERTEX_POINT('',#1018);
#311=EDGE_CURVE('',#253,#253,#231,.T.);
#312=EDGE_CURVE('',#253,#254,#101,.T.);
#313=EDGE_CURVE('',#254,#254,#232,.T.);
#314=EDGE_CURVE('',#255,#256,#233,.T.);
#315=EDGE_CURVE('',#256,#257,#102,.T.);
#316=EDGE_CURVE('',#257,#258,#234,.T.);
#317=EDGE_CURVE('',#258,#255,#103,.T.);
#318=EDGE_CURVE('',#257,#259,#104,.T.);
#319=EDGE_CURVE('',#260,#259,#235,.T.);
#320=EDGE_CURVE('',#261,#260,#105,.T.);
#321=EDGE_CURVE('',#262,#261,#236,.T.);
#322=EDGE_CURVE('',#263,#262,#106,.T.);
#323=EDGE_CURVE('',#263,#264,#107,.T.);
#324=EDGE_CURVE('',#264,#265,#108,.T.);
#325=EDGE_CURVE('',#266,#265,#237,.T.);
#326=EDGE_CURVE('',#266,#267,#109,.T.);
#327=EDGE_CURVE('',#268,#267,#238,.T.);
#328=EDGE_CURVE('',#269,#268,#110,.T.);
#329=EDGE_CURVE('',#269,#270,#111,.T.);
#330=EDGE_CURVE('',#270,#271,#112,.T.);
#331=EDGE_CURVE('',#272,#271,#239,.T.);
#332=EDGE_CURVE('',#272,#273,#113,.T.);
#333=EDGE_CURVE('',#274,#273,#240,.T.);
#334=EDGE_CURVE('',#275,#274,#114,.T.);
#335=EDGE_CURVE('',#275,#276,#115,.T.);
#336=EDGE_CURVE('',#276,#277,#116,.T.);
#337=EDGE_CURVE('',#278,#277,#241,.T.);
#338=EDGE_CURVE('',#278,#279,#117,.T.);
#339=EDGE_CURVE('',#280,#279,#242,.T.);
#340=EDGE_CURVE('',#281,#280,#118,.T.);
#341=EDGE_CURVE('',#281,#282,#119,.T.);
#342=EDGE_CURVE('',#282,#283,#120,.T.);
#343=EDGE_CURVE('',#284,#283,#243,.T.);
#344=EDGE_CURVE('',#284,#258,#121,.T.);
#345=EDGE_CURVE('',#256,#285,#122,.T.);
#346=EDGE_CURVE('',#259,#285,#123,.T.);
#347=EDGE_CURVE('',#285,#286,#244,.T.);
#348=EDGE_CURVE('',#286,#260,#124,.T.);
#349=EDGE_CURVE('',#261,#287,#125,.T.);
#350=EDGE_CURVE('',#287,#288,#245,.T.);
#351=EDGE_CURVE('',#288,#262,#126,.T.);
#352=EDGE_CURVE('',#289,#288,#127,.T.);
#353=EDGE_CURVE('',#289,#263,#128,.T.);
#354=EDGE_CURVE('',#265,#290,#129,.T.);
#355=EDGE_CURVE('',#290,#291,#246,.T.);
#356=EDGE_CURVE('',#291,#266,#130,.T.);
#357=EDGE_CURVE('',#264,#292,#131,.T.);
#358=EDGE_CURVE('',#292,#290,#132,.T.);
#359=EDGE_CURVE('',#271,#293,#133,.T.);
#360=EDGE_CURVE('',#293,#294,#247,.T.);
#361=EDGE_CURVE('',#294,#272,#134,.T.);
#362=EDGE_CURVE('',#270,#295,#135,.T.);
#363=EDGE_CURVE('',#295,#293,#136,.T.);
#364=EDGE_CURVE('',#277,#296,#137,.T.);
#365=EDGE_CURVE('',#296,#297,#248,.T.);
#366=EDGE_CURVE('',#297,#278,#138,.T.);
#367=EDGE_CURVE('',#276,#298,#139,.T.);
#368=EDGE_CURVE('',#298,#296,#140,.T.);
#369=EDGE_CURVE('',#283,#299,#141,.T.);
#370=EDGE_CURVE('',#299,#300,#249,.T.);
#371=EDGE_CURVE('',#300,#284,#142,.T.);
#372=EDGE_CURVE('',#282,#301,#143,.T.);
#373=EDGE_CURVE('',#301,#299,#144,.T.);
#374=EDGE_CURVE('',#302,#303,#250,.T.);
#375=EDGE_CURVE('',#303,#280,#145,.T.);
#376=EDGE_CURVE('',#279,#302,#146,.T.);
#377=EDGE_CURVE('',#304,#303,#147,.T.);
#378=EDGE_CURVE('',#304,#281,#148,.T.);
#379=EDGE_CURVE('',#305,#306,#251,.T.);
#380=EDGE_CURVE('',#306,#274,#149,.T.);
#381=EDGE_CURVE('',#273,#305,#150,.T.);
#382=EDGE_CURVE('',#307,#306,#151,.T.);
#383=EDGE_CURVE('',#307,#275,#152,.T.);
#384=EDGE_CURVE('',#308,#309,#252,.T.);
#385=EDGE_CURVE('',#309,#268,#153,.T.);
#386=EDGE_CURVE('',#267,#308,#154,.T.);
#387=EDGE_CURVE('',#310,#309,#155,.T.);
#388=EDGE_CURVE('',#310,#269,#156,.T.);
#389=EDGE_CURVE('',#255,#300,#157,.T.);
#390=EDGE_CURVE('',#302,#297,#158,.T.);
#391=EDGE_CURVE('',#305,#294,#159,.T.);
#392=EDGE_CURVE('',#308,#291,#160,.T.);
#393=EDGE_CURVE('',#286,#287,#161,.T.);
#394=EDGE_CURVE('',#298,#307,#162,.T.);
#395=EDGE_CURVE('',#292,#289,#163,.T.);
#396=EDGE_CURVE('',#301,#304,#164,.T.);
#397=EDGE_CURVE('',#295,#310,#165,.T.);
#398=ORIENTED_EDGE('',*,*,#311,.F.);
#399=ORIENTED_EDGE('',*,*,#312,.T.);
#400=ORIENTED_EDGE('',*,*,#313,.F.);
#401=ORIENTED_EDGE('',*,*,#312,.F.);
#402=ORIENTED_EDGE('',*,*,#314,.T.);
#403=ORIENTED_EDGE('',*,*,#315,.T.);
#404=ORIENTED_EDGE('',*,*,#316,.T.);
#405=ORIENTED_EDGE('',*,*,#317,.T.);
#406=ORIENTED_EDGE('',*,*,#316,.F.);
#407=ORIENTED_EDGE('',*,*,#318,.T.);
#408=ORIENTED_EDGE('',*,*,#319,.F.);
#409=ORIENTED_EDGE('',*,*,#320,.F.);
#410=ORIENTED_EDGE('',*,*,#321,.F.);
#411=ORIENTED_EDGE('',*,*,#322,.F.);
#412=ORIENTED_EDGE('',*,*,#323,.T.);
#413=ORIENTED_EDGE('',*,*,#324,.T.);
#414=ORIENTED_EDGE('',*,*,#325,.F.);
#415=ORIENTED_EDGE('',*,*,#326,.T.);
#416=ORIENTED_EDGE('',*,*,#327,.F.);
#417=ORIENTED_EDGE('',*,*,#328,.F.);
#418=ORIENTED_EDGE('',*,*,#329,.T.);
#419=ORIENTED_EDGE('',*,*,#330,.T.);
#420=ORIENTED_EDGE('',*,*,#331,.F.);
#421=ORIENTED_EDGE('',*,*,#332,.T.);
#422=ORIENTED_EDGE('',*,*,#333,.F.);
#423=ORIENTED_EDGE('',*,*,#334,.F.);
#424=ORIENTED_EDGE('',*,*,#335,.T.);
#425=ORIENTED_EDGE('',*,*,#336,.T.);
#426=ORIENTED_EDGE('',*,*,#337,.F.);
#427=ORIENTED_EDGE('',*,*,#338,.T.);
#428=ORIENTED_EDGE('',*,*,#339,.F.);
#429=ORIENTED_EDGE('',*,*,#340,.F.);
#430=ORIENTED_EDGE('',*,*,#341,.T.);
#431=ORIENTED_EDGE('',*,*,#342,.T.);
#432=ORIENTED_EDGE('',*,*,#343,.F.);
#433=ORIENTED_EDGE('',*,*,#344,.T.);
#434=ORIENTED_EDGE('',*,*,#313,.T.);
#435=ORIENTED_EDGE('',*,*,#315,.F.);
#436=ORIENTED_EDGE('',*,*,#345,.T.);
#437=ORIENTED_EDGE('',*,*,#346,.F.);
#438=ORIENTED_EDGE('',*,*,#318,.F.);
#439=ORIENTED_EDGE('',*,*,#347,.T.);
#440=ORIENTED_EDGE('',*,*,#348,.T.);
#441=ORIENTED_EDGE('',*,*,#319,.T.);
#442=ORIENTED_EDGE('',*,*,#346,.T.);
#443=ORIENTED_EDGE('',*,*,#321,.T.);
#444=ORIENTED_EDGE('',*,*,#349,.T.);
#445=ORIENTED_EDGE('',*,*,#350,.T.);
#446=ORIENTED_EDGE('',*,*,#351,.T.);
#447=ORIENTED_EDGE('',*,*,#351,.F.);
#448=ORIENTED_EDGE('',*,*,#352,.F.);
#449=ORIENTED_EDGE('',*,*,#353,.T.);
#450=ORIENTED_EDGE('',*,*,#322,.T.);
#451=ORIENTED_EDGE('',*,*,#325,.T.);
#452=ORIENTED_EDGE('',*,*,#354,.T.);
#453=ORIENTED_EDGE('',*,*,#355,.T.);
#454=ORIENTED_EDGE('',*,*,#356,.T.);
#455=ORIENTED_EDGE('',*,*,#354,.F.);
#456=ORIENTED_EDGE('',*,*,#324,.F.);
#457=ORIENTED_EDGE('',*,*,#357,.T.);
#458=ORIENTED_EDGE('',*,*,#358,.T.);
#459=ORIENTED_EDGE('',*,*,#331,.T.);
#460=ORIENTED_EDGE('',*,*,#359,.T.);
#461=ORIENTED_EDGE('',*,*,#360,.T.);
#462=ORIENTED_EDGE('',*,*,#361,.T.);
#463=ORIENTED_EDGE('',*,*,#359,.F.);
#464=ORIENTED_EDGE('',*,*,#330,.F.);
#465=ORIENTED_EDGE('',*,*,#362,.T.);
#466=ORIENTED_EDGE('',*,*,#363,.T.);
#467=ORIENTED_EDGE('',*,*,#337,.T.);
#468=ORIENTED_EDGE('',*,*,#364,.T.);
#469=ORIENTED_EDGE('',*,*,#365,.T.);
#470=ORIENTED_EDGE('',*,*,#366,.T.);
#471=ORIENTED_EDGE('',*,*,#364,.F.);
#472=ORIENTED_EDGE('',*,*,#336,.F.);
#473=ORIENTED_EDGE('',*,*,#367,.T.);
#474=ORIENTED_EDGE('',*,*,#368,.T.);
#475=ORIENTED_EDGE('',*,*,#343,.T.);
#476=ORIENTED_EDGE('',*,*,#369,.T.);
#477=ORIENTED_EDGE('',*,*,#370,.T.);
#478=ORIENTED_EDGE('',*,*,#371,.T.);
#479=ORIENTED_EDGE('',*,*,#369,.F.);
#480=ORIENTED_EDGE('',*,*,#342,.F.);
#481=ORIENTED_EDGE('',*,*,#372,.T.);
#482=ORIENTED_EDGE('',*,*,#373,.T.);
#483=ORIENTED_EDGE('',*,*,#374,.T.);
#484=ORIENTED_EDGE('',*,*,#375,.T.);
#485=ORIENTED_EDGE('',*,*,#339,.T.);
#486=ORIENTED_EDGE('',*,*,#376,.T.);
#487=ORIENTED_EDGE('',*,*,#375,.F.);
#488=ORIENTED_EDGE('',*,*,#377,.F.);
#489=ORIENTED_EDGE('',*,*,#378,.T.);
#490=ORIENTED_EDGE('',*,*,#340,.T.);
#491=ORIENTED_EDGE('',*,*,#379,.T.);
#492=ORIENTED_EDGE('',*,*,#380,.T.);
#493=ORIENTED_EDGE('',*,*,#333,.T.);
#494=ORIENTED_EDGE('',*,*,#381,.T.);
#495=ORIENTED_EDGE('',*,*,#380,.F.);
#496=ORIENTED_EDGE('',*,*,#382,.F.);
#497=ORIENTED_EDGE('',*,*,#383,.T.);
#498=ORIENTED_EDGE('',*,*,#334,.T.);
#499=ORIENTED_EDGE('',*,*,#384,.T.);
#500=ORIENTED_EDGE('',*,*,#385,.T.);
#501=ORIENTED_EDGE('',*,*,#327,.T.);
#502=ORIENTED_EDGE('',*,*,#386,.T.);
#503=ORIENTED_EDGE('',*,*,#385,.F.);
#504=ORIENTED_EDGE('',*,*,#387,.F.);
#505=ORIENTED_EDGE('',*,*,#388,.T.);
#506=ORIENTED_EDGE('',*,*,#328,.T.);
#507=ORIENTED_EDGE('',*,*,#317,.F.);
#508=ORIENTED_EDGE('',*,*,#344,.F.);
#509=ORIENTED_EDGE('',*,*,#371,.F.);
#510=ORIENTED_EDGE('',*,*,#389,.F.);
#511=ORIENTED_EDGE('',*,*,#366,.F.);
#512=ORIENTED_EDGE('',*,*,#390,.F.);
#513=ORIENTED_EDGE('',*,*,#376,.F.);
#514=ORIENTED_EDGE('',*,*,#338,.F.);
#515=ORIENTED_EDGE('',*,*,#361,.F.);
#516=ORIENTED_EDGE('',*,*,#391,.F.);
#517=ORIENTED_EDGE('',*,*,#381,.F.);
#518=ORIENTED_EDGE('',*,*,#332,.F.);
#519=ORIENTED_EDGE('',*,*,#356,.F.);
#520=ORIENTED_EDGE('',*,*,#392,.F.);
#521=ORIENTED_EDGE('',*,*,#386,.F.);
#522=ORIENTED_EDGE('',*,*,#326,.F.);
#523=ORIENTED_EDGE('',*,*,#348,.F.);
#524=ORIENTED_EDGE('',*,*,#393,.T.);
#525=ORIENTED_EDGE('',*,*,#349,.F.);
#526=ORIENTED_EDGE('',*,*,#320,.T.);
#527=ORIENTED_EDGE('',*,*,#394,.F.);
#528=ORIENTED_EDGE('',*,*,#367,.F.);
#529=ORIENTED_EDGE('',*,*,#335,.F.);
#530=ORIENTED_EDGE('',*,*,#383,.F.);
#531=ORIENTED_EDGE('',*,*,#323,.F.);
#532=ORIENTED_EDGE('',*,*,#353,.F.);
#533=ORIENTED_EDGE('',*,*,#395,.F.);
#534=ORIENTED_EDGE('',*,*,#357,.F.);
#535=ORIENTED_EDGE('',*,*,#396,.F.);
#536=ORIENTED_EDGE('',*,*,#372,.F.);
#537=ORIENTED_EDGE('',*,*,#341,.F.);
#538=ORIENTED_EDGE('',*,*,#378,.F.);
#539=ORIENTED_EDGE('',*,*,#314,.F.);
#540=ORIENTED_EDGE('',*,*,#389,.T.);
#541=ORIENTED_EDGE('',*,*,#370,.F.);
#542=ORIENTED_EDGE('',*,*,#373,.F.);
#543=ORIENTED_EDGE('',*,*,#396,.T.);
#544=ORIENTED_EDGE('',*,*,#377,.T.);
#545=ORIENTED_EDGE('',*,*,#374,.F.);
#546=ORIENTED_EDGE('',*,*,#390,.T.);
#547=ORIENTED_EDGE('',*,*,#365,.F.);
#548=ORIENTED_EDGE('',*,*,#368,.F.);
#549=ORIENTED_EDGE('',*,*,#394,.T.);
#550=ORIENTED_EDGE('',*,*,#382,.T.);
#551=ORIENTED_EDGE('',*,*,#379,.F.);
#552=ORIENTED_EDGE('',*,*,#391,.T.);
#553=ORIENTED_EDGE('',*,*,#360,.F.);
#554=ORIENTED_EDGE('',*,*,#363,.F.);
#555=ORIENTED_EDGE('',*,*,#397,.T.);
#556=ORIENTED_EDGE('',*,*,#387,.T.);
#557=ORIENTED_EDGE('',*,*,#384,.F.);
#558=ORIENTED_EDGE('',*,*,#392,.T.);
#559=ORIENTED_EDGE('',*,*,#355,.F.);
#560=ORIENTED_EDGE('',*,*,#358,.F.);
#561=ORIENTED_EDGE('',*,*,#395,.T.);
#562=ORIENTED_EDGE('',*,*,#352,.T.);
#563=ORIENTED_EDGE('',*,*,#350,.F.);
#564=ORIENTED_EDGE('',*,*,#393,.F.);
#565=ORIENTED_EDGE('',*,*,#347,.F.);
#566=ORIENTED_EDGE('',*,*,#345,.F.);
#567=ORIENTED_EDGE('',*,*,#311,.T.);
#568=ORIENTED_EDGE('',*,*,#397,.F.);
#569=ORIENTED_EDGE('',*,*,#362,.F.);
#570=ORIENTED_EDGE('',*,*,#329,.F.);
#571=ORIENTED_EDGE('',*,*,#388,.F.);
#572=CYLINDRICAL_SURFACE('',#637,2.5);
#573=CYLINDRICAL_SURFACE('',#640,2.);
#574=CYLINDRICAL_SURFACE('',#654,2.);
#575=CYLINDRICAL_SURFACE('',#656,2.);
#576=CYLINDRICAL_SURFACE('',#659,2.);
#577=CYLINDRICAL_SURFACE('',#662,2.);
#578=CYLINDRICAL_SURFACE('',#665,2.);
#579=CYLINDRICAL_SURFACE('',#668,2.);
#580=CYLINDRICAL_SURFACE('',#671,2.);
#581=CYLINDRICAL_SURFACE('',#674,2.);
#582=CYLINDRICAL_SURFACE('',#677,1.);
#583=ADVANCED_FACE('',(#37),#572,.F.);
#584=ADVANCED_FACE('',(#38),#573,.T.);
#585=ADVANCED_FACE('',(#39,#15),#17,.T.);
#586=ADVANCED_FACE('',(#40),#18,.T.);
#587=ADVANCED_FACE('',(#41),#574,.T.);
#588=ADVANCED_FACE('',(#42),#575,.T.);
#589=ADVANCED_FACE('',(#43),#19,.T.);
#590=ADVANCED_FACE('',(#44),#576,.F.);
#591=ADVANCED_FACE('',(#45),#20,.T.);
#592=ADVANCED_FACE('',(#46),#577,.F.);
#593=ADVANCED_FACE('',(#47),#21,.T.);
#594=ADVANCED_FACE('',(#48),#578,.F.);
#595=ADVANCED_FACE('',(#49),#22,.T.);
#596=ADVANCED_FACE('',(#50),#579,.F.);
#597=ADVANCED_FACE('',(#51),#23,.T.);
#598=ADVANCED_FACE('',(#52),#580,.F.);
#599=ADVANCED_FACE('',(#53),#24,.T.);
#600=ADVANCED_FACE('',(#54),#581,.F.);
#601=ADVANCED_FACE('',(#55),#25,.T.);
#602=ADVANCED_FACE('',(#56),#582,.F.);
#603=ADVANCED_FACE('',(#57),#26,.T.);
#604=ADVANCED_FACE('',(#58),#27,.F.);
#605=ADVANCED_FACE('',(#59),#28,.F.);
#606=ADVANCED_FACE('',(#60),#29,.F.);
#607=ADVANCED_FACE('',(#61),#30,.F.);
#608=ADVANCED_FACE('',(#62),#31,.T.);
#609=ADVANCED_FACE('',(#63),#32,.F.);
#610=ADVANCED_FACE('',(#64),#33,.F.);
#611=ADVANCED_FACE('',(#65),#34,.F.);
#612=ADVANCED_FACE('',(#66,#16),#35,.T.);
#613=ADVANCED_FACE('',(#67),#36,.F.);
#614=CLOSED_SHELL('',(#583,#584,#585,#586,#587,#588,#589,#590,#591,#592,
#593,#594,#595,#596,#597,#598,#599,#600,#601,#602,#603,#604,#605,#606,#607,
#608,#609,#610,#611,#612,#613));
#615=DERIVED_UNIT_ELEMENT(#618,1.);
#616=DERIVED_UNIT_ELEMENT(#1045,-3.);
#617=DIMENSIONAL_EXPONENTS(0.,1.,0.,0.,0.,0.,0.);
#618=(
CONVERSION_BASED_UNIT('gram',#620)
MASS_UNIT()
NAMED_UNIT(#617)
);
#619=(
MASS_UNIT()
NAMED_UNIT(*)
SI_UNIT(.KILO.,.GRAM.)
);
#620=MASS_MEASURE_WITH_UNIT(MASS_MEASURE(0.001),#619);
#621=DERIVED_UNIT((#615,#616));
#622=MEASURE_REPRESENTATION_ITEM('density measure',
POSITIVE_RATIO_MEASURE(8.94),#621);
#623=PROPERTY_DEFINITION_REPRESENTATION(#628,#625);
#624=PROPERTY_DEFINITION_REPRESENTATION(#629,#626);
#625=REPRESENTATION('material name',(#627),#1042);
#626=REPRESENTATION('density',(#622),#1042);
#627=DESCRIPTIVE_REPRESENTATION_ITEM('\X2\041C04350434044C\X0\',
'\X2\041C04350434044C\X0\');
#628=PROPERTY_DEFINITION('material property','material name',#1052);
#629=PROPERTY_DEFINITION('material property','density of part',#1052);
#630=DATE_TIME_ROLE('creation_date');
#631=APPLIED_DATE_AND_TIME_ASSIGNMENT(#632,#630,(#1052));
#632=DATE_AND_TIME(#633,#634);
#633=CALENDAR_DATE(2025,9,12);
#634=LOCAL_TIME(0,0,0.,#635);
#635=COORDINATED_UNIVERSAL_TIME_OFFSET(0,0,.BEHIND.);
#636=AXIS2_PLACEMENT_3D('',#863,#690,#691);
#637=AXIS2_PLACEMENT_3D('',#864,#692,#693);
#638=AXIS2_PLACEMENT_3D('',#866,#694,#695);
#639=AXIS2_PLACEMENT_3D('',#869,#697,#698);
#640=AXIS2_PLACEMENT_3D('',#870,#699,#700);
#641=AXIS2_PLACEMENT_3D('',#873,#701,#702);
#642=AXIS2_PLACEMENT_3D('',#877,#704,#705);
#643=AXIS2_PLACEMENT_3D('',#879,#707,#708);
#644=AXIS2_PLACEMENT_3D('',#883,#710,#711);
#645=AXIS2_PLACEMENT_3D('',#887,#713,#714);
#646=AXIS2_PLACEMENT_3D('',#895,#718,#719);
#647=AXIS2_PLACEMENT_3D('',#899,#721,#722);
#648=AXIS2_PLACEMENT_3D('',#907,#726,#727);
#649=AXIS2_PLACEMENT_3D('',#911,#729,#730);
#650=AXIS2_PLACEMENT_3D('',#919,#734,#735);
#651=AXIS2_PLACEMENT_3D('',#923,#737,#738);
#652=AXIS2_PLACEMENT_3D('',#931,#742,#743);
#653=AXIS2_PLACEMENT_3D('',#933,#745,#746);
#654=AXIS2_PLACEMENT_3D('',#937,#749,#750);
#655=AXIS2_PLACEMENT_3D('',#939,#751,#752);
#656=AXIS2_PLACEMENT_3D('',#941,#754,#755);
#657=AXIS2_PLACEMENT_3D('',#945,#757,#758);
#658=AXIS2_PLACEMENT_3D('',#947,#760,#761);
#659=AXIS2_PLACEMENT_3D('',#951,#764,#765);
#660=AXIS2_PLACEMENT_3D('',#955,#767,#768);
#661=AXIS2_PLACEMENT_3D('',#957,#770,#771);
#662=AXIS2_PLACEMENT_3D('',#961,#774,#775);
#663=AXIS2_PLACEMENT_3D('',#965,#777,#778);
#664=AXIS2_PLACEMENT_3D('',#967,#780,#781);
#665=AXIS2_PLACEMENT_3D('',#971,#784,#785);
#666=AXIS2_PLACEMENT_3D('',#975,#787,#788);
#667=AXIS2_PLACEMENT_3D('',#977,#790,#791);
#668=AXIS2_PLACEMENT_3D('',#981,#794,#795);
#669=AXIS2_PLACEMENT_3D('',#985,#797,#798);
#670=AXIS2_PLACEMENT_3D('',#987,#800,#801);
#671=AXIS2_PLACEMENT_3D('',#991,#804,#805);
#672=AXIS2_PLACEMENT_3D('',#994,#806,#807);
#673=AXIS2_PLACEMENT_3D('',#997,#810,#811);
#674=AXIS2_PLACEMENT_3D('',#1001,#814,#815);
#675=AXIS2_PLACEMENT_3D('',#1004,#816,#817);
#676=AXIS2_PLACEMENT_3D('',#1007,#820,#821);
#677=AXIS2_PLACEMENT_3D('',#1011,#824,#825);
#678=AXIS2_PLACEMENT_3D('',#1014,#826,#827);
#679=AXIS2_PLACEMENT_3D('',#1017,#830,#831);
#680=AXIS2_PLACEMENT_3D('',#1021,#834,#835);
#681=AXIS2_PLACEMENT_3D('',#1023,#837,#838);
#682=AXIS2_PLACEMENT_3D('',#1025,#840,#841);
#683=AXIS2_PLACEMENT_3D('',#1027,#843,#844);
#684=AXIS2_PLACEMENT_3D('',#1029,#846,#847);
#685=AXIS2_PLACEMENT_3D('',#1031,#849,#850);
#686=AXIS2_PLACEMENT_3D('',#1033,#852,#853);
#687=AXIS2_PLACEMENT_3D('',#1035,#855,#856);
#688=AXIS2_PLACEMENT_3D('',#1037,#858,#859);
#689=AXIS2_PLACEMENT_3D('',#1039,#861,#862);
#690=DIRECTION('axis',(0.,0.,1.));
#691=DIRECTION('refdir',(1.,0.,0.));
#692=DIRECTION('center_axis',(0.,0.,-1.));
#693=DIRECTION('ref_axis',(1.,0.,0.));
#694=DIRECTION('center_axis',(0.,0.,-1.));
#695=DIRECTION('ref_axis',(1.,0.,0.));
#696=DIRECTION('',(0.,0.,-1.));
#697=DIRECTION('center_axis',(-1.85037170770859E-16,0.,1.));
#698=DIRECTION('ref_axis',(1.,0.,0.));
#699=DIRECTION('center_axis',(0.,0.,1.));
#700=DIRECTION('ref_axis',(-0.707106781186546,-0.707106781186549,0.));
#701=DIRECTION('center_axis',(0.,0.,-1.));
#702=DIRECTION('ref_axis',(-0.707106781186546,-0.707106781186549,0.));
#703=DIRECTION('',(0.,0.,-1.));
#704=DIRECTION('center_axis',(-1.85037170770859E-16,0.,1.));
#705=DIRECTION('ref_axis',(-0.707106781186546,-0.707106781186549,0.));
#706=DIRECTION('',(0.,0.,1.));
#707=DIRECTION('center_axis',(1.85037170770859E-16,0.,-1.));
#708=DIRECTION('ref_axis',(-1.,0.,-1.85037170770859E-16));
#709=DIRECTION('',(0.,1.,0.));
#710=DIRECTION('center_axis',(-1.85037170770859E-16,0.,1.));
#711=DIRECTION('ref_axis',(-0.707106781186547,0.707106781186548,0.));
#712=DIRECTION('',(-1.,0.,1.0547118733939E-16));
#713=DIRECTION('center_axis',(-1.85037170770859E-16,0.,1.));
#714=DIRECTION('ref_axis',(0.707106781186548,0.707106781186547,-1.96261557335472E-16));
#715=DIRECTION('',(0.,1.,0.));
#716=DIRECTION('',(-1.,0.,0.));
#717=DIRECTION('',(0.,1.,0.));
#718=DIRECTION('center_axis',(1.85037170770859E-16,0.,-1.));
#719=DIRECTION('ref_axis',(0.707106781186547,0.707106781186548,-1.96261557335472E-16));
#720=DIRECTION('',(-1.,0.,1.0547118733939E-16));
#721=DIRECTION('center_axis',(1.85037170770859E-16,0.,-1.));
#722=DIRECTION('ref_axis',(-0.707106781186548,0.707106781186547,0.));
#723=DIRECTION('',(0.,1.,0.));
#724=DIRECTION('',(-1.,0.,-1.85037170770859E-16));
#725=DIRECTION('',(0.,1.,0.));
#726=DIRECTION('center_axis',(1.85037170770859E-16,0.,-1.));
#727=DIRECTION('ref_axis',(0.707106781186548,0.707106781186547,0.));
#728=DIRECTION('',(-1.,0.,1.0547118733939E-16));
#729=DIRECTION('center_axis',(1.85037170770859E-16,0.,-1.));
#730=DIRECTION('ref_axis',(-0.707106781186548,0.707106781186547,0.));
#731=DIRECTION('',(0.,1.,0.));
#732=DIRECTION('',(-1.,0.,0.));
#733=DIRECTION('',(0.,1.,0.));
#734=DIRECTION('center_axis',(1.85037170770859E-16,0.,-1.));
#735=DIRECTION('ref_axis',(0.707106781186548,0.707106781186547,0.));
#736=DIRECTION('',(-1.,0.,1.0547118733939E-16));
#737=DIRECTION('center_axis',(1.85037170770859E-16,0.,-1.));
#738=DIRECTION('ref_axis',(-0.707106781186546,0.707106781186549,0.));
#739=DIRECTION('',(0.,1.,0.));
#740=DIRECTION('',(-1.,0.,0.));
#741=DIRECTION('',(0.,1.,0.));
#742=DIRECTION('center_axis',(1.85037170770859E-16,0.,-1.));
#743=DIRECTION('ref_axis',(0.707106781186549,0.707106781186546,0.));
#744=DIRECTION('',(-1.,0.,1.0547118733939E-16));
#745=DIRECTION('center_axis',(-1.,0.,0.));
#746=DIRECTION('ref_axis',(0.,0.,1.));
#747=DIRECTION('',(0.,1.,0.));
#748=DIRECTION('',(0.,0.,1.));
#749=DIRECTION('center_axis',(0.,0.,1.));
#750=DIRECTION('ref_axis',(-0.707106781186547,0.707106781186548,0.));
#751=DIRECTION('center_axis',(0.,0.,-1.));
#752=DIRECTION('ref_axis',(-0.707106781186547,0.707106781186548,0.));
#753=DIRECTION('',(0.,0.,-1.));
#754=DIRECTION('center_axis',(-1.85037170770859E-16,0.,-1.));
#755=DIRECTION('ref_axis',(0.707106781186548,0.707106781186547,-1.96261557335472E-16));
#756=DIRECTION('',(1.85037170770859E-16,0.,1.));
#757=DIRECTION('center_axis',(0.,0.,-1.));
#758=DIRECTION('ref_axis',(0.707106781186548,0.707106781186547,-1.96261557335472E-16));
#759=DIRECTION('',(-1.85037170770859E-16,0.,-1.));
#760=DIRECTION('center_axis',(1.,0.,-1.85037170770859E-16));
#761=DIRECTION('ref_axis',(-1.85037170770859E-16,0.,-1.));
#762=DIRECTION('',(0.,1.,0.));
#763=DIRECTION('',(-1.85037170770859E-16,0.,-1.));
#764=DIRECTION('center_axis',(1.85037170770859E-16,0.,1.));
#765=DIRECTION('ref_axis',(0.707106781186547,0.707106781186548,-1.96261557335472E-16));
#766=DIRECTION('',(1.85037170770859E-16,0.,1.));
#767=DIRECTION('center_axis',(0.,0.,1.));
#768=DIRECTION('ref_axis',(0.707106781186547,0.707106781186548,-1.96261557335472E-16));
#769=DIRECTION('',(-1.85037170770859E-16,0.,-1.));
#770=DIRECTION('center_axis',(-1.,0.,1.85037170770859E-16));
#771=DIRECTION('ref_axis',(1.85037170770859E-16,0.,1.));
#772=DIRECTION('',(1.85037170770859E-16,0.,1.));
#773=DIRECTION('',(0.,1.,0.));
#774=DIRECTION('center_axis',(0.,0.,1.));
#775=DIRECTION('ref_axis',(0.707106781186548,0.707106781186547,0.));
#776=DIRECTION('',(0.,0.,1.));
#777=DIRECTION('center_axis',(0.,0.,1.));
#778=DIRECTION('ref_axis',(0.707106781186548,0.707106781186547,0.));
#779=DIRECTION('',(0.,0.,-1.));
#780=DIRECTION('center_axis',(-1.,0.,0.));
#781=DIRECTION('ref_axis',(0.,0.,1.));
#782=DIRECTION('',(0.,0.,1.));
#783=DIRECTION('',(0.,1.,0.));
#784=DIRECTION('center_axis',(0.,0.,1.));
#785=DIRECTION('ref_axis',(0.707106781186548,0.707106781186547,0.));
#786=DIRECTION('',(0.,0.,1.));
#787=DIRECTION('center_axis',(0.,0.,1.));
#788=DIRECTION('ref_axis',(0.707106781186548,0.707106781186547,0.));
#789=DIRECTION('',(0.,0.,-1.));
#790=DIRECTION('center_axis',(-1.,0.,0.));
#791=DIRECTION('ref_axis',(0.,0.,1.));
#792=DIRECTION('',(0.,0.,1.));
#793=DIRECTION('',(0.,1.,0.));
#794=DIRECTION('center_axis',(0.,0.,1.));
#795=DIRECTION('ref_axis',(0.707106781186549,0.707106781186546,0.));
#796=DIRECTION('',(0.,0.,1.));
#797=DIRECTION('center_axis',(0.,0.,1.));
#798=DIRECTION('ref_axis',(0.707106781186549,0.707106781186546,0.));
#799=DIRECTION('',(0.,0.,-1.));
#800=DIRECTION('center_axis',(-1.,0.,0.));
#801=DIRECTION('ref_axis',(0.,0.,1.));
#802=DIRECTION('',(0.,0.,1.));
#803=DIRECTION('',(0.,1.,0.));
#804=DIRECTION('center_axis',(0.,0.,-1.));
#805=DIRECTION('ref_axis',(-0.707106781186546,0.707106781186549,0.));
#806=DIRECTION('center_axis',(0.,0.,1.));
#807=DIRECTION('ref_axis',(-0.707106781186546,0.707106781186549,0.));
#808=DIRECTION('',(0.,0.,-1.));
#809=DIRECTION('',(0.,0.,1.));
#810=DIRECTION('center_axis',(1.,0.,0.));
#811=DIRECTION('ref_axis',(0.,0.,-1.));
#812=DIRECTION('',(0.,1.,0.));
#813=DIRECTION('',(0.,0.,-1.));
#814=DIRECTION('center_axis',(0.,0.,-1.));
#815=DIRECTION('ref_axis',(-0.707106781186548,0.707106781186547,0.));
#816=DIRECTION('center_axis',(0.,0.,1.));
#817=DIRECTION('ref_axis',(-0.707106781186548,0.707106781186547,0.));
#818=DIRECTION('',(0.,0.,-1.));
#819=DIRECTION('',(0.,0.,1.));
#820=DIRECTION('center_axis',(1.,0.,0.));
#821=DIRECTION('ref_axis',(0.,0.,-1.));
#822=DIRECTION('',(0.,1.,0.));
#823=DIRECTION('',(0.,0.,-1.));
#824=DIRECTION('center_axis',(0.,0.,-1.));
#825=DIRECTION('ref_axis',(-0.707106781186548,0.707106781186547,0.));
#826=DIRECTION('center_axis',(0.,0.,1.));
#827=DIRECTION('ref_axis',(-0.707106781186548,0.707106781186547,0.));
#828=DIRECTION('',(0.,0.,-1.));
#829=DIRECTION('',(0.,0.,1.));
#830=DIRECTION('center_axis',(1.,0.,0.));
#831=DIRECTION('ref_axis',(0.,0.,-1.));
#832=DIRECTION('',(0.,1.,0.));
#833=DIRECTION('',(0.,0.,-1.));
#834=DIRECTION('center_axis',(0.,1.,0.));
#835=DIRECTION('ref_axis',(0.,0.,1.));
#836=DIRECTION('',(1.,0.,1.38777878078145E-18));
#837=DIRECTION('center_axis',(0.,1.,0.));
#838=DIRECTION('ref_axis',(0.,0.,1.));
#839=DIRECTION('',(1.,0.,1.38777878078145E-18));
#840=DIRECTION('center_axis',(0.,1.,0.));
#841=DIRECTION('ref_axis',(0.,0.,1.));
#842=DIRECTION('',(1.,0.,1.38777878078145E-18));
#843=DIRECTION('center_axis',(0.,1.,0.));
#844=DIRECTION('ref_axis',(0.,0.,1.));
#845=DIRECTION('',(1.,0.,1.38777878078145E-18));
#846=DIRECTION('center_axis',(0.,1.,0.));
#847=DIRECTION('ref_axis',(0.,0.,1.));
#848=DIRECTION('',(1.,0.,1.38777878078145E-18));
#849=DIRECTION('center_axis',(0.,1.,0.));
#850=DIRECTION('ref_axis',(0.,0.,1.));
#851=DIRECTION('',(1.,0.,0.));
#852=DIRECTION('center_axis',(0.,1.,0.));
#853=DIRECTION('ref_axis',(0.,0.,1.));
#854=DIRECTION('',(1.,0.,0.));
#855=DIRECTION('center_axis',(0.,1.,0.));
#856=DIRECTION('ref_axis',(0.,0.,1.));
#857=DIRECTION('',(1.,0.,0.));
#858=DIRECTION('center_axis',(0.,0.,1.));
#859=DIRECTION('ref_axis',(1.,0.,0.));
#860=DIRECTION('',(1.,0.,0.));
#861=DIRECTION('center_axis',(0.,1.,0.));
#862=DIRECTION('ref_axis',(0.,0.,1.));
#863=CARTESIAN_POINT('',(0.,0.,0.));
#864=CARTESIAN_POINT('Origin',(-95.,11.5,0.));
#865=CARTESIAN_POINT('',(-97.5,11.5,0.));
#866=CARTESIAN_POINT('Origin',(-95.,11.5,0.));
#867=CARTESIAN_POINT('',(-97.5,11.5,-3.));
#868=CARTESIAN_POINT('',(-97.5,11.5,0.));
#869=CARTESIAN_POINT('Origin',(-95.,11.5,-3.));
#870=CARTESIAN_POINT('Origin',(-98.,6.,-2.25));
#871=CARTESIAN_POINT('',(-98.,4.,-1.36002320516582E-16));
#872=CARTESIAN_POINT('',(-100.,6.,-1.38777878078145E-16));
#873=CARTESIAN_POINT('Origin',(-98.,6.,0.));
#874=CARTESIAN_POINT('',(-100.,6.,-3.));
#875=CARTESIAN_POINT('',(-100.,6.,-2.25));
#876=CARTESIAN_POINT('',(-98.,4.,-3.));
#877=CARTESIAN_POINT('Origin',(-98.,6.,-3.));
#878=CARTESIAN_POINT('',(-98.,4.,-2.25));
#879=CARTESIAN_POINT('Origin',(-17.,0.,-3.));
#880=CARTESIAN_POINT('',(-100.,17.,-3.));
#881=CARTESIAN_POINT('',(-100.,4.,-3.));
#882=CARTESIAN_POINT('',(-98.,19.,-3.));
#883=CARTESIAN_POINT('Origin',(-98.,17.,-3.));
#884=CARTESIAN_POINT('',(-2.,19.,-3.00000000000001));
#885=CARTESIAN_POINT('',(0.,19.,-3.00000000000001));
#886=CARTESIAN_POINT('',(-5.55111512312578E-16,17.,-3.));
#887=CARTESIAN_POINT('Origin',(-2.,17.,-3.));
#888=CARTESIAN_POINT('',(-5.55111512312578E-16,0.,-3.));
#889=CARTESIAN_POINT('',(-5.55111512312578E-16,0.,-3.));
#890=CARTESIAN_POINT('',(-3.,0.,-3.));
#891=CARTESIAN_POINT('',(-5.55111512312578E-16,0.,-3.));
#892=CARTESIAN_POINT('',(-3.,2.,-3.));
#893=CARTESIAN_POINT('',(-3.,0.,-3.));
#894=CARTESIAN_POINT('',(-5.,4.,-3.00000000000001));
#895=CARTESIAN_POINT('Origin',(-5.,2.,-3.));
#896=CARTESIAN_POINT('',(-16.,4.,-3.00000000000001));
#897=CARTESIAN_POINT('',(0.,4.,-3.00000000000001));
#898=CARTESIAN_POINT('',(-17.,3.,-3.));
#899=CARTESIAN_POINT('Origin',(-16.,3.,-3.));
#900=CARTESIAN_POINT('',(-17.,0.,-3.));
#901=CARTESIAN_POINT('',(-17.,0.,-3.));
#902=CARTESIAN_POINT('',(-20.,0.,-3.));
#903=CARTESIAN_POINT('',(-17.,0.,-3.));
#904=CARTESIAN_POINT('',(-20.,2.,-3.));
#905=CARTESIAN_POINT('',(-20.,0.,-3.));
#906=CARTESIAN_POINT('',(-22.,4.,-3.00000000000001));
#907=CARTESIAN_POINT('Origin',(-22.,2.,-3.));
#908=CARTESIAN_POINT('',(-32.,4.,-3.00000000000001));
#909=CARTESIAN_POINT('',(0.,4.,-3.00000000000001));
#910=CARTESIAN_POINT('',(-34.,2.,-3.));
#911=CARTESIAN_POINT('Origin',(-32.,2.,-3.));
#912=CARTESIAN_POINT('',(-34.,0.,-3.));
#913=CARTESIAN_POINT('',(-34.,0.,-3.));
#914=CARTESIAN_POINT('',(-37.,0.,-3.));
#915=CARTESIAN_POINT('',(-34.,0.,-3.));
#916=CARTESIAN_POINT('',(-37.,2.,-3.));
#917=CARTESIAN_POINT('',(-37.,0.,-3.));
#918=CARTESIAN_POINT('',(-39.,4.,-3.00000000000001));
#919=CARTESIAN_POINT('Origin',(-39.,2.,-3.));
#920=CARTESIAN_POINT('',(-49.,4.,-3.00000000000001));
#921=CARTESIAN_POINT('',(0.,4.,-3.00000000000001));
#922=CARTESIAN_POINT('',(-51.,2.,-3.));
#923=CARTESIAN_POINT('Origin',(-49.,2.,-3.));
#924=CARTESIAN_POINT('',(-51.,0.,-3.));
#925=CARTESIAN_POINT('',(-51.,0.,-3.));
#926=CARTESIAN_POINT('',(-54.,0.,-3.));
#927=CARTESIAN_POINT('',(-51.,0.,-3.));
#928=CARTESIAN_POINT('',(-54.,2.,-3.));
#929=CARTESIAN_POINT('',(-54.,0.,-3.));
#930=CARTESIAN_POINT('',(-56.,4.,-3.));
#931=CARTESIAN_POINT('Origin',(-56.,2.,-3.));
#932=CARTESIAN_POINT('',(0.,4.,-3.00000000000001));
#933=CARTESIAN_POINT('Origin',(-100.,4.,-3.));
#934=CARTESIAN_POINT('',(-100.,17.,-1.38777878078145E-16));
#935=CARTESIAN_POINT('',(-100.,4.,-1.38777878078145E-16));
#936=CARTESIAN_POINT('',(-100.,17.,-2.25));
#937=CARTESIAN_POINT('Origin',(-98.,17.,-2.25));
#938=CARTESIAN_POINT('',(-98.,19.,-1.36002320516582E-16));
#939=CARTESIAN_POINT('Origin',(-98.,17.,0.));
#940=CARTESIAN_POINT('',(-98.,19.,-2.25));
#941=CARTESIAN_POINT('Origin',(-2.,17.,-0.750000000000007));
#942=CARTESIAN_POINT('',(-1.99999999999999,19.,-2.77555756156288E-18));
#943=CARTESIAN_POINT('',(-2.,19.,-0.750000000000007));
#944=CARTESIAN_POINT('',(0.,17.,0.));
#945=CARTESIAN_POINT('Origin',(-2.,17.,-3.33066907387547E-15));
#946=CARTESIAN_POINT('',(-2.77555756156289E-16,17.,-0.750000000000007));
#947=CARTESIAN_POINT('Origin',(0.,0.,0.));
#948=CARTESIAN_POINT('',(0.,0.,0.));
#949=CARTESIAN_POINT('',(0.,0.,0.));
#950=CARTESIAN_POINT('',(0.,0.,0.));
#951=CARTESIAN_POINT('Origin',(-5.,2.,-2.25000000000001));
#952=CARTESIAN_POINT('',(-3.,2.,0.));
#953=CARTESIAN_POINT('',(-3.,2.,-2.25000000000001));
#954=CARTESIAN_POINT('',(-5.,4.,-6.93889390390722E-18));
#955=CARTESIAN_POINT('Origin',(-5.,2.,-2.77555756156289E-15));
#956=CARTESIAN_POINT('',(-5.,4.,-2.25000000000001));
#957=CARTESIAN_POINT('Origin',(-3.,0.,-3.));
#958=CARTESIAN_POINT('',(-3.,0.,0.));
#959=CARTESIAN_POINT('',(-3.,0.,-3.));
#960=CARTESIAN_POINT('',(-3.,0.,0.));
#961=CARTESIAN_POINT('Origin',(-22.,2.,-2.25));
#962=CARTESIAN_POINT('',(-20.,2.,0.));
#963=CARTESIAN_POINT('',(-20.,2.,-2.25));
#964=CARTESIAN_POINT('',(-22.,4.,-3.05311331771918E-17));
#965=CARTESIAN_POINT('Origin',(-22.,2.,0.));
#966=CARTESIAN_POINT('',(-22.,4.,-2.25));
#967=CARTESIAN_POINT('Origin',(-20.,0.,-3.));
#968=CARTESIAN_POINT('',(-20.,0.,0.));
#969=CARTESIAN_POINT('',(-20.,0.,-3.));
#970=CARTESIAN_POINT('',(-20.,0.,0.));
#971=CARTESIAN_POINT('Origin',(-39.,2.,-2.25));
#972=CARTESIAN_POINT('',(-37.,2.,0.));
#973=CARTESIAN_POINT('',(-37.,2.,-2.25));
#974=CARTESIAN_POINT('',(-39.,4.,-5.41233724504764E-17));
#975=CARTESIAN_POINT('Origin',(-39.,2.,0.));
#976=CARTESIAN_POINT('',(-39.,4.,-2.25));
#977=CARTESIAN_POINT('Origin',(-37.,0.,-3.));
#978=CARTESIAN_POINT('',(-37.,0.,0.));
#979=CARTESIAN_POINT('',(-37.,0.,-3.));
#980=CARTESIAN_POINT('',(-37.,0.,0.));
#981=CARTESIAN_POINT('Origin',(-56.,2.,-2.25));
#982=CARTESIAN_POINT('',(-54.,2.,0.));
#983=CARTESIAN_POINT('',(-54.,2.,-2.25));
#984=CARTESIAN_POINT('',(-56.,4.,-7.7715611723761E-17));
#985=CARTESIAN_POINT('Origin',(-56.,2.,0.));
#986=CARTESIAN_POINT('',(-56.,4.,-2.25));
#987=CARTESIAN_POINT('Origin',(-54.,0.,-3.));
#988=CARTESIAN_POINT('',(-54.,0.,0.));
#989=CARTESIAN_POINT('',(-54.,0.,-3.));
#990=CARTESIAN_POINT('',(-54.,0.,0.));
#991=CARTESIAN_POINT('Origin',(-49.,2.,-0.750000000000003));
#992=CARTESIAN_POINT('',(-49.,4.,-6.80011602582908E-17));
#993=CARTESIAN_POINT('',(-51.,2.,-2.77555756156289E-16));
#994=CARTESIAN_POINT('Origin',(-49.,2.,0.));
#995=CARTESIAN_POINT('',(-51.,2.,-0.750000000000003));
#996=CARTESIAN_POINT('',(-49.,4.,-0.750000000000003));
#997=CARTESIAN_POINT('Origin',(-51.,0.,-2.77555756156289E-16));
#998=CARTESIAN_POINT('',(-51.,0.,-2.77555756156289E-16));
#999=CARTESIAN_POINT('',(-51.,0.,-2.77555756156289E-16));
#1000=CARTESIAN_POINT('',(-51.,0.,-2.77555756156289E-16));
#1001=CARTESIAN_POINT('Origin',(-32.,2.,-0.750000000000003));
#1002=CARTESIAN_POINT('',(-32.,4.,-4.44089209850063E-17));
#1003=CARTESIAN_POINT('',(-34.,2.,-1.38777878078145E-16));
#1004=CARTESIAN_POINT('Origin',(-32.,2.,0.));
#1005=CARTESIAN_POINT('',(-34.,2.,-0.750000000000003));
#1006=CARTESIAN_POINT('',(-32.,4.,-0.750000000000003));
#1007=CARTESIAN_POINT('Origin',(-34.,0.,-1.38777878078145E-16));
#1008=CARTESIAN_POINT('',(-34.,0.,-1.38777878078145E-16));
#1009=CARTESIAN_POINT('',(-34.,0.,-1.38777878078145E-16));
#1010=CARTESIAN_POINT('',(-34.,0.,-1.38777878078145E-16));
#1011=CARTESIAN_POINT('Origin',(-16.,3.,-0.750000000000003));
#1012=CARTESIAN_POINT('',(-16.,4.,-2.22044604925031E-17));
#1013=CARTESIAN_POINT('',(-17.,3.,0.));
#1014=CARTESIAN_POINT('Origin',(-16.,3.,0.));
#1015=CARTESIAN_POINT('',(-17.,3.,-0.750000000000003));
#1016=CARTESIAN_POINT('',(-16.,4.,-0.750000000000003));
#1017=CARTESIAN_POINT('Origin',(-17.,0.,0.));
#1018=CARTESIAN_POINT('',(-17.,0.,0.));
#1019=CARTESIAN_POINT('',(-17.,0.,0.));
#1020=CARTESIAN_POINT('',(-17.,0.,-5.55111512312578E-16));
#1021=CARTESIAN_POINT('Origin',(-50.,4.,-1.50000000000001));
#1022=CARTESIAN_POINT('',(-100.,4.,-1.38777878078145E-16));
#1023=CARTESIAN_POINT('Origin',(-50.,4.,-1.50000000000001));
#1024=CARTESIAN_POINT('',(-100.,4.,-1.38777878078145E-16));
#1025=CARTESIAN_POINT('Origin',(-50.,4.,-1.50000000000001));
#1026=CARTESIAN_POINT('',(-100.,4.,-1.38777878078145E-16));
#1027=CARTESIAN_POINT('Origin',(-50.,4.,-1.50000000000001));
#1028=CARTESIAN_POINT('',(-100.,4.,-1.38777878078145E-16));
#1029=CARTESIAN_POINT('Origin',(-50.,19.,-1.50000000000001));
#1030=CARTESIAN_POINT('',(-100.,19.,-1.38777878078145E-16));
#1031=CARTESIAN_POINT('Origin',(-35.5,0.,-1.5));
#1032=CARTESIAN_POINT('',(-37.,0.,0.));
#1033=CARTESIAN_POINT('Origin',(-1.5,0.,-1.5));
#1034=CARTESIAN_POINT('',(-3.,0.,0.));
#1035=CARTESIAN_POINT('Origin',(-52.5,0.,-1.5));
#1036=CARTESIAN_POINT('',(-54.,0.,0.));
#1037=CARTESIAN_POINT('Origin',(-20.,0.,0.));
#1038=CARTESIAN_POINT('',(-20.,0.,0.));
#1039=CARTESIAN_POINT('Origin',(-18.5,0.,-1.5));
#1040=UNCERTAINTY_MEASURE_WITH_UNIT(LENGTH_MEASURE(0.01),#1044,
'DISTANCE_ACCURACY_VALUE',
'Maximum model space distance between geometric entities at asserted c
onnectivities');
#1041=UNCERTAINTY_MEASURE_WITH_UNIT(LENGTH_MEASURE(0.01),#1044,
'DISTANCE_ACCURACY_VALUE',
'Maximum model space distance between geometric entities at asserted c
onnectivities');
#1042=(
GEOMETRIC_REPRESENTATION_CONTEXT(3)
GLOBAL_UNCERTAINTY_ASSIGNED_CONTEXT((#1040))
GLOBAL_UNIT_ASSIGNED_CONTEXT((#1044,#1046,#1047))
REPRESENTATION_CONTEXT('','3D')
);
#1043=(
GEOMETRIC_REPRESENTATION_CONTEXT(3)
GLOBAL_UNCERTAINTY_ASSIGNED_CONTEXT((#1041))
GLOBAL_UNIT_ASSIGNED_CONTEXT((#1044,#1046,#1047))
REPRESENTATION_CONTEXT('','3D')
);
#1044=(
LENGTH_UNIT()
NAMED_UNIT(*)
SI_UNIT(.MILLI.,.METRE.)
);
#1045=(
LENGTH_UNIT()
NAMED_UNIT(*)
SI_UNIT(.CENTI.,.METRE.)
);
#1046=(
NAMED_UNIT(*)
PLANE_ANGLE_UNIT()
SI_UNIT($,.RADIAN.)
);
#1047=(
NAMED_UNIT(*)
SI_UNIT($,.STERADIAN.)
SOLID_ANGLE_UNIT()
);
#1048=SHAPE_DEFINITION_REPRESENTATION(#1049,#1050);
#1049=PRODUCT_DEFINITION_SHAPE('',$,#1052);
#1050=SHAPE_REPRESENTATION('',(#636),#1042);
#1051=PRODUCT_DEFINITION_CONTEXT('part definition',#1056,'design');
#1052=PRODUCT_DEFINITION('Bus_copper_VDD','Bus_copper_VDD',#1053,#1051);
#1053=PRODUCT_DEFINITION_FORMATION('',$,#1058);
#1054=PRODUCT_RELATED_PRODUCT_CATEGORY('Bus_copper_VDD',
'Bus_copper_VDD',(#1058));
#1055=APPLICATION_PROTOCOL_DEFINITION('international standard',
'automotive_design',2009,#1056);
#1056=APPLICATION_CONTEXT(
'Core Data for Automotive Mechanical Design Process');
#1057=PRODUCT_CONTEXT('part definition',#1056,'mechanical');
#1058=PRODUCT('Bus_copper_VDD','Bus_copper_VDD',$,(#1057));
#1059=PRESENTATION_STYLE_ASSIGNMENT((#1060));
#1060=SURFACE_STYLE_USAGE(.BOTH.,#1063);
#1061=SURFACE_STYLE_RENDERING_WITH_PROPERTIES($,#1067,(#1062));
#1062=SURFACE_STYLE_TRANSPARENT(0.);
#1063=SURFACE_SIDE_STYLE('',(#1064,#1061));
#1064=SURFACE_STYLE_FILL_AREA(#1065);
#1065=FILL_AREA_STYLE('',(#1066));
#1066=FILL_AREA_STYLE_COLOUR('',#1067);
#1067=COLOUR_RGB('',0.737254901960784,0.313725490196078,0.184313725490196);
ENDSEC;
END-ISO-10303-21;
