ISO-10303-21;
HEADER;
/* Generated by software containing ST-Developer
 * from STEP Tools, Inc. (www.steptools.com) 
 */

FILE_DESCRIPTION(
/* description */ (''),
/* implementation_level */ '2;1');

FILE_NAME(
/* name */ 'Capacitor_22uF.stp',
/* time_stamp */ '2025-12-08T18:36:31+03:00',
/* author */ ('alexa'),
/* organization */ (''),
/* preprocessor_version */ 'ST-DEVELOPER v20',
/* originating_system */ 'Autodesk Inventor 2025',
/* authorisation */ '');

FILE_SCHEMA (('AUTOMOTIVE_DESIGN { 1 0 10303 214 3 1 1 }'));
ENDSEC;

DATA;
#10=MECHANICAL_DESIGN_GEOMETRIC_PRESENTATION_REPRESENTATION('',(#27,#28),
#555);
#11=ITEM_DEFINED_TRANSFORMATION($,$,#341,#374);
#12=ITEM_DEFINED_TRANSFORMATION($,$,#368,#375);
#13=ITEM_DEFINED_TRANSFORMATION($,$,#368,#376);
#14=(
REPRESENTATION_RELATIONSHIP($,$,#570,#569)
REPRESENTATION_RELATIONSHIP_WITH_TRANSFORMATION(#11)
SHAPE_REPRESENTATION_RELATIONSHIP()
);
#15=(
REPRESENTATION_RELATIONSHIP($,$,#571,#569)
REPRESENTATION_RELATIONSHIP_WITH_TRANSFORMATION(#12)
SHAPE_REPRESENTATION_RELATIONSHIP()
);
#16=(
REPRESENTATION_RELATIONSHIP($,$,#571,#569)
REPRESENTATION_RELATIONSHIP_WITH_TRANSFORMATION(#13)
SHAPE_REPRESENTATION_RELATIONSHIP()
);
#17=CONTEXT_DEPENDENT_SHAPE_REPRESENTATION(#14,#566);
#18=CONTEXT_DEPENDENT_SHAPE_REPRESENTATION(#15,#567);
#19=CONTEXT_DEPENDENT_SHAPE_REPRESENTATION(#16,#568);
#20=NEXT_ASSEMBLY_USAGE_OCCURRENCE(
'\X2\041A043E0440043F04430441\X0\ \X2\043A043E043D04340435043D044104300442043E04400430\X0\:
1','\X2\041A043E0440043F04430441\X0\ \X2\043A043E043D04340435043D044104300442043E04400430\X0\:
1','\X2\041A043E0440043F04430441\X0\ \X2\043A043E043D04340435043D044104300442043E04400430\X0\:
1',#573,#574,'\X2\041A043E0440043F04430441\X0\ \X2\043A043E043D04340435043D044104300442043E04400430\X0\:
1');
#21=NEXT_ASSEMBLY_USAGE_OCCURRENCE(
'\X2\041D043E0436043A0438\X0\ \X2\043A043E043D04340435043D044104300442043E04400430\X0\:
1','\X2\041D043E0436043A0438\X0\ \X2\043A043E043D04340435043D044104300442043E04400430\X0\:
1','\X2\041D043E0436043A0438\X0\ \X2\043A043E043D04340435043D044104300442043E04400430\X0\:
1',#573,#575,'\X2\041D043E0436043A0438\X0\ \X2\043A043E043D04340435043D044104300442043E04400430\X0\:
1');
#22=NEXT_ASSEMBLY_USAGE_OCCURRENCE(
'\X2\041D043E0436043A0438\X0\ \X2\043A043E043D04340435043D044104300442043E04400430\X0\:
2','\X2\041D043E0436043A0438\X0\ \X2\043A043E043D04340435043D044104300442043E04400430\X0\:
2','\X2\041D043E0436043A0438\X0\ \X2\043A043E043D04340435043D044104300442043E04400430\X0\:
2',#573,#575,'\X2\041D043E0436043A0438\X0\ \X2\043A043E043D04340435043D044104300442043E04400430\X0\:
2');
#23=SHAPE_REPRESENTATION_RELATIONSHIP('SRR','None',#570,#25);
#24=SHAPE_REPRESENTATION_RELATIONSHIP('SRR','None',#571,#26);
#25=ADVANCED_BREP_SHAPE_REPRESENTATION('',(#29),#553);
#26=ADVANCED_BREP_SHAPE_REPRESENTATION('',(#30),#554);
#27=STYLED_ITEM('',(#304),#29);
#28=STYLED_ITEM('',(#305),#30);
#29=MANIFOLD_SOLID_BREP('\X2\04220432043504400434043E0435\X0\ \X2\04420435043B043E\X0\1',
#276);
#30=MANIFOLD_SOLID_BREP('\X2\04220432043504400434043E0435\X0\ \X2\04420435043B043E\X0\1',
#277);
#31=FACE_BOUND('',#67,.T.);
#32=FACE_BOUND('',#68,.T.);
#33=PLANE('',#345);
#34=PLANE('',#349);
#35=PLANE('',#353);
#36=PLANE('',#354);
#37=PLANE('',#360);
#38=PLANE('',#363);
#39=PLANE('',#366);
#40=PLANE('',#367);
#41=PLANE('',#372);
#42=PLANE('',#373);
#43=FACE_OUTER_BOUND('',#60,.T.);
#44=FACE_OUTER_BOUND('',#61,.T.);
#45=FACE_OUTER_BOUND('',#62,.T.);
#46=FACE_OUTER_BOUND('',#63,.T.);
#47=FACE_OUTER_BOUND('',#64,.T.);
#48=FACE_OUTER_BOUND('',#65,.T.);
#49=FACE_OUTER_BOUND('',#66,.T.);
#50=FACE_OUTER_BOUND('',#69,.T.);
#51=FACE_OUTER_BOUND('',#70,.T.);
#52=FACE_OUTER_BOUND('',#71,.T.);
#53=FACE_OUTER_BOUND('',#72,.T.);
#54=FACE_OUTER_BOUND('',#73,.T.);
#55=FACE_OUTER_BOUND('',#74,.T.);
#56=FACE_OUTER_BOUND('',#75,.T.);
#57=FACE_OUTER_BOUND('',#76,.T.);
#58=FACE_OUTER_BOUND('',#77,.T.);
#59=FACE_OUTER_BOUND('',#78,.T.);
#60=EDGE_LOOP('',(#186,#187,#188,#189));
#61=EDGE_LOOP('',(#190));
#62=EDGE_LOOP('',(#191,#192,#193,#194));
#63=EDGE_LOOP('',(#195));
#64=EDGE_LOOP('',(#196,#197,#198,#199));
#65=EDGE_LOOP('',(#200,#201,#202,#203));
#66=EDGE_LOOP('',(#204,#205,#206,#207,#208,#209,#210,#211));
#67=EDGE_LOOP('',(#212));
#68=EDGE_LOOP('',(#213));
#69=EDGE_LOOP('',(#214,#215,#216,#217));
#70=EDGE_LOOP('',(#218,#219,#220,#221));
#71=EDGE_LOOP('',(#222,#223,#224,#225));
#72=EDGE_LOOP('',(#226,#227,#228,#229));
#73=EDGE_LOOP('',(#230,#231,#232,#233));
#74=EDGE_LOOP('',(#234,#235,#236,#237));
#75=EDGE_LOOP('',(#238,#239,#240,#241,#242,#243,#244,#245));
#76=EDGE_LOOP('',(#246,#247,#248,#249));
#77=EDGE_LOOP('',(#250));
#78=EDGE_LOOP('',(#251));
#79=LINE('',#476,#98);
#80=LINE('',#483,#99);
#81=LINE('',#491,#100);
#82=LINE('',#494,#101);
#83=LINE('',#497,#102);
#84=LINE('',#499,#103);
#85=LINE('',#500,#104);
#86=LINE('',#503,#105);
#87=LINE('',#507,#106);
#88=LINE('',#511,#107);
#89=LINE('',#516,#108);
#90=LINE('',#519,#109);
#91=LINE('',#520,#110);
#92=LINE('',#525,#111);
#93=LINE('',#526,#112);
#94=LINE('',#528,#113);
#95=LINE('',#532,#114);
#96=LINE('',#534,#115);
#97=LINE('',#541,#116);
#98=VECTOR('',#385,0.4);
#99=VECTOR('',#394,0.4);
#100=VECTOR('',#403,10.);
#101=VECTOR('',#406,10.);
#102=VECTOR('',#409,10.);
#103=VECTOR('',#410,10.);
#104=VECTOR('',#411,10.);
#105=VECTOR('',#414,10.);
#106=VECTOR('',#417,10.);
#107=VECTOR('',#420,10.);
#108=VECTOR('',#427,10.);
#109=VECTOR('',#430,10.);
#110=VECTOR('',#431,10.);
#111=VECTOR('',#436,10.);
#112=VECTOR('',#437,10.);
#113=VECTOR('',#440,10.);
#114=VECTOR('',#445,10.);
#115=VECTOR('',#448,10.);
#116=VECTOR('',#457,0.4);
#117=CIRCLE('',#343,0.4);
#118=CIRCLE('',#344,0.4);
#119=CIRCLE('',#347,0.4);
#120=CIRCLE('',#348,0.4);
#121=CIRCLE('',#351,1.);
#122=CIRCLE('',#352,1.);
#123=CIRCLE('',#355,1.);
#124=CIRCLE('',#356,1.);
#125=CIRCLE('',#357,1.);
#126=CIRCLE('',#359,1.);
#127=CIRCLE('',#362,1.);
#128=CIRCLE('',#365,1.);
#129=CIRCLE('',#370,0.4);
#130=CIRCLE('',#371,0.4);
#131=VERTEX_POINT('',#473);
#132=VERTEX_POINT('',#475);
#133=VERTEX_POINT('',#480);
#134=VERTEX_POINT('',#482);
#135=VERTEX_POINT('',#487);
#136=VERTEX_POINT('',#488);
#137=VERTEX_POINT('',#490);
#138=VERTEX_POINT('',#492);
#139=VERTEX_POINT('',#496);
#140=VERTEX_POINT('',#498);
#141=VERTEX_POINT('',#502);
#142=VERTEX_POINT('',#504);
#143=VERTEX_POINT('',#506);
#144=VERTEX_POINT('',#508);
#145=VERTEX_POINT('',#510);
#146=VERTEX_POINT('',#514);
#147=VERTEX_POINT('',#518);
#148=VERTEX_POINT('',#522);
#149=VERTEX_POINT('',#523);
#150=VERTEX_POINT('',#530);
#151=VERTEX_POINT('',#538);
#152=VERTEX_POINT('',#540);
#153=EDGE_CURVE('',#131,#131,#117,.T.);
#154=EDGE_CURVE('',#131,#132,#79,.T.);
#155=EDGE_CURVE('',#132,#132,#118,.T.);
#156=EDGE_CURVE('',#133,#133,#119,.T.);
#157=EDGE_CURVE('',#133,#134,#80,.T.);
#158=EDGE_CURVE('',#134,#134,#120,.T.);
#159=EDGE_CURVE('',#135,#136,#121,.T.);
#160=EDGE_CURVE('',#136,#137,#81,.T.);
#161=EDGE_CURVE('',#137,#138,#122,.T.);
#162=EDGE_CURVE('',#138,#135,#82,.T.);
#163=EDGE_CURVE('',#138,#139,#83,.T.);
#164=EDGE_CURVE('',#140,#139,#84,.T.);
#165=EDGE_CURVE('',#135,#140,#85,.T.);
#166=EDGE_CURVE('',#141,#137,#86,.T.);
#167=EDGE_CURVE('',#142,#141,#123,.T.);
#168=EDGE_CURVE('',#143,#142,#87,.T.);
#169=EDGE_CURVE('',#144,#143,#124,.T.);
#170=EDGE_CURVE('',#145,#144,#88,.T.);
#171=EDGE_CURVE('',#139,#145,#125,.T.);
#172=EDGE_CURVE('',#146,#140,#126,.T.);
#173=EDGE_CURVE('',#145,#146,#89,.T.);
#174=EDGE_CURVE('',#147,#144,#90,.T.);
#175=EDGE_CURVE('',#146,#147,#91,.T.);
#176=EDGE_CURVE('',#148,#149,#127,.T.);
#177=EDGE_CURVE('',#149,#142,#92,.T.);
#178=EDGE_CURVE('',#141,#148,#93,.T.);
#179=EDGE_CURVE('',#148,#136,#94,.T.);
#180=EDGE_CURVE('',#150,#147,#128,.T.);
#181=EDGE_CURVE('',#143,#150,#95,.T.);
#182=EDGE_CURVE('',#150,#149,#96,.T.);
#183=EDGE_CURVE('',#151,#151,#129,.T.);
#184=EDGE_CURVE('',#151,#152,#97,.T.);
#185=EDGE_CURVE('',#152,#152,#130,.T.);
#186=ORIENTED_EDGE('',*,*,#153,.F.);
#187=ORIENTED_EDGE('',*,*,#154,.T.);
#188=ORIENTED_EDGE('',*,*,#155,.T.);
#189=ORIENTED_EDGE('',*,*,#154,.F.);
#190=ORIENTED_EDGE('',*,*,#155,.F.);
#191=ORIENTED_EDGE('',*,*,#156,.F.);
#192=ORIENTED_EDGE('',*,*,#157,.T.);
#193=ORIENTED_EDGE('',*,*,#158,.T.);
#194=ORIENTED_EDGE('',*,*,#157,.F.);
#195=ORIENTED_EDGE('',*,*,#158,.F.);
#196=ORIENTED_EDGE('',*,*,#159,.T.);
#197=ORIENTED_EDGE('',*,*,#160,.T.);
#198=ORIENTED_EDGE('',*,*,#161,.T.);
#199=ORIENTED_EDGE('',*,*,#162,.T.);
#200=ORIENTED_EDGE('',*,*,#162,.F.);
#201=ORIENTED_EDGE('',*,*,#163,.T.);
#202=ORIENTED_EDGE('',*,*,#164,.F.);
#203=ORIENTED_EDGE('',*,*,#165,.F.);
#204=ORIENTED_EDGE('',*,*,#161,.F.);
#205=ORIENTED_EDGE('',*,*,#166,.F.);
#206=ORIENTED_EDGE('',*,*,#167,.F.);
#207=ORIENTED_EDGE('',*,*,#168,.F.);
#208=ORIENTED_EDGE('',*,*,#169,.F.);
#209=ORIENTED_EDGE('',*,*,#170,.F.);
#210=ORIENTED_EDGE('',*,*,#171,.F.);
#211=ORIENTED_EDGE('',*,*,#163,.F.);
#212=ORIENTED_EDGE('',*,*,#153,.T.);
#213=ORIENTED_EDGE('',*,*,#156,.T.);
#214=ORIENTED_EDGE('',*,*,#172,.T.);
#215=ORIENTED_EDGE('',*,*,#164,.T.);
#216=ORIENTED_EDGE('',*,*,#171,.T.);
#217=ORIENTED_EDGE('',*,*,#173,.T.);
#218=ORIENTED_EDGE('',*,*,#173,.F.);
#219=ORIENTED_EDGE('',*,*,#170,.T.);
#220=ORIENTED_EDGE('',*,*,#174,.F.);
#221=ORIENTED_EDGE('',*,*,#175,.F.);
#222=ORIENTED_EDGE('',*,*,#176,.T.);
#223=ORIENTED_EDGE('',*,*,#177,.T.);
#224=ORIENTED_EDGE('',*,*,#167,.T.);
#225=ORIENTED_EDGE('',*,*,#178,.T.);
#226=ORIENTED_EDGE('',*,*,#160,.F.);
#227=ORIENTED_EDGE('',*,*,#179,.F.);
#228=ORIENTED_EDGE('',*,*,#178,.F.);
#229=ORIENTED_EDGE('',*,*,#166,.T.);
#230=ORIENTED_EDGE('',*,*,#180,.T.);
#231=ORIENTED_EDGE('',*,*,#174,.T.);
#232=ORIENTED_EDGE('',*,*,#169,.T.);
#233=ORIENTED_EDGE('',*,*,#181,.T.);
#234=ORIENTED_EDGE('',*,*,#177,.F.);
#235=ORIENTED_EDGE('',*,*,#182,.F.);
#236=ORIENTED_EDGE('',*,*,#181,.F.);
#237=ORIENTED_EDGE('',*,*,#168,.T.);
#238=ORIENTED_EDGE('',*,*,#159,.F.);
#239=ORIENTED_EDGE('',*,*,#165,.T.);
#240=ORIENTED_EDGE('',*,*,#172,.F.);
#241=ORIENTED_EDGE('',*,*,#175,.T.);
#242=ORIENTED_EDGE('',*,*,#180,.F.);
#243=ORIENTED_EDGE('',*,*,#182,.T.);
#244=ORIENTED_EDGE('',*,*,#176,.F.);
#245=ORIENTED_EDGE('',*,*,#179,.T.);
#246=ORIENTED_EDGE('',*,*,#183,.F.);
#247=ORIENTED_EDGE('',*,*,#184,.T.);
#248=ORIENTED_EDGE('',*,*,#185,.T.);
#249=ORIENTED_EDGE('',*,*,#184,.F.);
#250=ORIENTED_EDGE('',*,*,#183,.T.);
#251=ORIENTED_EDGE('',*,*,#185,.F.);
#252=CYLINDRICAL_SURFACE('',#342,0.4);
#253=CYLINDRICAL_SURFACE('',#346,0.4);
#254=CYLINDRICAL_SURFACE('',#350,1.);
#255=CYLINDRICAL_SURFACE('',#358,1.);
#256=CYLINDRICAL_SURFACE('',#361,1.);
#257=CYLINDRICAL_SURFACE('',#364,1.);
#258=CYLINDRICAL_SURFACE('',#369,0.4);
#259=ADVANCED_FACE('',(#43),#252,.F.);
#260=ADVANCED_FACE('',(#44),#33,.T.);
#261=ADVANCED_FACE('',(#45),#253,.F.);
#262=ADVANCED_FACE('',(#46),#34,.T.);
#263=ADVANCED_FACE('',(#47),#254,.T.);
#264=ADVANCED_FACE('',(#48),#35,.T.);
#265=ADVANCED_FACE('',(#49,#31,#32),#36,.F.);
#266=ADVANCED_FACE('',(#50),#255,.T.);
#267=ADVANCED_FACE('',(#51),#37,.T.);
#268=ADVANCED_FACE('',(#52),#256,.T.);
#269=ADVANCED_FACE('',(#53),#38,.T.);
#270=ADVANCED_FACE('',(#54),#257,.T.);
#271=ADVANCED_FACE('',(#55),#39,.T.);
#272=ADVANCED_FACE('',(#56),#40,.T.);
#273=ADVANCED_FACE('',(#57),#258,.T.);
#274=ADVANCED_FACE('',(#58),#41,.T.);
#275=ADVANCED_FACE('',(#59),#42,.F.);
#276=CLOSED_SHELL('',(#259,#260,#261,#262,#263,#264,#265,#266,#267,#268,
#269,#270,#271,#272));
#277=CLOSED_SHELL('',(#273,#274,#275));
#278=DERIVED_UNIT_ELEMENT(#283,1.);
#279=DERIVED_UNIT_ELEMENT(#557,-3.);
#280=DERIVED_UNIT_ELEMENT(#283,1.);
#281=DERIVED_UNIT_ELEMENT(#557,-3.);
#282=DIMENSIONAL_EXPONENTS(0.,1.,0.,0.,0.,0.,0.);
#283=(
CONVERSION_BASED_UNIT('gram',#285)
MASS_UNIT()
NAMED_UNIT(#282)
);
#284=(
MASS_UNIT()
NAMED_UNIT(*)
SI_UNIT(.KILO.,.GRAM.)
);
#285=MASS_MEASURE_WITH_UNIT(MASS_MEASURE(0.001),#284);
#286=DERIVED_UNIT((#278,#279));
#287=DERIVED_UNIT((#280,#281));
#288=MEASURE_REPRESENTATION_ITEM('density measure',
POSITIVE_RATIO_MEASURE(1.06),#286);
#289=MEASURE_REPRESENTATION_ITEM('density measure',
POSITIVE_RATIO_MEASURE(8.83),#287);
#290=PROPERTY_DEFINITION_REPRESENTATION(#300,#294);
#291=PROPERTY_DEFINITION_REPRESENTATION(#301,#295);
#292=PROPERTY_DEFINITION_REPRESENTATION(#302,#296);
#293=PROPERTY_DEFINITION_REPRESENTATION(#303,#297);
#294=REPRESENTATION('material name',(#298),#553);
#295=REPRESENTATION('density',(#288),#553);
#296=REPRESENTATION('material name',(#299),#554);
#297=REPRESENTATION('density',(#289),#554);
#298=DESCRIPTIVE_REPRESENTATION_ITEM('\X2\041F043B0430044104420438043A\X0\ 
\X2\041004110421\X0\','\X2\041F043B0430044104420438043A\X0\ \X2\041004110421\X0\');
#299=DESCRIPTIVE_REPRESENTATION_ITEM(
'\X2\041C04350434043D043E\X0\-\X2\043D0438043A0435043B04350432044B0439\X0\ 
\X2\0441043F043B04300432\X0\ 400',
'\X2\041C04350434043D043E\X0\-\X2\043D0438043A0435043B04350432044B0439\X0\ 
\X2\0441043F043B04300432\X0\ 400');
#300=PROPERTY_DEFINITION('material property','material name',#574);
#301=PROPERTY_DEFINITION('material property','density of part',#574);
#302=PROPERTY_DEFINITION('material property','material name',#575);
#303=PROPERTY_DEFINITION('material property','density of part',#575);
#304=PRESENTATION_STYLE_ASSIGNMENT((#306));
#305=PRESENTATION_STYLE_ASSIGNMENT((#307));
#306=SURFACE_STYLE_USAGE(.BOTH.,#312);
#307=SURFACE_STYLE_USAGE(.BOTH.,#313);
#308=SURFACE_STYLE_RENDERING_WITH_PROPERTIES($,#320,(#310));
#309=SURFACE_STYLE_RENDERING_WITH_PROPERTIES($,#321,(#311));
#310=SURFACE_STYLE_TRANSPARENT(0.);
#311=SURFACE_STYLE_TRANSPARENT(0.);
#312=SURFACE_SIDE_STYLE('',(#314,#308));
#313=SURFACE_SIDE_STYLE('',(#315,#309));
#314=SURFACE_STYLE_FILL_AREA(#316);
#315=SURFACE_STYLE_FILL_AREA(#317);
#316=FILL_AREA_STYLE('',(#318));
#317=FILL_AREA_STYLE('',(#319));
#318=FILL_AREA_STYLE_COLOUR('',#320);
#319=FILL_AREA_STYLE_COLOUR('',#321);
#320=COLOUR_RGB('',0.184313725490196,0.623529411764706,0.764705882352941);
#321=COLOUR_RGB('',0.956862745098039,0.956862745098039,0.956862745098039);
#322=DATE_TIME_ROLE('creation_date');
#323=DATE_TIME_ROLE('creation_date');
#324=DATE_TIME_ROLE('creation_date');
#325=APPLIED_DATE_AND_TIME_ASSIGNMENT(#328,#322,(#573));
#326=APPLIED_DATE_AND_TIME_ASSIGNMENT(#329,#323,(#574));
#327=APPLIED_DATE_AND_TIME_ASSIGNMENT(#330,#324,(#575));
#328=DATE_AND_TIME(#331,#334);
#329=DATE_AND_TIME(#332,#335);
#330=DATE_AND_TIME(#333,#336);
#331=CALENDAR_DATE(2025,8,12);
#332=CALENDAR_DATE(2025,8,12);
#333=CALENDAR_DATE(2025,8,12);
#334=LOCAL_TIME(0,0,0.,#337);
#335=LOCAL_TIME(0,0,0.,#338);
#336=LOCAL_TIME(0,0,0.,#339);
#337=COORDINATED_UNIVERSAL_TIME_OFFSET(0,0,.BEHIND.);
#338=COORDINATED_UNIVERSAL_TIME_OFFSET(0,0,.BEHIND.);
#339=COORDINATED_UNIVERSAL_TIME_OFFSET(0,0,.BEHIND.);
#340=AXIS2_PLACEMENT_3D('',#470,#377,#378);
#341=AXIS2_PLACEMENT_3D('',#471,#379,#380);
#342=AXIS2_PLACEMENT_3D('',#472,#381,#382);
#343=AXIS2_PLACEMENT_3D('',#474,#383,#384);
#344=AXIS2_PLACEMENT_3D('',#477,#386,#387);
#345=AXIS2_PLACEMENT_3D('',#478,#388,#389);
#346=AXIS2_PLACEMENT_3D('',#479,#390,#391);
#347=AXIS2_PLACEMENT_3D('',#481,#392,#393);
#348=AXIS2_PLACEMENT_3D('',#484,#395,#396);
#349=AXIS2_PLACEMENT_3D('',#485,#397,#398);
#350=AXIS2_PLACEMENT_3D('',#486,#399,#400);
#351=AXIS2_PLACEMENT_3D('',#489,#401,#402);
#352=AXIS2_PLACEMENT_3D('',#493,#404,#405);
#353=AXIS2_PLACEMENT_3D('',#495,#407,#408);
#354=AXIS2_PLACEMENT_3D('',#501,#412,#413);
#355=AXIS2_PLACEMENT_3D('',#505,#415,#416);
#356=AXIS2_PLACEMENT_3D('',#509,#418,#419);
#357=AXIS2_PLACEMENT_3D('',#512,#421,#422);
#358=AXIS2_PLACEMENT_3D('',#513,#423,#424);
#359=AXIS2_PLACEMENT_3D('',#515,#425,#426);
#360=AXIS2_PLACEMENT_3D('',#517,#428,#429);
#361=AXIS2_PLACEMENT_3D('',#521,#432,#433);
#362=AXIS2_PLACEMENT_3D('',#524,#434,#435);
#363=AXIS2_PLACEMENT_3D('',#527,#438,#439);
#364=AXIS2_PLACEMENT_3D('',#529,#441,#442);
#365=AXIS2_PLACEMENT_3D('',#531,#443,#444);
#366=AXIS2_PLACEMENT_3D('',#533,#446,#447);
#367=AXIS2_PLACEMENT_3D('',#535,#449,#450);
#368=AXIS2_PLACEMENT_3D('',#536,#451,#452);
#369=AXIS2_PLACEMENT_3D('',#537,#453,#454);
#370=AXIS2_PLACEMENT_3D('',#539,#455,#456);
#371=AXIS2_PLACEMENT_3D('',#542,#458,#459);
#372=AXIS2_PLACEMENT_3D('',#543,#460,#461);
#373=AXIS2_PLACEMENT_3D('',#544,#462,#463);
#374=AXIS2_PLACEMENT_3D('',#545,#464,#465);
#375=AXIS2_PLACEMENT_3D('',#546,#466,#467);
#376=AXIS2_PLACEMENT_3D('',#547,#468,#469);
#377=DIRECTION('axis',(0.,0.,1.));
#378=DIRECTION('refdir',(1.,0.,0.));
#379=DIRECTION('axis',(0.,0.,1.));
#380=DIRECTION('refdir',(1.,0.,0.));
#381=DIRECTION('center_axis',(0.,1.,0.));
#382=DIRECTION('ref_axis',(1.,0.,0.));
#383=DIRECTION('center_axis',(0.,1.,0.));
#384=DIRECTION('ref_axis',(1.,0.,0.));
#385=DIRECTION('',(0.,1.,0.));
#386=DIRECTION('center_axis',(0.,1.,0.));
#387=DIRECTION('ref_axis',(1.,0.,0.));
#388=DIRECTION('center_axis',(0.,-1.,0.));
#389=DIRECTION('ref_axis',(0.,0.,-1.));
#390=DIRECTION('center_axis',(0.,1.,0.));
#391=DIRECTION('ref_axis',(1.,0.,0.));
#392=DIRECTION('center_axis',(0.,1.,0.));
#393=DIRECTION('ref_axis',(1.,0.,0.));
#394=DIRECTION('',(0.,1.,0.));
#395=DIRECTION('center_axis',(0.,1.,0.));
#396=DIRECTION('ref_axis',(1.,0.,0.));
#397=DIRECTION('center_axis',(0.,-1.,0.));
#398=DIRECTION('ref_axis',(0.,0.,-1.));
#399=DIRECTION('center_axis',(0.,1.,0.));
#400=DIRECTION('ref_axis',(-0.707106781186544,0.,-0.707106781186551));
#401=DIRECTION('center_axis',(0.,-1.,0.));
#402=DIRECTION('ref_axis',(-0.707106781186544,0.,-0.707106781186551));
#403=DIRECTION('',(0.,-1.,0.));
#404=DIRECTION('center_axis',(0.,1.,0.));
#405=DIRECTION('ref_axis',(-0.707106781186544,0.,-0.707106781186551));
#406=DIRECTION('',(0.,1.,0.));
#407=DIRECTION('center_axis',(-1.,0.,-2.01858731750028E-16));
#408=DIRECTION('ref_axis',(-2.01858731750028E-16,0.,1.));
#409=DIRECTION('',(-2.01858731750028E-16,0.,1.));
#410=DIRECTION('',(0.,-1.,0.));
#411=DIRECTION('',(-2.01858731750028E-16,0.,1.));
#412=DIRECTION('center_axis',(0.,1.,0.));
#413=DIRECTION('ref_axis',(0.,0.,1.));
#414=DIRECTION('',(-1.,0.,-1.40980701539702E-16));
#415=DIRECTION('center_axis',(0.,1.,0.));
#416=DIRECTION('ref_axis',(0.707106781186549,0.,-0.707106781186546));
#417=DIRECTION('',(0.,0.,-1.));
#418=DIRECTION('center_axis',(0.,1.,0.));
#419=DIRECTION('ref_axis',(0.707106781186548,0.,0.707106781186547));
#420=DIRECTION('',(1.,0.,0.));
#421=DIRECTION('center_axis',(0.,1.,0.));
#422=DIRECTION('ref_axis',(-0.707106781186549,0.,0.707106781186546));
#423=DIRECTION('center_axis',(0.,1.,0.));
#424=DIRECTION('ref_axis',(-0.707106781186549,0.,0.707106781186546));
#425=DIRECTION('center_axis',(0.,-1.,0.));
#426=DIRECTION('ref_axis',(-0.707106781186549,0.,0.707106781186546));
#427=DIRECTION('',(0.,1.,0.));
#428=DIRECTION('center_axis',(0.,0.,1.));
#429=DIRECTION('ref_axis',(1.,0.,0.));
#430=DIRECTION('',(0.,-1.,0.));
#431=DIRECTION('',(1.,0.,0.));
#432=DIRECTION('center_axis',(0.,1.,0.));
#433=DIRECTION('ref_axis',(0.707106781186549,0.,-0.707106781186546));
#434=DIRECTION('center_axis',(0.,-1.,0.));
#435=DIRECTION('ref_axis',(0.707106781186549,0.,-0.707106781186546));
#436=DIRECTION('',(0.,-1.,0.));
#437=DIRECTION('',(0.,1.,0.));
#438=DIRECTION('center_axis',(1.40980701539702E-16,0.,-1.));
#439=DIRECTION('ref_axis',(-1.,0.,-1.40980701539702E-16));
#440=DIRECTION('',(-1.,0.,-1.40980701539702E-16));
#441=DIRECTION('center_axis',(0.,1.,0.));
#442=DIRECTION('ref_axis',(0.707106781186548,0.,0.707106781186547));
#443=DIRECTION('center_axis',(0.,-1.,0.));
#444=DIRECTION('ref_axis',(0.707106781186548,0.,0.707106781186547));
#445=DIRECTION('',(0.,1.,0.));
#446=DIRECTION('center_axis',(1.,0.,0.));
#447=DIRECTION('ref_axis',(0.,0.,-1.));
#448=DIRECTION('',(0.,0.,-1.));
#449=DIRECTION('center_axis',(0.,1.,0.));
#450=DIRECTION('ref_axis',(0.,0.,1.));
#451=DIRECTION('axis',(0.,0.,1.));
#452=DIRECTION('refdir',(1.,0.,0.));
#453=DIRECTION('center_axis',(0.,1.,0.));
#454=DIRECTION('ref_axis',(-1.,0.,0.));
#455=DIRECTION('center_axis',(0.,1.,0.));
#456=DIRECTION('ref_axis',(-1.,0.,0.));
#457=DIRECTION('',(0.,-1.,0.));
#458=DIRECTION('center_axis',(0.,1.,0.));
#459=DIRECTION('ref_axis',(-1.,0.,0.));
#460=DIRECTION('center_axis',(0.,1.,0.));
#461=DIRECTION('ref_axis',(0.,0.,1.));
#462=DIRECTION('center_axis',(0.,1.,0.));
#463=DIRECTION('ref_axis',(0.,0.,1.));
#464=DIRECTION('',(4.75092309785397E-17,1.13908575700614E-14,1.));
#465=DIRECTION('',(1.,-6.66133814775096E-15,-4.75092309784638E-17));
#466=DIRECTION('',(1.01584661364899E-17,1.13908575700614E-14,1.));
#467=DIRECTION('',(1.,-6.62664367823145E-15,-1.01584661364144E-17));
#468=DIRECTION('',(-4.7313498605095E-15,1.13908575700614E-14,1.));
#469=DIRECTION('',(1.,5.55111512312688E-17,4.7313498605095E-15));
#470=CARTESIAN_POINT('',(0.,0.,0.));
#471=CARTESIAN_POINT('',(0.,0.,0.));
#472=CARTESIAN_POINT('Origin',(-2.,0.,-11.));
#473=CARTESIAN_POINT('',(-2.4,0.,-11.));
#474=CARTESIAN_POINT('Origin',(-2.,0.,-11.));
#475=CARTESIAN_POINT('',(-2.4,1.,-11.));
#476=CARTESIAN_POINT('',(-2.4,0.,-11.));
#477=CARTESIAN_POINT('Origin',(-2.,1.,-11.));
#478=CARTESIAN_POINT('Origin',(-2.,1.,-11.));
#479=CARTESIAN_POINT('Origin',(-29.5,0.,-11.));
#480=CARTESIAN_POINT('',(-29.9,0.,-11.));
#481=CARTESIAN_POINT('Origin',(-29.5,0.,-11.));
#482=CARTESIAN_POINT('',(-29.9,1.,-11.));
#483=CARTESIAN_POINT('',(-29.9,0.,-11.));
#484=CARTESIAN_POINT('Origin',(-29.5,1.,-11.));
#485=CARTESIAN_POINT('Origin',(-29.5,1.,-11.));
#486=CARTESIAN_POINT('Origin',(-30.5,0.,-21.));
#487=CARTESIAN_POINT('',(-31.5,36.5,-21.));
#488=CARTESIAN_POINT('',(-30.5,36.5,-22.));
#489=CARTESIAN_POINT('Origin',(-30.5,36.5,-21.));
#490=CARTESIAN_POINT('',(-30.5,0.,-22.));
#491=CARTESIAN_POINT('',(-30.5,0.,-22.));
#492=CARTESIAN_POINT('',(-31.5,0.,-21.));
#493=CARTESIAN_POINT('Origin',(-30.5,0.,-21.));
#494=CARTESIAN_POINT('',(-31.5,0.,-21.));
#495=CARTESIAN_POINT('Origin',(-31.5,0.,-22.));
#496=CARTESIAN_POINT('',(-31.5,0.,-1.));
#497=CARTESIAN_POINT('',(-31.5,0.,-22.));
#498=CARTESIAN_POINT('',(-31.5,36.5,-1.));
#499=CARTESIAN_POINT('',(-31.5,0.,-1.));
#500=CARTESIAN_POINT('',(-31.5,36.5,-22.));
#501=CARTESIAN_POINT('Origin',(-15.75,0.,-11.));
#502=CARTESIAN_POINT('',(-1.,0.,-22.));
#503=CARTESIAN_POINT('',(0.,0.,-22.));
#504=CARTESIAN_POINT('',(0.,0.,-21.));
#505=CARTESIAN_POINT('Origin',(-1.,0.,-21.));
#506=CARTESIAN_POINT('',(0.,0.,-1.));
#507=CARTESIAN_POINT('',(0.,0.,0.));
#508=CARTESIAN_POINT('',(-1.,0.,0.));
#509=CARTESIAN_POINT('Origin',(-1.,0.,-1.));
#510=CARTESIAN_POINT('',(-30.5,0.,0.));
#511=CARTESIAN_POINT('',(-31.5,0.,0.));
#512=CARTESIAN_POINT('Origin',(-30.5,0.,-1.));
#513=CARTESIAN_POINT('Origin',(-30.5,0.,-1.));
#514=CARTESIAN_POINT('',(-30.5,36.5,0.));
#515=CARTESIAN_POINT('Origin',(-30.5,36.5,-1.));
#516=CARTESIAN_POINT('',(-30.5,0.,0.));
#517=CARTESIAN_POINT('Origin',(-31.5,0.,0.));
#518=CARTESIAN_POINT('',(-1.,36.5,0.));
#519=CARTESIAN_POINT('',(-1.,0.,0.));
#520=CARTESIAN_POINT('',(-31.5,36.5,0.));
#521=CARTESIAN_POINT('Origin',(-1.,0.,-21.));
#522=CARTESIAN_POINT('',(-1.,36.5,-22.));
#523=CARTESIAN_POINT('',(0.,36.5,-21.));
#524=CARTESIAN_POINT('Origin',(-1.,36.5,-21.));
#525=CARTESIAN_POINT('',(0.,0.,-21.));
#526=CARTESIAN_POINT('',(-1.,0.,-22.));
#527=CARTESIAN_POINT('Origin',(0.,0.,-22.));
#528=CARTESIAN_POINT('',(0.,36.5,-22.));
#529=CARTESIAN_POINT('Origin',(-1.,0.,-1.));
#530=CARTESIAN_POINT('',(0.,36.5,-1.));
#531=CARTESIAN_POINT('Origin',(-1.,36.5,-1.));
#532=CARTESIAN_POINT('',(0.,0.,-1.));
#533=CARTESIAN_POINT('Origin',(0.,0.,0.));
#534=CARTESIAN_POINT('',(0.,36.5,0.));
#535=CARTESIAN_POINT('Origin',(-15.75,36.5,-11.));
#536=CARTESIAN_POINT('',(0.,0.,0.));
#537=CARTESIAN_POINT('Origin',(0.,0.,0.));
#538=CARTESIAN_POINT('',(0.4,6.,-4.89858719658941E-17));
#539=CARTESIAN_POINT('Origin',(0.,6.,0.));
#540=CARTESIAN_POINT('',(0.4,0.,-4.89858719658941E-17));
#541=CARTESIAN_POINT('',(0.4,0.,-4.89858719658941E-17));
#542=CARTESIAN_POINT('Origin',(0.,0.,0.));
#543=CARTESIAN_POINT('Origin',(0.,6.,0.));
#544=CARTESIAN_POINT('Origin',(0.,0.,0.));
#545=CARTESIAN_POINT('',(-38.5131968895059,-11.5971707876382,16.7294863065793));
#546=CARTESIAN_POINT('',(-40.513196889506,-16.5971707876383,5.72948630657933));
#547=CARTESIAN_POINT('',(-68.013196889506,-16.5971707876381,5.72948630657934));
#548=UNCERTAINTY_MEASURE_WITH_UNIT(LENGTH_MEASURE(0.01),#556,
'DISTANCE_ACCURACY_VALUE',
'Maximum model space distance between geometric entities at asserted c
onnectivities');
#549=UNCERTAINTY_MEASURE_WITH_UNIT(LENGTH_MEASURE(0.01),#556,
'DISTANCE_ACCURACY_VALUE',
'Maximum model space distance between geometric entities at asserted c
onnectivities');
#550=UNCERTAINTY_MEASURE_WITH_UNIT(LENGTH_MEASURE(0.01),#556,
'DISTANCE_ACCURACY_VALUE',
'Maximum model space distance between geometric entities at asserted c
onnectivities');
#551=UNCERTAINTY_MEASURE_WITH_UNIT(LENGTH_MEASURE(0.01),#556,
'DISTANCE_ACCURACY_VALUE',
'Maximum model space distance between geometric entities at asserted c
onnectivities');
#552=(
GEOMETRIC_REPRESENTATION_CONTEXT(3)
GLOBAL_UNCERTAINTY_ASSIGNED_CONTEXT((#548))
GLOBAL_UNIT_ASSIGNED_CONTEXT((#556,#558,#559))
REPRESENTATION_CONTEXT('','3D')
);
#553=(
GEOMETRIC_REPRESENTATION_CONTEXT(3)
GLOBAL_UNCERTAINTY_ASSIGNED_CONTEXT((#549))
GLOBAL_UNIT_ASSIGNED_CONTEXT((#556,#558,#559))
REPRESENTATION_CONTEXT('','3D')
);
#554=(
GEOMETRIC_REPRESENTATION_CONTEXT(3)
GLOBAL_UNCERTAINTY_ASSIGNED_CONTEXT((#550))
GLOBAL_UNIT_ASSIGNED_CONTEXT((#556,#558,#559))
REPRESENTATION_CONTEXT('','3D')
);
#555=(
GEOMETRIC_REPRESENTATION_CONTEXT(3)
GLOBAL_UNCERTAINTY_ASSIGNED_CONTEXT((#551))
GLOBAL_UNIT_ASSIGNED_CONTEXT((#556,#558,#559))
REPRESENTATION_CONTEXT('','3D')
);
#556=(
LENGTH_UNIT()
NAMED_UNIT(*)
SI_UNIT(.MILLI.,.METRE.)
);
#557=(
LENGTH_UNIT()
NAMED_UNIT(*)
SI_UNIT(.CENTI.,.METRE.)
);
#558=(
NAMED_UNIT(*)
PLANE_ANGLE_UNIT()
SI_UNIT($,.RADIAN.)
);
#559=(
NAMED_UNIT(*)
SI_UNIT($,.STERADIAN.)
SOLID_ANGLE_UNIT()
);
#560=SHAPE_DEFINITION_REPRESENTATION(#563,#569);
#561=SHAPE_DEFINITION_REPRESENTATION(#564,#570);
#562=SHAPE_DEFINITION_REPRESENTATION(#565,#571);
#563=PRODUCT_DEFINITION_SHAPE('',$,#573);
#564=PRODUCT_DEFINITION_SHAPE('',$,#574);
#565=PRODUCT_DEFINITION_SHAPE('',$,#575);
#566=PRODUCT_DEFINITION_SHAPE($,$,#20);
#567=PRODUCT_DEFINITION_SHAPE($,$,#21);
#568=PRODUCT_DEFINITION_SHAPE($,$,#22);
#569=SHAPE_REPRESENTATION('',(#340,#374,#375,#376),#552);
#570=SHAPE_REPRESENTATION('',(#341),#553);
#571=SHAPE_REPRESENTATION('',(#368),#554);
#572=PRODUCT_DEFINITION_CONTEXT('part definition',#583,'design');
#573=PRODUCT_DEFINITION('\X2\041A043E043D04340435043D044104300442043E0440\X0\ 
22\X2\043C043A0424\X0\','\X2\041A043E043D04340435043D044104300442043E0440\X0\ 
22\X2\043C043A0424\X0\',#576,#572);
#574=PRODUCT_DEFINITION('\X2\041A043E0440043F04430441\X0\ \X2\043A043E043D04340435043D044104300442043E04400430\X0\',
'\X2\041A043E0440043F04430441\X0\ \X2\043A043E043D04340435043D044104300442043E04400430\X0\',
#577,#572);
#575=PRODUCT_DEFINITION('\X2\041D043E0436043A0438\X0\ \X2\043A043E043D04340435043D044104300442043E04400430\X0\',
'\X2\041D043E0436043A0438\X0\ \X2\043A043E043D04340435043D044104300442043E04400430\X0\',
#578,#572);
#576=PRODUCT_DEFINITION_FORMATION('',$,#585);
#577=PRODUCT_DEFINITION_FORMATION('',$,#586);
#578=PRODUCT_DEFINITION_FORMATION('',$,#587);
#579=PRODUCT_RELATED_PRODUCT_CATEGORY('\X2\041A043E043D04340435043D044104300442043E0440\X0\ 
22\X2\043C043A0424\X0\','\X2\041A043E043D04340435043D044104300442043E0440\X0\ 
22\X2\043C043A0424\X0\',(#585));
#580=PRODUCT_RELATED_PRODUCT_CATEGORY(
'\X2\041A043E0440043F04430441\X0\ \X2\043A043E043D04340435043D044104300442043E04400430\X0\',
'\X2\041A043E0440043F04430441\X0\ \X2\043A043E043D04340435043D044104300442043E04400430\X0\',
(#586));
#581=PRODUCT_RELATED_PRODUCT_CATEGORY(
'\X2\041D043E0436043A0438\X0\ \X2\043A043E043D04340435043D044104300442043E04400430\X0\',
'\X2\041D043E0436043A0438\X0\ \X2\043A043E043D04340435043D044104300442043E04400430\X0\',
(#587));
#582=APPLICATION_PROTOCOL_DEFINITION('international standard',
'automotive_design',2009,#583);
#583=APPLICATION_CONTEXT(
'Core Data for Automotive Mechanical Design Process');
#584=PRODUCT_CONTEXT('part definition',#583,'mechanical');
#585=PRODUCT('\X2\041A043E043D04340435043D044104300442043E0440\X0\ 22\X2\043C043A0424\X0\',
'\X2\041A043E043D04340435043D044104300442043E0440\X0\ 22\X2\043C043A0424\X0\',
$,(#584));
#586=PRODUCT('\X2\041A043E0440043F04430441\X0\ \X2\043A043E043D04340435043D044104300442043E04400430\X0\',
'\X2\041A043E0440043F04430441\X0\ \X2\043A043E043D04340435043D044104300442043E04400430\X0\',
$,(#584));
#587=PRODUCT('\X2\041D043E0436043A0438\X0\ \X2\043A043E043D04340435043D044104300442043E04400430\X0\',
'\X2\041D043E0436043A0438\X0\ \X2\043A043E043D04340435043D044104300442043E04400430\X0\',
$,(#584));
ENDSEC;
END-ISO-10303-21;
