ISO-10303-21;
HEADER;
/* Generated by software containing ST-Developer
 * from STEP Tools, Inc. (www.steptools.com) 
 */

FILE_DESCRIPTION(
/* description */ (''),
/* implementation_level */ '2;1');

FILE_NAME(
/* name */ 'Bus_copper_GND.stp',
/* time_stamp */ '2026-01-22T14:45:56+03:00',
/* author */ ('EV-TECH'),
/* organization */ (''),
/* preprocessor_version */ 'ST-DEVELOPER v20.1',
/* originating_system */ 'Autodesk Inventor 2026',
/* authorisation */ '');

FILE_SCHEMA (('AUTOMOTIVE_DESIGN { 1 0 10303 214 3 1 1 }'));
ENDSEC;

DATA;
#10=MECHANICAL_DESIGN_GEOMETRIC_PRESENTATION_REPRESENTATION('',(#13),#1004);
#11=SHAPE_REPRESENTATION_RELATIONSHIP('SRR','None',#1011,#12);
#12=ADVANCED_BREP_SHAPE_REPRESENTATION('',(#14),#1003);
#13=STYLED_ITEM('',(#1020),#14);
#14=MANIFOLD_SOLID_BREP('\X2\04220432043504400434043E0435\X0\ \X2\04420435043B043E\X0\1',
#591);
#15=PLANE('',#617);
#16=PLANE('',#627);
#17=PLANE('',#632);
#18=PLANE('',#635);
#19=PLANE('',#638);
#20=PLANE('',#641);
#21=PLANE('',#644);
#22=PLANE('',#647);
#23=PLANE('',#650);
#24=PLANE('',#653);
#25=PLANE('',#654);
#26=PLANE('',#655);
#27=PLANE('',#656);
#28=PLANE('',#657);
#29=PLANE('',#658);
#30=PLANE('',#659);
#31=PLANE('',#660);
#32=PLANE('',#661);
#33=PLANE('',#662);
#34=PLANE('',#663);
#35=FACE_OUTER_BOUND('',#65,.T.);
#36=FACE_OUTER_BOUND('',#66,.T.);
#37=FACE_OUTER_BOUND('',#67,.T.);
#38=FACE_OUTER_BOUND('',#68,.T.);
#39=FACE_OUTER_BOUND('',#69,.T.);
#40=FACE_OUTER_BOUND('',#70,.T.);
#41=FACE_OUTER_BOUND('',#71,.T.);
#42=FACE_OUTER_BOUND('',#72,.T.);
#43=FACE_OUTER_BOUND('',#73,.T.);
#44=FACE_OUTER_BOUND('',#74,.T.);
#45=FACE_OUTER_BOUND('',#75,.T.);
#46=FACE_OUTER_BOUND('',#76,.T.);
#47=FACE_OUTER_BOUND('',#77,.T.);
#48=FACE_OUTER_BOUND('',#78,.T.);
#49=FACE_OUTER_BOUND('',#79,.T.);
#50=FACE_OUTER_BOUND('',#80,.T.);
#51=FACE_OUTER_BOUND('',#81,.T.);
#52=FACE_OUTER_BOUND('',#82,.T.);
#53=FACE_OUTER_BOUND('',#83,.T.);
#54=FACE_OUTER_BOUND('',#84,.T.);
#55=FACE_OUTER_BOUND('',#85,.T.);
#56=FACE_OUTER_BOUND('',#86,.T.);
#57=FACE_OUTER_BOUND('',#87,.T.);
#58=FACE_OUTER_BOUND('',#88,.T.);
#59=FACE_OUTER_BOUND('',#89,.T.);
#60=FACE_OUTER_BOUND('',#90,.T.);
#61=FACE_OUTER_BOUND('',#91,.T.);
#62=FACE_OUTER_BOUND('',#92,.T.);
#63=FACE_OUTER_BOUND('',#93,.T.);
#64=FACE_OUTER_BOUND('',#94,.T.);
#65=EDGE_LOOP('',(#383,#384,#385,#386));
#66=EDGE_LOOP('',(#387,#388,#389,#390,#391,#392,#393,#394,#395,#396,#397,
#398,#399,#400,#401,#402,#403,#404,#405,#406,#407,#408,#409,#410,#411,#412,
#413,#414));
#67=EDGE_LOOP('',(#415,#416,#417,#418));
#68=EDGE_LOOP('',(#419,#420,#421,#422));
#69=EDGE_LOOP('',(#423,#424,#425,#426));
#70=EDGE_LOOP('',(#427,#428,#429,#430));
#71=EDGE_LOOP('',(#431,#432,#433,#434));
#72=EDGE_LOOP('',(#435,#436,#437,#438));
#73=EDGE_LOOP('',(#439,#440,#441,#442));
#74=EDGE_LOOP('',(#443,#444,#445,#446));
#75=EDGE_LOOP('',(#447,#448,#449,#450));
#76=EDGE_LOOP('',(#451,#452,#453,#454));
#77=EDGE_LOOP('',(#455,#456,#457,#458));
#78=EDGE_LOOP('',(#459,#460,#461,#462));
#79=EDGE_LOOP('',(#463,#464,#465,#466));
#80=EDGE_LOOP('',(#467,#468,#469,#470));
#81=EDGE_LOOP('',(#471,#472,#473,#474));
#82=EDGE_LOOP('',(#475,#476,#477,#478));
#83=EDGE_LOOP('',(#479,#480,#481,#482));
#84=EDGE_LOOP('',(#483,#484,#485,#486));
#85=EDGE_LOOP('',(#487,#488,#489,#490));
#86=EDGE_LOOP('',(#491,#492,#493,#494));
#87=EDGE_LOOP('',(#495,#496,#497,#498));
#88=EDGE_LOOP('',(#499,#500,#501,#502));
#89=EDGE_LOOP('',(#503,#504,#505,#506));
#90=EDGE_LOOP('',(#507,#508,#509,#510));
#91=EDGE_LOOP('',(#511,#512,#513,#514));
#92=EDGE_LOOP('',(#515,#516,#517,#518));
#93=EDGE_LOOP('',(#519,#520,#521,#522,#523,#524,#525,#526,#527,#528,#529,
#530,#531,#532,#533,#534,#535,#536,#537,#538,#539,#540,#541,#542,#543,#544,
#545,#546));
#94=EDGE_LOOP('',(#547,#548,#549,#550));
#95=LINE('',#836,#159);
#96=LINE('',#839,#160);
#97=LINE('',#842,#161);
#98=LINE('',#846,#162);
#99=LINE('',#850,#163);
#100=LINE('',#852,#164);
#101=LINE('',#854,#165);
#102=LINE('',#858,#166);
#103=LINE('',#862,#167);
#104=LINE('',#864,#168);
#105=LINE('',#866,#169);
#106=LINE('',#870,#170);
#107=LINE('',#874,#171);
#108=LINE('',#876,#172);
#109=LINE('',#878,#173);
#110=LINE('',#882,#174);
#111=LINE('',#886,#175);
#112=LINE('',#888,#176);
#113=LINE('',#890,#177);
#114=LINE('',#893,#178);
#115=LINE('',#896,#179);
#116=LINE('',#897,#180);
#117=LINE('',#901,#181);
#118=LINE('',#904,#182);
#119=LINE('',#907,#183);
#120=LINE('',#910,#184);
#121=LINE('',#911,#185);
#122=LINE('',#914,#186);
#123=LINE('',#917,#187);
#124=LINE('',#920,#188);
#125=LINE('',#921,#189);
#126=LINE('',#924,#190);
#127=LINE('',#927,#191);
#128=LINE('',#930,#192);
#129=LINE('',#931,#193);
#130=LINE('',#934,#194);
#131=LINE('',#937,#195);
#132=LINE('',#940,#196);
#133=LINE('',#941,#197);
#134=LINE('',#944,#198);
#135=LINE('',#947,#199);
#136=LINE('',#950,#200);
#137=LINE('',#951,#201);
#138=LINE('',#956,#202);
#139=LINE('',#957,#203);
#140=LINE('',#960,#204);
#141=LINE('',#961,#205);
#142=LINE('',#966,#206);
#143=LINE('',#967,#207);
#144=LINE('',#970,#208);
#145=LINE('',#971,#209);
#146=LINE('',#976,#210);
#147=LINE('',#977,#211);
#148=LINE('',#980,#212);
#149=LINE('',#981,#213);
#150=LINE('',#983,#214);
#151=LINE('',#985,#215);
#152=LINE('',#987,#216);
#153=LINE('',#989,#217);
#154=LINE('',#991,#218);
#155=LINE('',#993,#219);
#156=LINE('',#995,#220);
#157=LINE('',#997,#221);
#158=LINE('',#999,#222);
#159=VECTOR('',#670,10.);
#160=VECTOR('',#673,10.);
#161=VECTOR('',#676,10.);
#162=VECTOR('',#679,10.);
#163=VECTOR('',#682,10.);
#164=VECTOR('',#683,10.);
#165=VECTOR('',#684,10.);
#166=VECTOR('',#687,10.);
#167=VECTOR('',#690,10.);
#168=VECTOR('',#691,10.);
#169=VECTOR('',#692,10.);
#170=VECTOR('',#695,10.);
#171=VECTOR('',#698,10.);
#172=VECTOR('',#699,10.);
#173=VECTOR('',#700,10.);
#174=VECTOR('',#703,10.);
#175=VECTOR('',#706,10.);
#176=VECTOR('',#707,10.);
#177=VECTOR('',#708,10.);
#178=VECTOR('',#711,10.);
#179=VECTOR('',#714,10.);
#180=VECTOR('',#715,10.);
#181=VECTOR('',#720,10.);
#182=VECTOR('',#723,10.);
#183=VECTOR('',#726,10.);
#184=VECTOR('',#729,10.);
#185=VECTOR('',#730,10.);
#186=VECTOR('',#733,10.);
#187=VECTOR('',#736,10.);
#188=VECTOR('',#739,10.);
#189=VECTOR('',#740,10.);
#190=VECTOR('',#743,10.);
#191=VECTOR('',#746,10.);
#192=VECTOR('',#749,10.);
#193=VECTOR('',#750,10.);
#194=VECTOR('',#753,10.);
#195=VECTOR('',#756,10.);
#196=VECTOR('',#759,10.);
#197=VECTOR('',#760,10.);
#198=VECTOR('',#763,10.);
#199=VECTOR('',#766,10.);
#200=VECTOR('',#769,10.);
#201=VECTOR('',#770,10.);
#202=VECTOR('',#775,10.);
#203=VECTOR('',#776,10.);
#204=VECTOR('',#779,10.);
#205=VECTOR('',#780,10.);
#206=VECTOR('',#785,10.);
#207=VECTOR('',#786,10.);
#208=VECTOR('',#789,10.);
#209=VECTOR('',#790,10.);
#210=VECTOR('',#795,10.);
#211=VECTOR('',#796,10.);
#212=VECTOR('',#799,10.);
#213=VECTOR('',#800,10.);
#214=VECTOR('',#803,10.);
#215=VECTOR('',#806,10.);
#216=VECTOR('',#809,10.);
#217=VECTOR('',#812,10.);
#218=VECTOR('',#815,10.);
#219=VECTOR('',#818,10.);
#220=VECTOR('',#821,10.);
#221=VECTOR('',#824,10.);
#222=VECTOR('',#827,10.);
#223=CIRCLE('',#615,2.);
#224=CIRCLE('',#616,2.);
#225=CIRCLE('',#618,2.);
#226=CIRCLE('',#619,2.);
#227=CIRCLE('',#620,2.);
#228=CIRCLE('',#621,1.);
#229=CIRCLE('',#622,2.);
#230=CIRCLE('',#623,2.);
#231=CIRCLE('',#624,2.);
#232=CIRCLE('',#625,2.);
#233=CIRCLE('',#626,2.);
#234=CIRCLE('',#629,2.);
#235=CIRCLE('',#631,2.);
#236=CIRCLE('',#634,2.);
#237=CIRCLE('',#637,2.);
#238=CIRCLE('',#640,2.);
#239=CIRCLE('',#643,2.);
#240=CIRCLE('',#646,2.);
#241=CIRCLE('',#649,2.);
#242=CIRCLE('',#652,1.);
#243=VERTEX_POINT('',#832);
#244=VERTEX_POINT('',#833);
#245=VERTEX_POINT('',#835);
#246=VERTEX_POINT('',#837);
#247=VERTEX_POINT('',#841);
#248=VERTEX_POINT('',#843);
#249=VERTEX_POINT('',#845);
#250=VERTEX_POINT('',#847);
#251=VERTEX_POINT('',#849);
#252=VERTEX_POINT('',#851);
#253=VERTEX_POINT('',#853);
#254=VERTEX_POINT('',#855);
#255=VERTEX_POINT('',#857);
#256=VERTEX_POINT('',#859);
#257=VERTEX_POINT('',#861);
#258=VERTEX_POINT('',#863);
#259=VERTEX_POINT('',#865);
#260=VERTEX_POINT('',#867);
#261=VERTEX_POINT('',#869);
#262=VERTEX_POINT('',#871);
#263=VERTEX_POINT('',#873);
#264=VERTEX_POINT('',#875);
#265=VERTEX_POINT('',#877);
#266=VERTEX_POINT('',#879);
#267=VERTEX_POINT('',#881);
#268=VERTEX_POINT('',#883);
#269=VERTEX_POINT('',#885);
#270=VERTEX_POINT('',#887);
#271=VERTEX_POINT('',#889);
#272=VERTEX_POINT('',#891);
#273=VERTEX_POINT('',#895);
#274=VERTEX_POINT('',#899);
#275=VERTEX_POINT('',#903);
#276=VERTEX_POINT('',#905);
#277=VERTEX_POINT('',#909);
#278=VERTEX_POINT('',#913);
#279=VERTEX_POINT('',#915);
#280=VERTEX_POINT('',#919);
#281=VERTEX_POINT('',#923);
#282=VERTEX_POINT('',#925);
#283=VERTEX_POINT('',#929);
#284=VERTEX_POINT('',#933);
#285=VERTEX_POINT('',#935);
#286=VERTEX_POINT('',#939);
#287=VERTEX_POINT('',#943);
#288=VERTEX_POINT('',#945);
#289=VERTEX_POINT('',#949);
#290=VERTEX_POINT('',#953);
#291=VERTEX_POINT('',#954);
#292=VERTEX_POINT('',#959);
#293=VERTEX_POINT('',#963);
#294=VERTEX_POINT('',#964);
#295=VERTEX_POINT('',#969);
#296=VERTEX_POINT('',#973);
#297=VERTEX_POINT('',#974);
#298=VERTEX_POINT('',#979);
#299=EDGE_CURVE('',#243,#244,#223,.T.);
#300=EDGE_CURVE('',#244,#245,#95,.T.);
#301=EDGE_CURVE('',#245,#246,#224,.T.);
#302=EDGE_CURVE('',#246,#243,#96,.T.);
#303=EDGE_CURVE('',#245,#247,#97,.T.);
#304=EDGE_CURVE('',#248,#247,#225,.T.);
#305=EDGE_CURVE('',#249,#248,#98,.T.);
#306=EDGE_CURVE('',#250,#249,#226,.T.);
#307=EDGE_CURVE('',#251,#250,#99,.T.);
#308=EDGE_CURVE('',#251,#252,#100,.T.);
#309=EDGE_CURVE('',#252,#253,#101,.T.);
#310=EDGE_CURVE('',#254,#253,#227,.T.);
#311=EDGE_CURVE('',#254,#255,#102,.T.);
#312=EDGE_CURVE('',#256,#255,#228,.T.);
#313=EDGE_CURVE('',#257,#256,#103,.T.);
#314=EDGE_CURVE('',#257,#258,#104,.T.);
#315=EDGE_CURVE('',#258,#259,#105,.T.);
#316=EDGE_CURVE('',#260,#259,#229,.T.);
#317=EDGE_CURVE('',#260,#261,#106,.T.);
#318=EDGE_CURVE('',#262,#261,#230,.T.);
#319=EDGE_CURVE('',#263,#262,#107,.T.);
#320=EDGE_CURVE('',#263,#264,#108,.T.);
#321=EDGE_CURVE('',#264,#265,#109,.T.);
#322=EDGE_CURVE('',#266,#265,#231,.T.);
#323=EDGE_CURVE('',#266,#267,#110,.T.);
#324=EDGE_CURVE('',#268,#267,#232,.T.);
#325=EDGE_CURVE('',#269,#268,#111,.T.);
#326=EDGE_CURVE('',#269,#270,#112,.T.);
#327=EDGE_CURVE('',#270,#271,#113,.T.);
#328=EDGE_CURVE('',#272,#271,#233,.T.);
#329=EDGE_CURVE('',#272,#246,#114,.T.);
#330=EDGE_CURVE('',#244,#273,#115,.T.);
#331=EDGE_CURVE('',#247,#273,#116,.T.);
#332=EDGE_CURVE('',#273,#274,#234,.T.);
#333=EDGE_CURVE('',#274,#248,#117,.T.);
#334=EDGE_CURVE('',#249,#275,#118,.T.);
#335=EDGE_CURVE('',#275,#276,#235,.T.);
#336=EDGE_CURVE('',#276,#250,#119,.T.);
#337=EDGE_CURVE('',#277,#276,#120,.T.);
#338=EDGE_CURVE('',#277,#251,#121,.T.);
#339=EDGE_CURVE('',#253,#278,#122,.T.);
#340=EDGE_CURVE('',#278,#279,#236,.T.);
#341=EDGE_CURVE('',#279,#254,#123,.T.);
#342=EDGE_CURVE('',#252,#280,#124,.T.);
#343=EDGE_CURVE('',#280,#278,#125,.T.);
#344=EDGE_CURVE('',#259,#281,#126,.T.);
#345=EDGE_CURVE('',#281,#282,#237,.T.);
#346=EDGE_CURVE('',#282,#260,#127,.T.);
#347=EDGE_CURVE('',#258,#283,#128,.T.);
#348=EDGE_CURVE('',#283,#281,#129,.T.);
#349=EDGE_CURVE('',#265,#284,#130,.T.);
#350=EDGE_CURVE('',#284,#285,#238,.T.);
#351=EDGE_CURVE('',#285,#266,#131,.T.);
#352=EDGE_CURVE('',#264,#286,#132,.T.);
#353=EDGE_CURVE('',#286,#284,#133,.T.);
#354=EDGE_CURVE('',#271,#287,#134,.T.);
#355=EDGE_CURVE('',#287,#288,#239,.T.);
#356=EDGE_CURVE('',#288,#272,#135,.T.);
#357=EDGE_CURVE('',#270,#289,#136,.T.);
#358=EDGE_CURVE('',#289,#287,#137,.T.);
#359=EDGE_CURVE('',#290,#291,#240,.T.);
#360=EDGE_CURVE('',#291,#268,#138,.T.);
#361=EDGE_CURVE('',#267,#290,#139,.T.);
#362=EDGE_CURVE('',#292,#291,#140,.T.);
#363=EDGE_CURVE('',#292,#269,#141,.T.);
#364=EDGE_CURVE('',#293,#294,#241,.T.);
#365=EDGE_CURVE('',#294,#262,#142,.T.);
#366=EDGE_CURVE('',#261,#293,#143,.T.);
#367=EDGE_CURVE('',#295,#294,#144,.T.);
#368=EDGE_CURVE('',#295,#263,#145,.T.);
#369=EDGE_CURVE('',#296,#297,#242,.T.);
#370=EDGE_CURVE('',#297,#256,#146,.T.);
#371=EDGE_CURVE('',#255,#296,#147,.T.);
#372=EDGE_CURVE('',#298,#297,#148,.T.);
#373=EDGE_CURVE('',#298,#257,#149,.T.);
#374=EDGE_CURVE('',#243,#288,#150,.T.);
#375=EDGE_CURVE('',#290,#285,#151,.T.);
#376=EDGE_CURVE('',#293,#282,#152,.T.);
#377=EDGE_CURVE('',#296,#279,#153,.T.);
#378=EDGE_CURVE('',#274,#275,#154,.T.);
#379=EDGE_CURVE('',#286,#295,#155,.T.);
#380=EDGE_CURVE('',#280,#277,#156,.T.);
#381=EDGE_CURVE('',#289,#292,#157,.T.);
#382=EDGE_CURVE('',#283,#298,#158,.T.);
#383=ORIENTED_EDGE('',*,*,#299,.T.);
#384=ORIENTED_EDGE('',*,*,#300,.T.);
#385=ORIENTED_EDGE('',*,*,#301,.T.);
#386=ORIENTED_EDGE('',*,*,#302,.T.);
#387=ORIENTED_EDGE('',*,*,#301,.F.);
#388=ORIENTED_EDGE('',*,*,#303,.T.);
#389=ORIENTED_EDGE('',*,*,#304,.F.);
#390=ORIENTED_EDGE('',*,*,#305,.F.);
#391=ORIENTED_EDGE('',*,*,#306,.F.);
#392=ORIENTED_EDGE('',*,*,#307,.F.);
#393=ORIENTED_EDGE('',*,*,#308,.T.);
#394=ORIENTED_EDGE('',*,*,#309,.T.);
#395=ORIENTED_EDGE('',*,*,#310,.F.);
#396=ORIENTED_EDGE('',*,*,#311,.T.);
#397=ORIENTED_EDGE('',*,*,#312,.F.);
#398=ORIENTED_EDGE('',*,*,#313,.F.);
#399=ORIENTED_EDGE('',*,*,#314,.T.);
#400=ORIENTED_EDGE('',*,*,#315,.T.);
#401=ORIENTED_EDGE('',*,*,#316,.F.);
#402=ORIENTED_EDGE('',*,*,#317,.T.);
#403=ORIENTED_EDGE('',*,*,#318,.F.);
#404=ORIENTED_EDGE('',*,*,#319,.F.);
#405=ORIENTED_EDGE('',*,*,#320,.T.);
#406=ORIENTED_EDGE('',*,*,#321,.T.);
#407=ORIENTED_EDGE('',*,*,#322,.F.);
#408=ORIENTED_EDGE('',*,*,#323,.T.);
#409=ORIENTED_EDGE('',*,*,#324,.F.);
#410=ORIENTED_EDGE('',*,*,#325,.F.);
#411=ORIENTED_EDGE('',*,*,#326,.T.);
#412=ORIENTED_EDGE('',*,*,#327,.T.);
#413=ORIENTED_EDGE('',*,*,#328,.F.);
#414=ORIENTED_EDGE('',*,*,#329,.T.);
#415=ORIENTED_EDGE('',*,*,#300,.F.);
#416=ORIENTED_EDGE('',*,*,#330,.T.);
#417=ORIENTED_EDGE('',*,*,#331,.F.);
#418=ORIENTED_EDGE('',*,*,#303,.F.);
#419=ORIENTED_EDGE('',*,*,#332,.T.);
#420=ORIENTED_EDGE('',*,*,#333,.T.);
#421=ORIENTED_EDGE('',*,*,#304,.T.);
#422=ORIENTED_EDGE('',*,*,#331,.T.);
#423=ORIENTED_EDGE('',*,*,#306,.T.);
#424=ORIENTED_EDGE('',*,*,#334,.T.);
#425=ORIENTED_EDGE('',*,*,#335,.T.);
#426=ORIENTED_EDGE('',*,*,#336,.T.);
#427=ORIENTED_EDGE('',*,*,#336,.F.);
#428=ORIENTED_EDGE('',*,*,#337,.F.);
#429=ORIENTED_EDGE('',*,*,#338,.T.);
#430=ORIENTED_EDGE('',*,*,#307,.T.);
#431=ORIENTED_EDGE('',*,*,#310,.T.);
#432=ORIENTED_EDGE('',*,*,#339,.T.);
#433=ORIENTED_EDGE('',*,*,#340,.T.);
#434=ORIENTED_EDGE('',*,*,#341,.T.);
#435=ORIENTED_EDGE('',*,*,#339,.F.);
#436=ORIENTED_EDGE('',*,*,#309,.F.);
#437=ORIENTED_EDGE('',*,*,#342,.T.);
#438=ORIENTED_EDGE('',*,*,#343,.T.);
#439=ORIENTED_EDGE('',*,*,#316,.T.);
#440=ORIENTED_EDGE('',*,*,#344,.T.);
#441=ORIENTED_EDGE('',*,*,#345,.T.);
#442=ORIENTED_EDGE('',*,*,#346,.T.);
#443=ORIENTED_EDGE('',*,*,#344,.F.);
#444=ORIENTED_EDGE('',*,*,#315,.F.);
#445=ORIENTED_EDGE('',*,*,#347,.T.);
#446=ORIENTED_EDGE('',*,*,#348,.T.);
#447=ORIENTED_EDGE('',*,*,#322,.T.);
#448=ORIENTED_EDGE('',*,*,#349,.T.);
#449=ORIENTED_EDGE('',*,*,#350,.T.);
#450=ORIENTED_EDGE('',*,*,#351,.T.);
#451=ORIENTED_EDGE('',*,*,#349,.F.);
#452=ORIENTED_EDGE('',*,*,#321,.F.);
#453=ORIENTED_EDGE('',*,*,#352,.T.);
#454=ORIENTED_EDGE('',*,*,#353,.T.);
#455=ORIENTED_EDGE('',*,*,#328,.T.);
#456=ORIENTED_EDGE('',*,*,#354,.T.);
#457=ORIENTED_EDGE('',*,*,#355,.T.);
#458=ORIENTED_EDGE('',*,*,#356,.T.);
#459=ORIENTED_EDGE('',*,*,#354,.F.);
#460=ORIENTED_EDGE('',*,*,#327,.F.);
#461=ORIENTED_EDGE('',*,*,#357,.T.);
#462=ORIENTED_EDGE('',*,*,#358,.T.);
#463=ORIENTED_EDGE('',*,*,#359,.T.);
#464=ORIENTED_EDGE('',*,*,#360,.T.);
#465=ORIENTED_EDGE('',*,*,#324,.T.);
#466=ORIENTED_EDGE('',*,*,#361,.T.);
#467=ORIENTED_EDGE('',*,*,#360,.F.);
#468=ORIENTED_EDGE('',*,*,#362,.F.);
#469=ORIENTED_EDGE('',*,*,#363,.T.);
#470=ORIENTED_EDGE('',*,*,#325,.T.);
#471=ORIENTED_EDGE('',*,*,#364,.T.);
#472=ORIENTED_EDGE('',*,*,#365,.T.);
#473=ORIENTED_EDGE('',*,*,#318,.T.);
#474=ORIENTED_EDGE('',*,*,#366,.T.);
#475=ORIENTED_EDGE('',*,*,#365,.F.);
#476=ORIENTED_EDGE('',*,*,#367,.F.);
#477=ORIENTED_EDGE('',*,*,#368,.T.);
#478=ORIENTED_EDGE('',*,*,#319,.T.);
#479=ORIENTED_EDGE('',*,*,#369,.T.);
#480=ORIENTED_EDGE('',*,*,#370,.T.);
#481=ORIENTED_EDGE('',*,*,#312,.T.);
#482=ORIENTED_EDGE('',*,*,#371,.T.);
#483=ORIENTED_EDGE('',*,*,#370,.F.);
#484=ORIENTED_EDGE('',*,*,#372,.F.);
#485=ORIENTED_EDGE('',*,*,#373,.T.);
#486=ORIENTED_EDGE('',*,*,#313,.T.);
#487=ORIENTED_EDGE('',*,*,#302,.F.);
#488=ORIENTED_EDGE('',*,*,#329,.F.);
#489=ORIENTED_EDGE('',*,*,#356,.F.);
#490=ORIENTED_EDGE('',*,*,#374,.F.);
#491=ORIENTED_EDGE('',*,*,#351,.F.);
#492=ORIENTED_EDGE('',*,*,#375,.F.);
#493=ORIENTED_EDGE('',*,*,#361,.F.);
#494=ORIENTED_EDGE('',*,*,#323,.F.);
#495=ORIENTED_EDGE('',*,*,#346,.F.);
#496=ORIENTED_EDGE('',*,*,#376,.F.);
#497=ORIENTED_EDGE('',*,*,#366,.F.);
#498=ORIENTED_EDGE('',*,*,#317,.F.);
#499=ORIENTED_EDGE('',*,*,#341,.F.);
#500=ORIENTED_EDGE('',*,*,#377,.F.);
#501=ORIENTED_EDGE('',*,*,#371,.F.);
#502=ORIENTED_EDGE('',*,*,#311,.F.);
#503=ORIENTED_EDGE('',*,*,#333,.F.);
#504=ORIENTED_EDGE('',*,*,#378,.T.);
#505=ORIENTED_EDGE('',*,*,#334,.F.);
#506=ORIENTED_EDGE('',*,*,#305,.T.);
#507=ORIENTED_EDGE('',*,*,#379,.F.);
#508=ORIENTED_EDGE('',*,*,#352,.F.);
#509=ORIENTED_EDGE('',*,*,#320,.F.);
#510=ORIENTED_EDGE('',*,*,#368,.F.);
#511=ORIENTED_EDGE('',*,*,#308,.F.);
#512=ORIENTED_EDGE('',*,*,#338,.F.);
#513=ORIENTED_EDGE('',*,*,#380,.F.);
#514=ORIENTED_EDGE('',*,*,#342,.F.);
#515=ORIENTED_EDGE('',*,*,#381,.F.);
#516=ORIENTED_EDGE('',*,*,#357,.F.);
#517=ORIENTED_EDGE('',*,*,#326,.F.);
#518=ORIENTED_EDGE('',*,*,#363,.F.);
#519=ORIENTED_EDGE('',*,*,#299,.F.);
#520=ORIENTED_EDGE('',*,*,#374,.T.);
#521=ORIENTED_EDGE('',*,*,#355,.F.);
#522=ORIENTED_EDGE('',*,*,#358,.F.);
#523=ORIENTED_EDGE('',*,*,#381,.T.);
#524=ORIENTED_EDGE('',*,*,#362,.T.);
#525=ORIENTED_EDGE('',*,*,#359,.F.);
#526=ORIENTED_EDGE('',*,*,#375,.T.);
#527=ORIENTED_EDGE('',*,*,#350,.F.);
#528=ORIENTED_EDGE('',*,*,#353,.F.);
#529=ORIENTED_EDGE('',*,*,#379,.T.);
#530=ORIENTED_EDGE('',*,*,#367,.T.);
#531=ORIENTED_EDGE('',*,*,#364,.F.);
#532=ORIENTED_EDGE('',*,*,#376,.T.);
#533=ORIENTED_EDGE('',*,*,#345,.F.);
#534=ORIENTED_EDGE('',*,*,#348,.F.);
#535=ORIENTED_EDGE('',*,*,#382,.T.);
#536=ORIENTED_EDGE('',*,*,#372,.T.);
#537=ORIENTED_EDGE('',*,*,#369,.F.);
#538=ORIENTED_EDGE('',*,*,#377,.T.);
#539=ORIENTED_EDGE('',*,*,#340,.F.);
#540=ORIENTED_EDGE('',*,*,#343,.F.);
#541=ORIENTED_EDGE('',*,*,#380,.T.);
#542=ORIENTED_EDGE('',*,*,#337,.T.);
#543=ORIENTED_EDGE('',*,*,#335,.F.);
#544=ORIENTED_EDGE('',*,*,#378,.F.);
#545=ORIENTED_EDGE('',*,*,#332,.F.);
#546=ORIENTED_EDGE('',*,*,#330,.F.);
#547=ORIENTED_EDGE('',*,*,#382,.F.);
#548=ORIENTED_EDGE('',*,*,#347,.F.);
#549=ORIENTED_EDGE('',*,*,#314,.F.);
#550=ORIENTED_EDGE('',*,*,#373,.F.);
#551=CYLINDRICAL_SURFACE('',#614,2.);
#552=CYLINDRICAL_SURFACE('',#628,2.);
#553=CYLINDRICAL_SURFACE('',#630,2.);
#554=CYLINDRICAL_SURFACE('',#633,2.);
#555=CYLINDRICAL_SURFACE('',#636,2.);
#556=CYLINDRICAL_SURFACE('',#639,2.);
#557=CYLINDRICAL_SURFACE('',#642,2.);
#558=CYLINDRICAL_SURFACE('',#645,2.);
#559=CYLINDRICAL_SURFACE('',#648,2.);
#560=CYLINDRICAL_SURFACE('',#651,1.);
#561=ADVANCED_FACE('',(#35),#551,.T.);
#562=ADVANCED_FACE('',(#36),#15,.T.);
#563=ADVANCED_FACE('',(#37),#16,.T.);
#564=ADVANCED_FACE('',(#38),#552,.T.);
#565=ADVANCED_FACE('',(#39),#553,.T.);
#566=ADVANCED_FACE('',(#40),#17,.T.);
#567=ADVANCED_FACE('',(#41),#554,.F.);
#568=ADVANCED_FACE('',(#42),#18,.T.);
#569=ADVANCED_FACE('',(#43),#555,.F.);
#570=ADVANCED_FACE('',(#44),#19,.T.);
#571=ADVANCED_FACE('',(#45),#556,.F.);
#572=ADVANCED_FACE('',(#46),#20,.T.);
#573=ADVANCED_FACE('',(#47),#557,.F.);
#574=ADVANCED_FACE('',(#48),#21,.T.);
#575=ADVANCED_FACE('',(#49),#558,.F.);
#576=ADVANCED_FACE('',(#50),#22,.T.);
#577=ADVANCED_FACE('',(#51),#559,.F.);
#578=ADVANCED_FACE('',(#52),#23,.T.);
#579=ADVANCED_FACE('',(#53),#560,.F.);
#580=ADVANCED_FACE('',(#54),#24,.T.);
#581=ADVANCED_FACE('',(#55),#25,.F.);
#582=ADVANCED_FACE('',(#56),#26,.F.);
#583=ADVANCED_FACE('',(#57),#27,.F.);
#584=ADVANCED_FACE('',(#58),#28,.F.);
#585=ADVANCED_FACE('',(#59),#29,.T.);
#586=ADVANCED_FACE('',(#60),#30,.F.);
#587=ADVANCED_FACE('',(#61),#31,.F.);
#588=ADVANCED_FACE('',(#62),#32,.F.);
#589=ADVANCED_FACE('',(#63),#33,.T.);
#590=ADVANCED_FACE('',(#64),#34,.F.);
#591=CLOSED_SHELL('',(#561,#562,#563,#564,#565,#566,#567,#568,#569,#570,
#571,#572,#573,#574,#575,#576,#577,#578,#579,#580,#581,#582,#583,#584,#585,
#586,#587,#588,#589,#590));
#592=DERIVED_UNIT_ELEMENT(#595,1.);
#593=DERIVED_UNIT_ELEMENT(#1006,-3.);
#594=DIMENSIONAL_EXPONENTS(0.,1.,0.,0.,0.,0.,0.);
#595=(
CONVERSION_BASED_UNIT('gram',#597)
MASS_UNIT()
NAMED_UNIT(#594)
);
#596=(
MASS_UNIT()
NAMED_UNIT(*)
SI_UNIT(.KILO.,.GRAM.)
);
#597=MASS_MEASURE_WITH_UNIT(MASS_MEASURE(0.001),#596);
#598=DERIVED_UNIT((#592,#593));
#599=MEASURE_REPRESENTATION_ITEM('density measure',
POSITIVE_RATIO_MEASURE(8.94),#598);
#600=PROPERTY_DEFINITION_REPRESENTATION(#605,#602);
#601=PROPERTY_DEFINITION_REPRESENTATION(#606,#603);
#602=REPRESENTATION('material name',(#604),#1003);
#603=REPRESENTATION('density',(#599),#1003);
#604=DESCRIPTIVE_REPRESENTATION_ITEM('\X2\041C04350434044C\X0\',
'\X2\041C04350434044C\X0\');
#605=PROPERTY_DEFINITION('material property','material name',#1013);
#606=PROPERTY_DEFINITION('material property','density of part',#1013);
#607=DATE_TIME_ROLE('creation_date');
#608=APPLIED_DATE_AND_TIME_ASSIGNMENT(#609,#607,(#1013));
#609=DATE_AND_TIME(#610,#611);
#610=CALENDAR_DATE(2025,9,12);
#611=LOCAL_TIME(0,0,0.,#612);
#612=COORDINATED_UNIVERSAL_TIME_OFFSET(0,0,.BEHIND.);
#613=AXIS2_PLACEMENT_3D('',#830,#664,#665);
#614=AXIS2_PLACEMENT_3D('',#831,#666,#667);
#615=AXIS2_PLACEMENT_3D('',#834,#668,#669);
#616=AXIS2_PLACEMENT_3D('',#838,#671,#672);
#617=AXIS2_PLACEMENT_3D('',#840,#674,#675);
#618=AXIS2_PLACEMENT_3D('',#844,#677,#678);
#619=AXIS2_PLACEMENT_3D('',#848,#680,#681);
#620=AXIS2_PLACEMENT_3D('',#856,#685,#686);
#621=AXIS2_PLACEMENT_3D('',#860,#688,#689);
#622=AXIS2_PLACEMENT_3D('',#868,#693,#694);
#623=AXIS2_PLACEMENT_3D('',#872,#696,#697);
#624=AXIS2_PLACEMENT_3D('',#880,#701,#702);
#625=AXIS2_PLACEMENT_3D('',#884,#704,#705);
#626=AXIS2_PLACEMENT_3D('',#892,#709,#710);
#627=AXIS2_PLACEMENT_3D('',#894,#712,#713);
#628=AXIS2_PLACEMENT_3D('',#898,#716,#717);
#629=AXIS2_PLACEMENT_3D('',#900,#718,#719);
#630=AXIS2_PLACEMENT_3D('',#902,#721,#722);
#631=AXIS2_PLACEMENT_3D('',#906,#724,#725);
#632=AXIS2_PLACEMENT_3D('',#908,#727,#728);
#633=AXIS2_PLACEMENT_3D('',#912,#731,#732);
#634=AXIS2_PLACEMENT_3D('',#916,#734,#735);
#635=AXIS2_PLACEMENT_3D('',#918,#737,#738);
#636=AXIS2_PLACEMENT_3D('',#922,#741,#742);
#637=AXIS2_PLACEMENT_3D('',#926,#744,#745);
#638=AXIS2_PLACEMENT_3D('',#928,#747,#748);
#639=AXIS2_PLACEMENT_3D('',#932,#751,#752);
#640=AXIS2_PLACEMENT_3D('',#936,#754,#755);
#641=AXIS2_PLACEMENT_3D('',#938,#757,#758);
#642=AXIS2_PLACEMENT_3D('',#942,#761,#762);
#643=AXIS2_PLACEMENT_3D('',#946,#764,#765);
#644=AXIS2_PLACEMENT_3D('',#948,#767,#768);
#645=AXIS2_PLACEMENT_3D('',#952,#771,#772);
#646=AXIS2_PLACEMENT_3D('',#955,#773,#774);
#647=AXIS2_PLACEMENT_3D('',#958,#777,#778);
#648=AXIS2_PLACEMENT_3D('',#962,#781,#782);
#649=AXIS2_PLACEMENT_3D('',#965,#783,#784);
#650=AXIS2_PLACEMENT_3D('',#968,#787,#788);
#651=AXIS2_PLACEMENT_3D('',#972,#791,#792);
#652=AXIS2_PLACEMENT_3D('',#975,#793,#794);
#653=AXIS2_PLACEMENT_3D('',#978,#797,#798);
#654=AXIS2_PLACEMENT_3D('',#982,#801,#802);
#655=AXIS2_PLACEMENT_3D('',#984,#804,#805);
#656=AXIS2_PLACEMENT_3D('',#986,#807,#808);
#657=AXIS2_PLACEMENT_3D('',#988,#810,#811);
#658=AXIS2_PLACEMENT_3D('',#990,#813,#814);
#659=AXIS2_PLACEMENT_3D('',#992,#816,#817);
#660=AXIS2_PLACEMENT_3D('',#994,#819,#820);
#661=AXIS2_PLACEMENT_3D('',#996,#822,#823);
#662=AXIS2_PLACEMENT_3D('',#998,#825,#826);
#663=AXIS2_PLACEMENT_3D('',#1000,#828,#829);
#664=DIRECTION('axis',(0.,0.,1.));
#665=DIRECTION('refdir',(1.,0.,0.));
#666=DIRECTION('center_axis',(0.,0.,1.));
#667=DIRECTION('ref_axis',(-0.707106781186546,-0.707106781186549,0.));
#668=DIRECTION('center_axis',(0.,0.,-1.));
#669=DIRECTION('ref_axis',(-0.707106781186546,-0.707106781186549,0.));
#670=DIRECTION('',(0.,0.,-1.));
#671=DIRECTION('center_axis',(-1.85037170770859E-16,0.,1.));
#672=DIRECTION('ref_axis',(-0.707106781186546,-0.707106781186549,0.));
#673=DIRECTION('',(0.,0.,1.));
#674=DIRECTION('center_axis',(1.85037170770859E-16,0.,-1.));
#675=DIRECTION('ref_axis',(-1.,0.,-1.85037170770859E-16));
#676=DIRECTION('',(0.,1.,0.));
#677=DIRECTION('center_axis',(-1.85037170770859E-16,0.,1.));
#678=DIRECTION('ref_axis',(-0.707106781186547,0.707106781186548,0.));
#679=DIRECTION('',(-1.,0.,1.17190208154878E-16));
#680=DIRECTION('center_axis',(-1.85037170770859E-16,0.,1.));
#681=DIRECTION('ref_axis',(0.707106781186548,0.707106781186547,-9.8130778667736E-17));
#682=DIRECTION('',(0.,1.,0.));
#683=DIRECTION('',(-1.,0.,0.));
#684=DIRECTION('',(0.,1.,0.));
#685=DIRECTION('center_axis',(1.85037170770859E-16,0.,-1.));
#686=DIRECTION('ref_axis',(0.707106781186547,0.707106781186548,-1.96261557335472E-16));
#687=DIRECTION('',(-1.,0.,1.17190208154878E-16));
#688=DIRECTION('center_axis',(1.85037170770859E-16,0.,-1.));
#689=DIRECTION('ref_axis',(-0.707106781186548,0.707106781186547,0.));
#690=DIRECTION('',(0.,1.,0.));
#691=DIRECTION('',(-1.,0.,-1.85037170770859E-16));
#692=DIRECTION('',(0.,1.,0.));
#693=DIRECTION('center_axis',(1.85037170770859E-16,0.,-1.));
#694=DIRECTION('ref_axis',(0.707106781186548,0.707106781186547,0.));
#695=DIRECTION('',(-1.,0.,1.17190208154878E-16));
#696=DIRECTION('center_axis',(1.85037170770859E-16,0.,-1.));
#697=DIRECTION('ref_axis',(-0.707106781186548,0.707106781186547,0.));
#698=DIRECTION('',(0.,1.,0.));
#699=DIRECTION('',(-1.,0.,0.));
#700=DIRECTION('',(0.,1.,0.));
#701=DIRECTION('center_axis',(1.85037170770859E-16,0.,-1.));
#702=DIRECTION('ref_axis',(0.707106781186548,0.707106781186547,0.));
#703=DIRECTION('',(-1.,0.,1.17190208154878E-16));
#704=DIRECTION('center_axis',(1.85037170770859E-16,0.,-1.));
#705=DIRECTION('ref_axis',(-0.707106781186546,0.707106781186549,0.));
#706=DIRECTION('',(0.,1.,0.));
#707=DIRECTION('',(-1.,0.,0.));
#708=DIRECTION('',(0.,1.,0.));
#709=DIRECTION('center_axis',(1.85037170770859E-16,0.,-1.));
#710=DIRECTION('ref_axis',(0.707106781186549,0.707106781186546,0.));
#711=DIRECTION('',(-1.,0.,1.17190208154878E-16));
#712=DIRECTION('center_axis',(-1.,0.,0.));
#713=DIRECTION('ref_axis',(0.,0.,1.));
#714=DIRECTION('',(0.,1.,0.));
#715=DIRECTION('',(0.,0.,1.));
#716=DIRECTION('center_axis',(0.,0.,1.));
#717=DIRECTION('ref_axis',(-0.707106781186547,0.707106781186548,0.));
#718=DIRECTION('center_axis',(0.,0.,-1.));
#719=DIRECTION('ref_axis',(-0.707106781186547,0.707106781186548,0.));
#720=DIRECTION('',(0.,0.,-1.));
#721=DIRECTION('center_axis',(-1.85037170770859E-16,0.,-1.));
#722=DIRECTION('ref_axis',(0.707106781186548,0.707106781186547,-9.8130778667736E-17));
#723=DIRECTION('',(1.85037170770859E-16,0.,1.));
#724=DIRECTION('center_axis',(0.,0.,-1.));
#725=DIRECTION('ref_axis',(0.707106781186548,0.707106781186547,-9.8130778667736E-17));
#726=DIRECTION('',(-1.85037170770859E-16,0.,-1.));
#727=DIRECTION('center_axis',(1.,0.,-1.85037170770859E-16));
#728=DIRECTION('ref_axis',(-1.85037170770859E-16,0.,-1.));
#729=DIRECTION('',(0.,1.,0.));
#730=DIRECTION('',(-1.85037170770859E-16,0.,-1.));
#731=DIRECTION('center_axis',(1.85037170770859E-16,0.,1.));
#732=DIRECTION('ref_axis',(0.707106781186547,0.707106781186548,-1.96261557335472E-16));
#733=DIRECTION('',(1.85037170770859E-16,0.,1.));
#734=DIRECTION('center_axis',(0.,0.,1.));
#735=DIRECTION('ref_axis',(0.707106781186547,0.707106781186548,-1.96261557335472E-16));
#736=DIRECTION('',(-1.85037170770859E-16,0.,-1.));
#737=DIRECTION('center_axis',(-1.,0.,1.85037170770859E-16));
#738=DIRECTION('ref_axis',(1.85037170770859E-16,0.,1.));
#739=DIRECTION('',(1.85037170770859E-16,0.,1.));
#740=DIRECTION('',(0.,1.,0.));
#741=DIRECTION('center_axis',(0.,0.,1.));
#742=DIRECTION('ref_axis',(0.707106781186548,0.707106781186547,0.));
#743=DIRECTION('',(0.,0.,1.));
#744=DIRECTION('center_axis',(0.,0.,1.));
#745=DIRECTION('ref_axis',(0.707106781186548,0.707106781186547,0.));
#746=DIRECTION('',(0.,0.,-1.));
#747=DIRECTION('center_axis',(-1.,0.,0.));
#748=DIRECTION('ref_axis',(0.,0.,1.));
#749=DIRECTION('',(0.,0.,1.));
#750=DIRECTION('',(0.,1.,0.));
#751=DIRECTION('center_axis',(0.,0.,1.));
#752=DIRECTION('ref_axis',(0.707106781186548,0.707106781186547,0.));
#753=DIRECTION('',(0.,0.,1.));
#754=DIRECTION('center_axis',(0.,0.,1.));
#755=DIRECTION('ref_axis',(0.707106781186548,0.707106781186547,0.));
#756=DIRECTION('',(0.,0.,-1.));
#757=DIRECTION('center_axis',(-1.,0.,0.));
#758=DIRECTION('ref_axis',(0.,0.,1.));
#759=DIRECTION('',(0.,0.,1.));
#760=DIRECTION('',(0.,1.,0.));
#761=DIRECTION('center_axis',(0.,0.,1.));
#762=DIRECTION('ref_axis',(0.707106781186549,0.707106781186546,0.));
#763=DIRECTION('',(0.,0.,1.));
#764=DIRECTION('center_axis',(0.,0.,1.));
#765=DIRECTION('ref_axis',(0.707106781186549,0.707106781186546,0.));
#766=DIRECTION('',(0.,0.,-1.));
#767=DIRECTION('center_axis',(-1.,0.,0.));
#768=DIRECTION('ref_axis',(0.,0.,1.));
#769=DIRECTION('',(0.,0.,1.));
#770=DIRECTION('',(0.,1.,0.));
#771=DIRECTION('center_axis',(0.,0.,-1.));
#772=DIRECTION('ref_axis',(-0.707106781186546,0.707106781186549,0.));
#773=DIRECTION('center_axis',(0.,0.,1.));
#774=DIRECTION('ref_axis',(-0.707106781186546,0.707106781186549,0.));
#775=DIRECTION('',(0.,0.,-1.));
#776=DIRECTION('',(0.,0.,1.));
#777=DIRECTION('center_axis',(1.,0.,0.));
#778=DIRECTION('ref_axis',(0.,0.,-1.));
#779=DIRECTION('',(0.,1.,0.));
#780=DIRECTION('',(0.,0.,-1.));
#781=DIRECTION('center_axis',(0.,0.,-1.));
#782=DIRECTION('ref_axis',(-0.707106781186548,0.707106781186547,0.));
#783=DIRECTION('center_axis',(0.,0.,1.));
#784=DIRECTION('ref_axis',(-0.707106781186548,0.707106781186547,0.));
#785=DIRECTION('',(0.,0.,-1.));
#786=DIRECTION('',(0.,0.,1.));
#787=DIRECTION('center_axis',(1.,0.,0.));
#788=DIRECTION('ref_axis',(0.,0.,-1.));
#789=DIRECTION('',(0.,1.,0.));
#790=DIRECTION('',(0.,0.,-1.));
#791=DIRECTION('center_axis',(0.,0.,-1.));
#792=DIRECTION('ref_axis',(-0.707106781186548,0.707106781186547,0.));
#793=DIRECTION('center_axis',(0.,0.,1.));
#794=DIRECTION('ref_axis',(-0.707106781186548,0.707106781186547,0.));
#795=DIRECTION('',(0.,0.,-1.));
#796=DIRECTION('',(0.,0.,1.));
#797=DIRECTION('center_axis',(1.,0.,0.));
#798=DIRECTION('ref_axis',(0.,0.,-1.));
#799=DIRECTION('',(0.,1.,0.));
#800=DIRECTION('',(0.,0.,-1.));
#801=DIRECTION('center_axis',(0.,1.,0.));
#802=DIRECTION('ref_axis',(0.,0.,1.));
#803=DIRECTION('',(1.,0.,1.5419764230905E-18));
#804=DIRECTION('center_axis',(0.,1.,0.));
#805=DIRECTION('ref_axis',(0.,0.,1.));
#806=DIRECTION('',(1.,0.,1.5419764230905E-18));
#807=DIRECTION('center_axis',(0.,1.,0.));
#808=DIRECTION('ref_axis',(0.,0.,1.));
#809=DIRECTION('',(1.,0.,1.5419764230905E-18));
#810=DIRECTION('center_axis',(0.,1.,0.));
#811=DIRECTION('ref_axis',(0.,0.,1.));
#812=DIRECTION('',(1.,0.,1.5419764230905E-18));
#813=DIRECTION('center_axis',(0.,1.,0.));
#814=DIRECTION('ref_axis',(0.,0.,1.));
#815=DIRECTION('',(1.,0.,1.5419764230905E-18));
#816=DIRECTION('center_axis',(0.,1.,0.));
#817=DIRECTION('ref_axis',(0.,0.,1.));
#818=DIRECTION('',(1.,0.,0.));
#819=DIRECTION('center_axis',(0.,1.,0.));
#820=DIRECTION('ref_axis',(0.,0.,1.));
#821=DIRECTION('',(1.,0.,0.));
#822=DIRECTION('center_axis',(0.,1.,0.));
#823=DIRECTION('ref_axis',(0.,0.,1.));
#824=DIRECTION('',(1.,0.,0.));
#825=DIRECTION('center_axis',(0.,0.,1.));
#826=DIRECTION('ref_axis',(1.,0.,0.));
#827=DIRECTION('',(1.,0.,0.));
#828=DIRECTION('center_axis',(0.,1.,0.));
#829=DIRECTION('ref_axis',(0.,0.,1.));
#830=CARTESIAN_POINT('',(0.,0.,0.));
#831=CARTESIAN_POINT('Origin',(-88.,6.,-2.25));
#832=CARTESIAN_POINT('',(-88.,4.,-1.35693925231964E-16));
#833=CARTESIAN_POINT('',(-90.,6.,-1.38777878078145E-16));
#834=CARTESIAN_POINT('Origin',(-88.,6.,0.));
#835=CARTESIAN_POINT('',(-90.,6.,-3.));
#836=CARTESIAN_POINT('',(-90.,6.,-2.25));
#837=CARTESIAN_POINT('',(-88.,4.,-3.));
#838=CARTESIAN_POINT('Origin',(-88.,6.,-3.));
#839=CARTESIAN_POINT('',(-88.,4.,-2.25));
#840=CARTESIAN_POINT('Origin',(-17.,0.,-3.));
#841=CARTESIAN_POINT('',(-90.,17.,-3.));
#842=CARTESIAN_POINT('',(-90.,4.,-3.));
#843=CARTESIAN_POINT('',(-88.,19.,-3.));
#844=CARTESIAN_POINT('Origin',(-88.,17.,-3.));
#845=CARTESIAN_POINT('',(-2.,19.,-3.00000000000001));
#846=CARTESIAN_POINT('',(0.,19.,-3.00000000000001));
#847=CARTESIAN_POINT('',(-5.55111512312578E-16,17.,-3.));
#848=CARTESIAN_POINT('Origin',(-2.,17.,-3.));
#849=CARTESIAN_POINT('',(-5.55111512312578E-16,0.,-3.));
#850=CARTESIAN_POINT('',(-5.55111512312578E-16,0.,-3.));
#851=CARTESIAN_POINT('',(-3.,0.,-3.));
#852=CARTESIAN_POINT('',(-5.55111512312578E-16,0.,-3.));
#853=CARTESIAN_POINT('',(-3.,2.,-3.));
#854=CARTESIAN_POINT('',(-3.,0.,-3.));
#855=CARTESIAN_POINT('',(-5.,4.,-3.00000000000001));
#856=CARTESIAN_POINT('Origin',(-5.,2.,-3.));
#857=CARTESIAN_POINT('',(-16.,4.,-3.00000000000001));
#858=CARTESIAN_POINT('',(0.,4.,-3.00000000000001));
#859=CARTESIAN_POINT('',(-17.,3.,-3.));
#860=CARTESIAN_POINT('Origin',(-16.,3.,-3.));
#861=CARTESIAN_POINT('',(-17.,0.,-3.));
#862=CARTESIAN_POINT('',(-17.,0.,-3.));
#863=CARTESIAN_POINT('',(-20.,0.,-3.));
#864=CARTESIAN_POINT('',(-17.,0.,-3.));
#865=CARTESIAN_POINT('',(-20.,2.,-3.));
#866=CARTESIAN_POINT('',(-20.,0.,-3.));
#867=CARTESIAN_POINT('',(-22.,4.,-3.00000000000001));
#868=CARTESIAN_POINT('Origin',(-22.,2.,-3.));
#869=CARTESIAN_POINT('',(-32.,4.,-3.00000000000001));
#870=CARTESIAN_POINT('',(0.,4.,-3.00000000000001));
#871=CARTESIAN_POINT('',(-34.,2.,-3.));
#872=CARTESIAN_POINT('Origin',(-32.,2.,-3.));
#873=CARTESIAN_POINT('',(-34.,0.,-3.));
#874=CARTESIAN_POINT('',(-34.,0.,-3.));
#875=CARTESIAN_POINT('',(-37.,0.,-3.));
#876=CARTESIAN_POINT('',(-34.,0.,-3.));
#877=CARTESIAN_POINT('',(-37.,2.,-3.));
#878=CARTESIAN_POINT('',(-37.,0.,-3.));
#879=CARTESIAN_POINT('',(-39.,4.,-3.00000000000001));
#880=CARTESIAN_POINT('Origin',(-39.,2.,-3.));
#881=CARTESIAN_POINT('',(-49.,4.,-3.00000000000001));
#882=CARTESIAN_POINT('',(0.,4.,-3.00000000000001));
#883=CARTESIAN_POINT('',(-51.,2.,-3.));
#884=CARTESIAN_POINT('Origin',(-49.,2.,-3.));
#885=CARTESIAN_POINT('',(-51.,0.,-3.));
#886=CARTESIAN_POINT('',(-51.,0.,-3.));
#887=CARTESIAN_POINT('',(-54.,0.,-3.));
#888=CARTESIAN_POINT('',(-51.,0.,-3.));
#889=CARTESIAN_POINT('',(-54.,2.,-3.));
#890=CARTESIAN_POINT('',(-54.,0.,-3.));
#891=CARTESIAN_POINT('',(-56.,4.,-3.));
#892=CARTESIAN_POINT('Origin',(-56.,2.,-3.));
#893=CARTESIAN_POINT('',(0.,4.,-3.00000000000001));
#894=CARTESIAN_POINT('Origin',(-90.,4.,-3.));
#895=CARTESIAN_POINT('',(-90.,17.,-1.38777878078145E-16));
#896=CARTESIAN_POINT('',(-90.,4.,-1.38777878078145E-16));
#897=CARTESIAN_POINT('',(-90.,17.,-2.25));
#898=CARTESIAN_POINT('Origin',(-88.,17.,-2.25));
#899=CARTESIAN_POINT('',(-88.,19.,-1.35693925231964E-16));
#900=CARTESIAN_POINT('Origin',(-88.,17.,0.));
#901=CARTESIAN_POINT('',(-88.,19.,-2.25));
#902=CARTESIAN_POINT('Origin',(-2.,17.,-0.750000000000007));
#903=CARTESIAN_POINT('',(-1.99999999999999,19.,-3.08395284618098E-18));
#904=CARTESIAN_POINT('',(-2.,19.,-0.750000000000007));
#905=CARTESIAN_POINT('',(0.,17.,0.));
#906=CARTESIAN_POINT('Origin',(-2.,17.,-3.33066907387547E-15));
#907=CARTESIAN_POINT('',(-2.77555756156289E-16,17.,-0.750000000000007));
#908=CARTESIAN_POINT('Origin',(0.,0.,0.));
#909=CARTESIAN_POINT('',(0.,0.,0.));
#910=CARTESIAN_POINT('',(0.,0.,0.));
#911=CARTESIAN_POINT('',(0.,0.,0.));
#912=CARTESIAN_POINT('Origin',(-5.,2.,-2.25000000000001));
#913=CARTESIAN_POINT('',(-3.,2.,0.));
#914=CARTESIAN_POINT('',(-3.,2.,-2.25000000000001));
#915=CARTESIAN_POINT('',(-5.,4.,-7.70988211545248E-18));
#916=CARTESIAN_POINT('Origin',(-5.,2.,-2.77555756156289E-15));
#917=CARTESIAN_POINT('',(-5.,4.,-2.25000000000001));
#918=CARTESIAN_POINT('Origin',(-3.,0.,-3.));
#919=CARTESIAN_POINT('',(-3.,0.,0.));
#920=CARTESIAN_POINT('',(-3.,0.,-3.));
#921=CARTESIAN_POINT('',(-3.,0.,0.));
#922=CARTESIAN_POINT('Origin',(-22.,2.,-2.25));
#923=CARTESIAN_POINT('',(-20.,2.,0.));
#924=CARTESIAN_POINT('',(-20.,2.,-2.25));
#925=CARTESIAN_POINT('',(-22.,4.,-3.39234813079909E-17));
#926=CARTESIAN_POINT('Origin',(-22.,2.,0.));
#927=CARTESIAN_POINT('',(-22.,4.,-2.25));
#928=CARTESIAN_POINT('Origin',(-20.,0.,-3.));
#929=CARTESIAN_POINT('',(-20.,0.,0.));
#930=CARTESIAN_POINT('',(-20.,0.,-3.));
#931=CARTESIAN_POINT('',(-20.,0.,0.));
#932=CARTESIAN_POINT('Origin',(-39.,2.,-2.25));
#933=CARTESIAN_POINT('',(-37.,2.,0.));
#934=CARTESIAN_POINT('',(-37.,2.,-2.25));
#935=CARTESIAN_POINT('',(-39.,4.,-6.01370805005293E-17));
#936=CARTESIAN_POINT('Origin',(-39.,2.,0.));
#937=CARTESIAN_POINT('',(-39.,4.,-2.25));
#938=CARTESIAN_POINT('Origin',(-37.,0.,-3.));
#939=CARTESIAN_POINT('',(-37.,0.,0.));
#940=CARTESIAN_POINT('',(-37.,0.,-3.));
#941=CARTESIAN_POINT('',(-37.,0.,0.));
#942=CARTESIAN_POINT('Origin',(-56.,2.,-2.25));
#943=CARTESIAN_POINT('',(-54.,2.,0.));
#944=CARTESIAN_POINT('',(-54.,2.,-2.25));
#945=CARTESIAN_POINT('',(-56.,4.,-8.63506796930677E-17));
#946=CARTESIAN_POINT('Origin',(-56.,2.,0.));
#947=CARTESIAN_POINT('',(-56.,4.,-2.25));
#948=CARTESIAN_POINT('Origin',(-54.,0.,-3.));
#949=CARTESIAN_POINT('',(-54.,0.,0.));
#950=CARTESIAN_POINT('',(-54.,0.,-3.));
#951=CARTESIAN_POINT('',(-54.,0.,0.));
#952=CARTESIAN_POINT('Origin',(-49.,2.,-0.750000000000003));
#953=CARTESIAN_POINT('',(-49.,4.,-7.55568447314343E-17));
#954=CARTESIAN_POINT('',(-51.,2.,-2.77555756156289E-16));
#955=CARTESIAN_POINT('Origin',(-49.,2.,0.));
#956=CARTESIAN_POINT('',(-51.,2.,-0.750000000000003));
#957=CARTESIAN_POINT('',(-49.,4.,-0.750000000000003));
#958=CARTESIAN_POINT('Origin',(-51.,0.,-2.77555756156289E-16));
#959=CARTESIAN_POINT('',(-51.,0.,-2.77555756156289E-16));
#960=CARTESIAN_POINT('',(-51.,0.,-2.77555756156289E-16));
#961=CARTESIAN_POINT('',(-51.,0.,-2.77555756156289E-16));
#962=CARTESIAN_POINT('Origin',(-32.,2.,-0.750000000000003));
#963=CARTESIAN_POINT('',(-32.,4.,-4.93432455388959E-17));
#964=CARTESIAN_POINT('',(-34.,2.,-1.38777878078145E-16));
#965=CARTESIAN_POINT('Origin',(-32.,2.,0.));
#966=CARTESIAN_POINT('',(-34.,2.,-0.750000000000003));
#967=CARTESIAN_POINT('',(-32.,4.,-0.750000000000003));
#968=CARTESIAN_POINT('Origin',(-34.,0.,-1.38777878078145E-16));
#969=CARTESIAN_POINT('',(-34.,0.,-1.38777878078145E-16));
#970=CARTESIAN_POINT('',(-34.,0.,-1.38777878078145E-16));
#971=CARTESIAN_POINT('',(-34.,0.,-1.38777878078145E-16));
#972=CARTESIAN_POINT('Origin',(-16.,3.,-0.750000000000003));
#973=CARTESIAN_POINT('',(-16.,4.,-2.46716227694479E-17));
#974=CARTESIAN_POINT('',(-17.,3.,0.));
#975=CARTESIAN_POINT('Origin',(-16.,3.,0.));
#976=CARTESIAN_POINT('',(-17.,3.,-0.750000000000003));
#977=CARTESIAN_POINT('',(-16.,4.,-0.750000000000003));
#978=CARTESIAN_POINT('Origin',(-17.,0.,0.));
#979=CARTESIAN_POINT('',(-17.,0.,0.));
#980=CARTESIAN_POINT('',(-17.,0.,0.));
#981=CARTESIAN_POINT('',(-17.,0.,-5.55111512312578E-16));
#982=CARTESIAN_POINT('Origin',(-45.,4.,-1.50000000000001));
#983=CARTESIAN_POINT('',(-90.,4.,-1.38777878078145E-16));
#984=CARTESIAN_POINT('Origin',(-45.,4.,-1.50000000000001));
#985=CARTESIAN_POINT('',(-90.,4.,-1.38777878078145E-16));
#986=CARTESIAN_POINT('Origin',(-45.,4.,-1.50000000000001));
#987=CARTESIAN_POINT('',(-90.,4.,-1.38777878078145E-16));
#988=CARTESIAN_POINT('Origin',(-45.,4.,-1.50000000000001));
#989=CARTESIAN_POINT('',(-90.,4.,-1.38777878078145E-16));
#990=CARTESIAN_POINT('Origin',(-45.,19.,-1.50000000000001));
#991=CARTESIAN_POINT('',(-90.,19.,-1.38777878078145E-16));
#992=CARTESIAN_POINT('Origin',(-35.5,0.,-1.5));
#993=CARTESIAN_POINT('',(-37.,0.,0.));
#994=CARTESIAN_POINT('Origin',(-1.5,0.,-1.5));
#995=CARTESIAN_POINT('',(-3.,0.,0.));
#996=CARTESIAN_POINT('Origin',(-52.5,0.,-1.5));
#997=CARTESIAN_POINT('',(-54.,0.,0.));
#998=CARTESIAN_POINT('Origin',(-20.,0.,0.));
#999=CARTESIAN_POINT('',(-20.,0.,0.));
#1000=CARTESIAN_POINT('Origin',(-18.5,0.,-1.5));
#1001=UNCERTAINTY_MEASURE_WITH_UNIT(LENGTH_MEASURE(0.01),#1005,
'DISTANCE_ACCURACY_VALUE',
'Maximum model space distance between geometric entities at asserted c
onnectivities');
#1002=UNCERTAINTY_MEASURE_WITH_UNIT(LENGTH_MEASURE(0.01),#1005,
'DISTANCE_ACCURACY_VALUE',
'Maximum model space distance between geometric entities at asserted c
onnectivities');
#1003=(
GEOMETRIC_REPRESENTATION_CONTEXT(3)
GLOBAL_UNCERTAINTY_ASSIGNED_CONTEXT((#1001))
GLOBAL_UNIT_ASSIGNED_CONTEXT((#1005,#1007,#1008))
REPRESENTATION_CONTEXT('','3D')
);
#1004=(
GEOMETRIC_REPRESENTATION_CONTEXT(3)
GLOBAL_UNCERTAINTY_ASSIGNED_CONTEXT((#1002))
GLOBAL_UNIT_ASSIGNED_CONTEXT((#1005,#1007,#1008))
REPRESENTATION_CONTEXT('','3D')
);
#1005=(
LENGTH_UNIT()
NAMED_UNIT(*)
SI_UNIT(.MILLI.,.METRE.)
);
#1006=(
LENGTH_UNIT()
NAMED_UNIT(*)
SI_UNIT(.CENTI.,.METRE.)
);
#1007=(
NAMED_UNIT(*)
PLANE_ANGLE_UNIT()
SI_UNIT($,.RADIAN.)
);
#1008=(
NAMED_UNIT(*)
SI_UNIT($,.STERADIAN.)
SOLID_ANGLE_UNIT()
);
#1009=SHAPE_DEFINITION_REPRESENTATION(#1010,#1011);
#1010=PRODUCT_DEFINITION_SHAPE('',$,#1013);
#1011=SHAPE_REPRESENTATION('',(#613),#1003);
#1012=PRODUCT_DEFINITION_CONTEXT('part definition',#1017,'design');
#1013=PRODUCT_DEFINITION('Bus_copper_GND','Bus_copper_GND',#1014,#1012);
#1014=PRODUCT_DEFINITION_FORMATION('',$,#1019);
#1015=PRODUCT_RELATED_PRODUCT_CATEGORY('Bus_copper_GND',
'Bus_copper_GND',(#1019));
#1016=APPLICATION_PROTOCOL_DEFINITION('international standard',
'automotive_design',2009,#1017);
#1017=APPLICATION_CONTEXT(
'Core Data for Automotive Mechanical Design Process');
#1018=PRODUCT_CONTEXT('part definition',#1017,'mechanical');
#1019=PRODUCT('Bus_copper_GND','Bus_copper_GND',$,(#1018));
#1020=PRESENTATION_STYLE_ASSIGNMENT((#1021));
#1021=SURFACE_STYLE_USAGE(.BOTH.,#1024);
#1022=SURFACE_STYLE_RENDERING_WITH_PROPERTIES($,#1028,(#1023));
#1023=SURFACE_STYLE_TRANSPARENT(0.);
#1024=SURFACE_SIDE_STYLE('',(#1025,#1022));
#1025=SURFACE_STYLE_FILL_AREA(#1026);
#1026=FILL_AREA_STYLE('',(#1027));
#1027=FILL_AREA_STYLE_COLOUR('',#1028);
#1028=COLOUR_RGB('',0.737254901960784,0.313725490196078,0.184313725490196);
ENDSEC;
END-ISO-10303-21;
